<svg width="284" height="55" viewBox="0 0 284 55" fill="none" xmlns="http://www.w3.org/2000/svg">
<path d="M107.57 39.3516V22.5469H116.769C119.488 22.5469 120.848 23.9102 120.848 26.6367V29.0273C120.848 31.7539 119.488 33.1172 116.769 33.1172H109.973V39.3516H107.57ZM109.973 30.7148H116.641C117.281 30.7148 117.742 30.5742 118.023 30.293C118.305 30.0117 118.445 29.5508 118.445 28.9102V26.7539C118.445 26.1133 118.305 25.6523 118.023 25.3711C117.742 25.0898 117.281 24.9492 116.641 24.9492H109.973V30.7148ZM126.613 22.5469V36.9492H135.25V39.3516H124.211V22.5469H126.613ZM145.574 22.5469L152.055 39.3516H149.652L148.164 35.4844H140.582L139.094 39.3516H136.691L143.172 22.5469H145.574ZM141.496 33.082H147.238L144.379 25.6758L141.496 33.082ZM154.129 22.5469L159.016 30.3984L163.914 22.5469H166.703L160.223 32.6836V39.3516H157.82V32.6836L151.34 22.5469H154.129ZM190.949 36.9492C190.949 37.2773 190.887 37.5898 190.762 37.8867C190.637 38.1758 190.465 38.4297 190.246 38.6484C190.027 38.8672 189.769 39.0391 189.473 39.1641C189.183 39.2891 188.875 39.3516 188.547 39.3516H178.949C178.621 39.3516 178.308 39.2891 178.012 39.1641C177.723 39.0391 177.469 38.8672 177.25 38.6484C177.031 38.4297 176.859 38.1758 176.734 37.8867C176.609 37.5898 176.547 37.2773 176.547 36.9492V24.9492C176.547 24.6211 176.609 24.3125 176.734 24.0234C176.859 23.7266 177.031 23.4727 177.25 23.2617C177.469 23.043 177.723 22.8711 178.012 22.7461C178.308 22.6133 178.621 22.5469 178.949 22.5469H188.547C188.875 22.5469 189.183 22.6133 189.473 22.7461C189.769 22.8711 190.027 23.043 190.246 23.2617C190.465 23.4727 190.637 23.7266 190.762 24.0234C190.887 24.3125 190.949 24.6211 190.949 24.9492V36.9492ZM178.949 24.9492V36.9492H188.547V24.9492H178.949ZM197.676 39.3516H195.273V22.5469H197.676L207.777 35.5781V22.5469H210.18V39.3516H207.777L197.676 26.3203V39.3516ZM221.687 39.3516V22.5469H230.887C233.605 22.5469 234.965 23.9102 234.965 26.6367V29.0273C234.965 31.7539 233.605 33.1172 230.887 33.1172H224.09V39.3516H221.687ZM224.09 30.7148H230.758C231.398 30.7148 231.859 30.5742 232.141 30.293C232.422 30.0117 232.562 29.5508 232.562 28.9102V26.7539C232.562 26.1133 232.422 25.6523 232.141 25.3711C231.859 25.0898 231.398 24.9492 230.758 24.9492H224.09V30.7148ZM238.328 24.9492C238.328 24.6211 238.391 24.3125 238.516 24.0234C238.641 23.7266 238.812 23.4727 239.031 23.2617C239.25 23.043 239.504 22.8711 239.793 22.7461C240.09 22.6133 240.402 22.5469 240.73 22.5469H249.848C250.176 22.5469 250.484 22.6133 250.773 22.7461C251.07 22.8711 251.328 23.043 251.547 23.2617C251.766 23.4727 251.937 23.7266 252.062 24.0234C252.187 24.3125 252.25 24.6211 252.25 24.9492V27.1172H249.848V24.9492H240.73V36.9492H249.848V34.793H252.25V36.9492C252.25 37.2773 252.187 37.5898 252.062 37.8867C251.937 38.1758 251.766 38.4297 251.547 38.6484C251.328 38.8672 251.07 39.0391 250.773 39.1641C250.484 39.2891 250.176 39.3516 249.848 39.3516H240.73C240.402 39.3516 240.09 39.2891 239.793 39.1641C239.504 39.0391 239.25 38.8672 239.031 38.6484C238.812 38.4297 238.641 38.1758 238.516 37.8867C238.391 37.5898 238.328 37.2773 238.328 36.9492V24.9492Z" fill="#F3FEFF"/>
<path d="M25.1925 4.5592C34.831 3.05115 44.4965 1.63995 54.1621 0.270264C54.1621 8.90347 54.1621 17.5228 54.1621 26.156C44.5101 26.1975 34.8581 26.3497 25.1925 26.3774C25.1789 19.1001 25.1789 11.8227 25.1925 4.5592Z" fill="white"/>
<path d="M0.702698 8.0322C7.96547 6.89771 15.2554 5.91541 22.5453 4.97461C22.5453 12.1274 22.5453 19.2803 22.5589 26.4331C15.269 26.4331 7.99262 26.5438 0.702698 26.5161V8.0322Z" fill="white"/>
<path d="M0.702698 28.7843C7.97905 28.7566 15.2554 28.8811 22.5453 28.8673C22.5453 36.0478 22.5589 43.2145 22.5453 50.395C15.269 49.2882 7.99262 48.3335 0.702698 47.3236V28.7843Z" fill="white"/>
<path d="M25.1518 29.075C34.8309 29.075 44.4965 29.075 54.1621 29.075C54.1757 37.6805 54.1621 46.286 54.1621 54.8916C44.5237 53.425 34.8581 52.0553 25.1925 50.7133C25.1789 43.5051 25.1653 36.2831 25.1518 29.075Z" fill="white"/>
</svg>
