<svg width="292" height="51" viewBox="0 0 292 51" fill="none" xmlns="http://www.w3.org/2000/svg">
<path d="M87.0908 34.4631V17.6584H96.29C99.0088 17.6584 100.368 19.0217 100.368 21.7483V24.1389C100.368 26.8655 99.0088 28.2288 96.29 28.2288H89.4931V34.4631H87.0908ZM89.4931 25.8264H96.1611C96.8017 25.8264 97.2627 25.6858 97.5439 25.4045C97.8252 25.1233 97.9658 24.6624 97.9658 24.0217V21.8655C97.9658 21.2249 97.8252 20.7639 97.5439 20.4827C97.2627 20.2014 96.8017 20.0608 96.1611 20.0608H89.4931V25.8264ZM106.134 17.6584V32.0608H114.77V34.4631H103.731V17.6584H106.134ZM125.095 17.6584L131.575 34.4631H129.173L127.685 30.5959H120.103L118.614 34.4631H116.212L122.692 17.6584H125.095ZM121.017 28.1936H126.759L123.899 20.7874L121.017 28.1936ZM133.649 17.6584L138.536 25.51L143.435 17.6584H146.224L139.743 27.7952V34.4631H137.341V27.7952L130.86 17.6584H133.649ZM170.47 32.0608C170.47 32.3889 170.407 32.7014 170.282 32.9983C170.157 33.2874 169.985 33.5413 169.767 33.76C169.548 33.9788 169.29 34.1506 168.993 34.2756C168.704 34.4006 168.395 34.4631 168.067 34.4631H158.47C158.142 34.4631 157.829 34.4006 157.532 34.2756C157.243 34.1506 156.989 33.9788 156.77 33.76C156.552 33.5413 156.38 33.2874 156.255 32.9983C156.13 32.7014 156.067 32.3889 156.067 32.0608V20.0608C156.067 19.7327 156.13 19.4241 156.255 19.135C156.38 18.8381 156.552 18.5842 156.77 18.3733C156.989 18.1545 157.243 17.9827 157.532 17.8577C157.829 17.7249 158.142 17.6584 158.47 17.6584H168.067C168.395 17.6584 168.704 17.7249 168.993 17.8577C169.29 17.9827 169.548 18.1545 169.767 18.3733C169.985 18.5842 170.157 18.8381 170.282 19.135C170.407 19.4241 170.47 19.7327 170.47 20.0608V32.0608ZM158.47 20.0608V32.0608H168.067V20.0608H158.47ZM177.196 34.4631H174.794V17.6584H177.196L187.298 30.6897V17.6584H189.7V34.4631H187.298L177.196 21.4319V34.4631ZM202.79 17.6584L207.278 23.9514L211.79 17.6584H214.696L208.743 25.9905L214.825 34.4631H211.919L207.278 28.0061L202.673 34.4631H199.767L205.849 25.9905L199.895 17.6584H202.79ZM228.653 25.6975C229.005 25.8069 229.325 25.9631 229.614 26.1663C229.903 26.3694 230.149 26.6311 230.353 26.9514C230.556 27.2639 230.712 27.635 230.821 28.0647C230.931 28.4944 230.985 28.9866 230.985 29.5413V30.385C230.985 33.1038 229.626 34.4631 226.907 34.4631H217.708V17.6584H226.427C229.145 17.6584 230.505 19.0217 230.505 21.7483V22.053C230.505 22.9983 230.353 23.7717 230.048 24.3733C229.751 24.967 229.286 25.4084 228.653 25.6975ZM220.063 27.1389V32.1077H226.837C227.47 32.1077 227.927 31.9592 228.208 31.6624C228.489 31.3655 228.63 30.9006 228.63 30.2678V28.967C228.63 28.3264 228.489 27.8616 228.208 27.5725C227.927 27.2834 227.47 27.1389 226.837 27.1389H220.063ZM220.063 20.0139V24.7952H226.52C227.099 24.7717 227.513 24.6155 227.763 24.3264C228.02 24.0295 228.149 23.5764 228.149 22.967V21.8655C228.149 21.2249 228.009 20.7561 227.728 20.4592C227.446 20.1624 226.989 20.0139 226.356 20.0139H220.063ZM248.985 32.0608C248.985 32.3889 248.923 32.7014 248.798 32.9983C248.673 33.2874 248.501 33.5413 248.282 33.76C248.063 33.9788 247.806 34.1506 247.509 34.2756C247.22 34.4006 246.911 34.4631 246.583 34.4631H236.985C236.657 34.4631 236.345 34.4006 236.048 34.2756C235.759 34.1506 235.505 33.9788 235.286 33.76C235.067 33.5413 234.895 33.2874 234.77 32.9983C234.645 32.7014 234.583 32.3889 234.583 32.0608V20.0608C234.583 19.7327 234.645 19.4241 234.77 19.135C234.895 18.8381 235.067 18.5842 235.286 18.3733C235.505 18.1545 235.759 17.9827 236.048 17.8577C236.345 17.7249 236.657 17.6584 236.985 17.6584H246.583C246.911 17.6584 247.22 17.7249 247.509 17.8577C247.806 17.9827 248.063 18.1545 248.282 18.3733C248.501 18.5842 248.673 18.8381 248.798 19.135C248.923 19.4241 248.985 19.7327 248.985 20.0608V32.0608ZM236.985 20.0608V32.0608H246.583V20.0608H236.985ZM254.892 17.6584L259.38 23.9514L263.892 17.6584H266.798L260.845 25.9905L266.927 34.4631H264.02L259.38 28.0061L254.774 34.4631H251.868L257.95 25.9905L251.997 17.6584H254.892Z" fill="#F3FEFF"/>
<path d="M7.4868 7.17732C7.4868 7.2392 7.42492 7.2392 7.4868 7.17732C2.84622 11.756 0 18.0672 0 25.059C0 30.7515 1.91811 36.0108 5.13557 40.2182C5.19745 40.2801 5.19745 40.2801 5.25932 40.2801C5.3212 40.2801 5.3212 40.2182 5.25932 40.1564C3.34122 34.2783 13.1174 19.9234 18.1292 13.9216L18.1911 13.8598C18.1911 13.7979 18.1911 13.7979 18.1292 13.7979C9.71428 5.32109 7.42492 7.2392 7.4868 7.17732Z" fill="white"/>
<path d="M42.6315 7.17732C42.6315 7.2392 42.6315 7.2392 42.6315 7.17732C47.272 11.756 50.1183 18.0672 50.1183 25.059C50.1183 30.7515 48.2001 36.0108 44.9827 40.2182C44.9208 40.2801 44.9208 40.2801 44.8589 40.2801C44.7971 40.2801 44.7971 40.2182 44.8589 40.1564C46.777 34.2783 37.0009 19.9234 31.9891 13.9216L31.9272 13.8598C31.9272 13.7979 31.9272 13.7979 31.9891 13.7979C40.404 5.32109 42.6933 7.2392 42.6315 7.17732Z" fill="white"/>
<path d="M25.0591 0C30.1328 0 34.2784 1.36124 38.1146 3.65059C38.1765 3.65059 38.1765 3.71246 38.1765 3.77434C38.1765 3.83621 38.1146 3.83621 38.0527 3.83621C33.2265 2.78435 25.8016 6.9918 25.121 7.42492C25.121 7.42492 25.121 7.42492 25.0591 7.42492H24.9973C23.141 6.37306 16.3348 2.78435 12.0655 3.89809C12.0036 3.89809 11.9418 3.89809 11.9418 3.83621C11.9418 3.77434 11.9418 3.71246 12.0036 3.71246C15.778 1.36124 19.9854 0 25.0591 0Z" fill="white"/>
<path d="M25.0591 20.1091C25.0591 20.1091 25.121 20.1091 25.121 20.171C32.6078 25.8634 45.4777 39.9708 41.5177 43.9308C37.1246 47.767 31.3703 50.1182 25.0591 50.1182C18.7479 50.1182 12.9936 47.767 8.53867 43.9308C4.64058 39.9708 17.4486 25.8634 24.9354 20.171C24.9972 20.1091 24.9972 20.1091 25.0591 20.1091Z" fill="white"/>
</svg>
