<svg width="379" height="78" viewBox="0 0 379 78" fill="none" xmlns="http://www.w3.org/2000/svg">
<path fill-rule="evenodd" clip-rule="evenodd" d="M378.998 0H27.7291L0.997559 77.0835H353.539L378.998 0Z" fill="white"/>
<path d="M82.0696 51.4915C81.2696 51.8755 80.4376 52.2595 79.5736 52.6435C78.7416 52.9955 77.8456 53.3155 76.8856 53.6035C75.9256 53.8595 74.8696 54.0675 73.7176 54.2275C72.5976 54.3875 71.3656 54.4675 70.0216 54.4675C65.7336 54.4675 62.4216 53.5075 60.0856 51.5875C57.7816 49.6675 56.6296 46.4675 56.6296 41.9875C56.6296 39.3955 57.0296 36.9635 57.8296 34.6915C58.6296 32.3875 59.8136 30.3875 61.3816 28.6915C62.9496 26.9635 64.8856 25.6035 67.1896 24.6115C69.4936 23.6195 72.1336 23.1235 75.1096 23.1235C76.5176 23.1235 77.7976 23.2195 78.9496 23.4115C80.1336 23.6035 81.1896 23.8595 82.1176 24.1795C83.0776 24.4675 83.9256 24.7875 84.6616 25.1395C85.4296 25.4915 86.1176 25.8275 86.7256 26.1475L84.9976 35.0755H76.3576C76.3896 34.7555 76.4216 34.3395 76.4536 33.8275C76.5176 33.3155 76.5656 32.8035 76.5976 32.2915C76.6296 31.7475 76.6616 31.2195 76.6936 30.7075C76.7256 30.1955 76.7416 29.7635 76.7416 29.4115C76.7416 29.1555 76.7256 28.8675 76.6936 28.5475C76.6616 28.1955 76.5816 27.8595 76.4536 27.5395C76.3256 27.2195 76.1176 26.9635 75.8296 26.7715C75.5736 26.5475 75.2216 26.4355 74.7736 26.4355C73.9416 26.4355 73.1736 26.7875 72.4696 27.4915C71.7976 28.1635 71.1896 29.0755 70.6456 30.2275C70.1016 31.3475 69.6216 32.6275 69.2056 34.0675C68.7896 35.5075 68.4376 36.9795 68.1496 38.4835C67.8936 39.9555 67.6856 41.4115 67.5256 42.8515C67.3976 44.2915 67.3336 45.5555 67.3336 46.6435C67.3336 46.9635 67.3496 47.3635 67.3816 47.8435C67.4136 48.3235 67.5096 48.7875 67.6696 49.2355C67.8296 49.6835 68.0696 50.0675 68.3896 50.3875C68.7416 50.7075 69.2056 50.8675 69.7816 50.8675C70.7736 50.8675 71.7336 50.2595 72.6616 49.0435C73.5896 47.7955 74.4056 45.5875 75.1096 42.4195H83.9896L82.0696 51.4915ZM105.382 23.1235C108.134 23.1235 110.358 23.4755 112.054 24.1795C113.782 24.8835 115.142 25.9715 116.134 27.4435C116.774 28.4355 117.27 29.5555 117.622 30.8035C117.974 32.0515 118.15 33.4915 118.15 35.1235C118.15 36.5315 118.022 37.9395 117.766 39.3475C117.51 40.7555 117.142 42.1155 116.662 43.4275C116.214 44.7075 115.654 45.9235 114.982 47.0755C114.342 48.1955 113.622 49.1875 112.822 50.0515C111.318 51.6835 109.574 52.8355 107.59 53.5075C105.638 54.1475 103.222 54.4675 100.342 54.4675C97.5578 54.4675 95.3178 54.1795 93.6218 53.6035C91.9258 53.0275 90.5818 52.0995 89.5898 50.8195C88.8858 49.9235 88.3258 48.7875 87.9098 47.4115C87.5258 46.0355 87.3338 44.3075 87.3338 42.2275C87.3338 38.6755 87.9578 35.5075 89.2058 32.7235C90.4858 29.9075 92.2938 27.6835 94.6298 26.0515C96.0378 25.0595 97.6058 24.3235 99.3338 23.8435C101.062 23.3635 103.078 23.1235 105.382 23.1235ZM99.9578 51.1075C100.694 51.1075 101.382 50.7875 102.022 50.1475C102.694 49.4755 103.302 48.5955 103.846 47.5075C104.422 46.3875 104.934 45.1235 105.382 43.7155C105.862 42.3075 106.262 40.8515 106.582 39.3475C106.902 37.8435 107.142 36.3555 107.302 34.8835C107.494 33.3795 107.59 32.0195 107.59 30.8035C107.59 29.1395 107.414 28.0035 107.062 27.3955C106.742 26.7555 106.262 26.4355 105.622 26.4355C104.886 26.4355 104.182 26.7555 103.51 27.3955C102.838 28.0355 102.198 28.8995 101.59 29.9875C101.014 31.0435 100.486 32.2755 100.006 33.6835C99.5578 35.0595 99.1578 36.4835 98.8058 37.9555C98.4858 39.4275 98.2298 40.8835 98.0378 42.3235C97.8778 43.7635 97.7978 45.0915 97.7978 46.3075C97.7978 48.1315 97.9898 49.3955 98.3738 50.0995C98.7898 50.7715 99.3178 51.1075 99.9578 51.1075ZM144.097 54.0835H132.865L127.537 32.0515L122.833 54.0835H118.513L124.993 23.6035H136.465L141.505 45.9235L146.257 23.6035H150.673L144.097 54.0835ZM178.636 27.2515H170.908L165.196 54.0835H154.828L160.54 27.2515H152.908L153.772 23.6035H179.452L178.636 27.2515ZM200.371 54.0835H189.139L188.467 46.4515H179.587L176.179 54.0835H171.523L185.683 23.6035H197.059L200.371 54.0835ZM181.171 42.9475H188.131L187.027 29.8915L181.171 42.9475ZM228.601 51.4915C227.801 51.8755 226.969 52.2595 226.105 52.6435C225.273 52.9955 224.377 53.3155 223.417 53.6035C222.457 53.8595 221.401 54.0675 220.249 54.2275C219.129 54.3875 217.897 54.4675 216.553 54.4675C212.265 54.4675 208.953 53.5075 206.617 51.5875C204.313 49.6675 203.161 46.4675 203.161 41.9875C203.161 39.3955 203.561 36.9635 204.361 34.6915C205.161 32.3875 206.345 30.3875 207.913 28.6915C209.481 26.9635 211.417 25.6035 213.721 24.6115C216.025 23.6195 218.665 23.1235 221.641 23.1235C223.049 23.1235 224.329 23.2195 225.481 23.4115C226.665 23.6035 227.721 23.8595 228.649 24.1795C229.609 24.4675 230.457 24.7875 231.193 25.1395C231.961 25.4915 232.649 25.8275 233.257 26.1475L231.529 35.0755H222.889C222.921 34.7555 222.953 34.3395 222.985 33.8275C223.049 33.3155 223.097 32.8035 223.129 32.2915C223.161 31.7475 223.193 31.2195 223.225 30.7075C223.257 30.1955 223.273 29.7635 223.273 29.4115C223.273 29.1555 223.257 28.8675 223.225 28.5475C223.193 28.1955 223.113 27.8595 222.985 27.5395C222.857 27.2195 222.649 26.9635 222.361 26.7715C222.105 26.5475 221.753 26.4355 221.305 26.4355C220.473 26.4355 219.705 26.7875 219.001 27.4915C218.329 28.1635 217.721 29.0755 217.177 30.2275C216.633 31.3475 216.153 32.6275 215.737 34.0675C215.321 35.5075 214.969 36.9795 214.681 38.4835C214.425 39.9555 214.217 41.4115 214.057 42.8515C213.929 44.2915 213.865 45.5555 213.865 46.6435C213.865 46.9635 213.881 47.3635 213.913 47.8435C213.945 48.3235 214.041 48.7875 214.201 49.2355C214.361 49.6835 214.601 50.0675 214.921 50.3875C215.273 50.7075 215.737 50.8675 216.313 50.8675C217.305 50.8675 218.265 50.2595 219.193 49.0435C220.121 47.7955 220.937 45.5875 221.641 42.4195H230.521L228.601 51.4915ZM261.417 27.2515H253.689L247.977 54.0835H237.609L243.321 27.2515H235.689L236.553 23.6035H262.233L261.417 27.2515ZM279.642 43.1875C279.482 43.8915 279.354 44.4995 279.258 45.0115C279.162 45.5235 279.114 46.0035 279.114 46.4515C279.114 47.5715 279.498 48.4675 280.266 49.1395C281.066 49.8115 282.234 50.1475 283.77 50.1475C284.89 50.1475 285.802 49.9555 286.506 49.5715C287.242 49.1875 287.834 48.6755 288.282 48.0355C288.762 47.3955 289.13 46.6595 289.386 45.8275C289.674 44.9955 289.914 44.1155 290.106 43.1875L294.186 23.6035H298.554L294.378 43.2835C294.058 44.8195 293.594 46.2595 292.986 47.6035C292.378 48.9475 291.498 50.1315 290.346 51.1555C289.226 52.1795 287.77 52.9955 285.978 53.6035C284.186 54.1795 281.962 54.4675 279.306 54.4675C275.626 54.4675 272.906 53.8755 271.146 52.6915C269.386 51.4755 268.506 49.6195 268.506 47.1235C268.506 46.0035 268.65 44.5795 268.938 42.8515C269.226 41.1235 269.594 39.2515 270.042 37.2355L272.97 23.6035H283.866L279.642 43.1875ZM315.972 32.4355C316.068 31.9555 316.116 31.2995 316.116 30.4675C316.116 29.9875 316.084 29.5235 316.02 29.0755C315.956 28.5955 315.844 28.1795 315.684 27.8275C315.524 27.4435 315.284 27.1555 314.964 26.9635C314.644 26.7395 314.228 26.6275 313.716 26.6275C313.14 26.6275 312.612 26.7555 312.132 27.0115C311.652 27.2675 311.22 27.6035 310.836 28.0195C310.484 28.4035 310.196 28.8675 309.972 29.4115C309.78 29.9235 309.684 30.4675 309.684 31.0435C309.684 31.8755 309.892 32.5155 310.308 32.9635C310.756 33.4115 311.332 33.7795 312.036 34.0675C312.74 34.3555 313.54 34.5955 314.436 34.7875C315.332 34.9795 316.26 35.2035 317.22 35.4595C318.02 35.6835 318.82 35.9715 319.62 36.3235C320.42 36.6755 321.124 37.1555 321.732 37.7635C322.372 38.3395 322.884 39.1075 323.268 40.0675C323.652 40.9955 323.844 42.1635 323.844 43.5715C323.844 45.5875 323.444 47.2835 322.644 48.6595C321.844 50.0355 320.74 51.1555 319.332 52.0195C317.924 52.8835 316.244 53.5075 314.292 53.8915C312.372 54.2755 310.276 54.4675 308.004 54.4675C305.7 54.4675 303.812 54.3235 302.34 54.0355C300.9 53.7155 299.764 53.3795 298.932 53.0275C297.94 52.6115 297.204 52.1315 296.724 51.5875L298.356 45.0115H306.804C306.772 45.2995 306.74 45.6995 306.708 46.2115C306.676 46.6915 306.66 47.0755 306.66 47.3635C306.66 47.7475 306.708 48.1475 306.804 48.5635C306.9 48.9795 307.044 49.3635 307.236 49.7155C307.46 50.0675 307.764 50.3555 308.148 50.5795C308.532 50.8035 309.012 50.9155 309.588 50.9155C310.228 50.9155 310.788 50.7715 311.268 50.4835C311.78 50.1955 312.196 49.8435 312.516 49.4275C312.868 48.9795 313.124 48.4995 313.284 47.9875C313.476 47.4435 313.572 46.9155 313.572 46.4035C313.572 45.6995 313.396 45.1075 313.044 44.6275C312.724 44.1475 312.276 43.7475 311.7 43.4275C311.124 43.0755 310.452 42.7875 309.684 42.5635C308.948 42.3075 308.18 42.0515 307.38 41.7955C306.612 41.5715 305.796 41.2995 304.932 40.9795C304.1 40.6595 303.332 40.2115 302.628 39.6355C301.924 39.0595 301.332 38.3395 300.852 37.4755C300.404 36.5795 300.18 35.4435 300.18 34.0675C300.18 32.0195 300.692 30.3075 301.716 28.9315C302.772 27.5235 304.084 26.3875 305.652 25.5235C307.252 24.6595 308.996 24.0515 310.884 23.6995C312.772 23.3155 314.564 23.1235 316.26 23.1235C318.5 23.1235 320.42 23.3955 322.02 23.9395C323.652 24.4515 324.884 25.0595 325.716 25.7635L323.94 32.4355H315.972Z" fill="url(#paint0_linear)"/>
<defs>
<linearGradient id="paint0_linear" x1="190.498" y1="7.0835" x2="190.498" y2="68.0835" gradientUnits="userSpaceOnUse">
<stop stop-color="#471156"/>
<stop offset="1" stop-color="#112879"/>
</linearGradient>
</defs>
</svg>
