<svg width="165" height="61" viewBox="0 0 165 61" fill="none" xmlns="http://www.w3.org/2000/svg">
<path fill-rule="evenodd" clip-rule="evenodd" d="M164.715 6.62427H11.6484L0 57.5434H153.622L164.715 6.62427Z" fill="white"/>
<path d="M41.2661 25.352C41.3621 24.872 41.4101 24.216 41.4101 23.384C41.4101 22.904 41.3781 22.44 41.3141 21.992C41.2501 21.512 41.1381 21.096 40.9781 20.744C40.8181 20.36 40.5781 20.072 40.2581 19.88C39.9381 19.656 39.5221 19.544 39.0101 19.544C38.4341 19.544 37.9061 19.672 37.4261 19.928C36.9461 20.184 36.5141 20.52 36.1301 20.936C35.7781 21.32 35.4901 21.784 35.2661 22.328C35.0741 22.84 34.9781 23.384 34.9781 23.96C34.9781 24.792 35.1861 25.432 35.6021 25.88C36.0501 26.328 36.6261 26.696 37.3301 26.984C38.0341 27.272 38.8341 27.512 39.7301 27.704C40.6261 27.896 41.5541 28.12 42.5141 28.376C43.3141 28.6 44.1141 28.888 44.9141 29.24C45.7141 29.592 46.4181 30.072 47.0261 30.68C47.6661 31.256 48.1781 32.024 48.5621 32.984C48.9461 33.912 49.1381 35.08 49.1381 36.488C49.1381 38.504 48.7381 40.2 47.9381 41.576C47.1381 42.952 46.0341 44.072 44.6261 44.936C43.2181 45.8 41.5381 46.424 39.5861 46.808C37.6661 47.192 35.5701 47.384 33.2981 47.384C30.9941 47.384 29.1061 47.24 27.6341 46.952C26.1941 46.632 25.0581 46.296 24.2261 45.944C23.2341 45.528 22.4981 45.048 22.0181 44.504L23.6501 37.928H32.0981C32.0661 38.216 32.0341 38.616 32.0021 39.128C31.9701 39.608 31.9541 39.992 31.9541 40.28C31.9541 40.664 32.0021 41.064 32.0981 41.48C32.1941 41.896 32.3381 42.28 32.5301 42.632C32.7541 42.984 33.0581 43.272 33.4421 43.496C33.8261 43.72 34.3061 43.832 34.8821 43.832C35.5221 43.832 36.0821 43.688 36.5621 43.4C37.0741 43.112 37.4901 42.76 37.8101 42.344C38.1621 41.896 38.4181 41.416 38.5781 40.904C38.7701 40.36 38.8661 39.832 38.8661 39.32C38.8661 38.616 38.6901 38.024 38.3381 37.544C38.0181 37.064 37.5701 36.664 36.9941 36.344C36.4181 35.992 35.7461 35.704 34.9781 35.48C34.2421 35.224 33.4741 34.968 32.6741 34.712C31.9061 34.488 31.0901 34.216 30.2261 33.896C29.3941 33.576 28.6261 33.128 27.9221 32.552C27.2181 31.976 26.6261 31.256 26.1461 30.392C25.6981 29.496 25.4741 28.36 25.4741 26.984C25.4741 24.936 25.9861 23.224 27.0101 21.848C28.0661 20.44 29.3781 19.304 30.9461 18.44C32.5461 17.576 34.2901 16.968 36.1781 16.616C38.0661 16.232 39.8581 16.04 41.5541 16.04C43.7941 16.04 45.7141 16.312 47.3141 16.856C48.9461 17.368 50.1781 17.976 51.0101 18.68L49.2341 25.352H41.2661ZM77.1659 47H66.7979L69.6779 33.416H63.7739L60.8939 47H50.5259L57.0059 16.52H67.4219L64.5899 29.768H70.4459L73.2779 16.52H83.7419L77.1659 47ZM102.223 16.04C104.975 16.04 107.199 16.392 108.895 17.096C110.623 17.8 111.983 18.888 112.975 20.36C113.615 21.352 114.111 22.472 114.463 23.72C114.815 24.968 114.991 26.408 114.991 28.04C114.991 29.448 114.863 30.856 114.607 32.264C114.351 33.672 113.983 35.032 113.503 36.344C113.055 37.624 112.495 38.84 111.823 39.992C111.183 41.112 110.463 42.104 109.663 42.968C108.159 44.6 106.415 45.752 104.431 46.424C102.479 47.064 100.063 47.384 97.1827 47.384C94.3987 47.384 92.1587 47.096 90.4627 46.52C88.7667 45.944 87.4227 45.016 86.4307 43.736C85.7267 42.84 85.1667 41.704 84.7507 40.328C84.3667 38.952 84.1747 37.224 84.1747 35.144C84.1747 31.592 84.7987 28.424 86.0467 25.64C87.3267 22.824 89.1347 20.6 91.4707 18.968C92.8787 17.976 94.4467 17.24 96.1747 16.76C97.9027 16.28 99.9187 16.04 102.223 16.04ZM96.7987 44.024C97.5347 44.024 98.2227 43.704 98.8627 43.064C99.5347 42.392 100.143 41.512 100.687 40.424C101.263 39.304 101.775 38.04 102.223 36.632C102.703 35.224 103.103 33.768 103.423 32.264C103.743 30.76 103.983 29.272 104.143 27.8C104.335 26.296 104.431 24.936 104.431 23.72C104.431 22.056 104.255 20.92 103.903 20.312C103.583 19.672 103.103 19.352 102.463 19.352C101.727 19.352 101.023 19.672 100.351 20.312C99.6787 20.952 99.0387 21.816 98.4307 22.904C97.8547 23.96 97.3267 25.192 96.8467 26.6C96.3987 27.976 95.9987 29.4 95.6467 30.872C95.3267 32.344 95.0707 33.8 94.8787 35.24C94.7187 36.68 94.6387 38.008 94.6387 39.224C94.6387 41.048 94.8307 42.312 95.2147 43.016C95.6307 43.688 96.1587 44.024 96.7987 44.024ZM130.762 33.848C131.722 33.848 132.522 33.448 133.162 32.648C133.834 31.848 134.378 30.872 134.794 29.72C135.242 28.568 135.562 27.368 135.754 26.12C135.946 24.872 136.042 23.784 136.042 22.856C136.042 21.992 135.898 21.272 135.61 20.696C135.322 20.088 134.698 19.784 133.738 19.784H131.578L128.554 33.848H130.762ZM127.882 36.92L125.722 47H115.354L121.834 16.52H132.922C134.746 16.52 136.41 16.616 137.914 16.808C139.418 17 140.714 17.384 141.802 17.96C142.89 18.536 143.738 19.368 144.346 20.456C144.954 21.512 145.258 22.936 145.258 24.728C145.258 26.392 144.986 27.976 144.442 29.48C143.93 30.952 143.082 32.248 141.898 33.368C140.746 34.456 139.242 35.32 137.386 35.96C135.53 36.6 133.274 36.92 130.618 36.92H127.882Z" fill="url(#paint0_linear)"/>
<defs>
<linearGradient id="paint0_linear" x1="83.3541" y1="0" x2="83.3541" y2="60.3689" gradientUnits="userSpaceOnUse">
<stop stop-color="#471156"/>
<stop offset="1" stop-color="#112879"/>
</linearGradient>
</defs>
</svg>
