<svg width="200" height="61" viewBox="0 0 200 61" fill="none" xmlns="http://www.w3.org/2000/svg">
<path fill-rule="evenodd" clip-rule="evenodd" d="M199.386 1.85693H15.0273L0.997559 57.8943H186.024L199.386 1.85693Z" fill="white"/>
<path d="M65.2296 47H54.5736L58.9896 26.264L47.6136 47H41.0856L38.9256 25.544L34.3176 47H29.9976L36.4776 16.52H48.7176L50.2056 33.704L59.4216 16.52H71.7576L65.2296 47ZM76.9776 16.52H97.1856L96.4176 20.168H86.6256L84.6096 29.432H92.8176L92.0496 33.032H83.8416L81.6336 43.304H91.4256L90.7056 47H70.4976L76.9776 16.52ZM94.6382 47L101.118 16.52H114.03C116.014 16.52 117.742 16.728 119.214 17.144C120.718 17.528 121.95 18.184 122.91 19.112C123.902 20.04 124.638 21.256 125.118 22.76C125.63 24.264 125.886 26.104 125.886 28.28C125.886 30.616 125.582 32.904 124.974 35.144C124.398 37.384 123.422 39.384 122.046 41.144C120.67 42.904 118.862 44.328 116.622 45.416C114.414 46.472 111.678 47 108.414 47H94.6382ZM107.79 43.64C108.846 43.64 109.774 43.208 110.574 42.344C111.406 41.448 112.11 40.328 112.686 38.984C113.294 37.608 113.79 36.104 114.174 34.472C114.59 32.808 114.91 31.208 115.134 29.672C115.39 28.136 115.566 26.76 115.662 25.544C115.79 24.328 115.854 23.464 115.854 22.952C115.854 21.96 115.646 21.192 115.23 20.648C114.846 20.072 114.158 19.784 113.166 19.784H110.862L105.726 43.64H107.79ZM136.787 47H126.419L132.899 16.52H143.315L136.787 47ZM168.668 47H157.436L156.764 39.368H147.884L144.476 47H139.82L153.98 16.52H165.356L168.668 47ZM149.468 35.864H156.428L155.324 22.808L149.468 35.864Z" fill="url(#paint0_linear)"/>
<defs>
<linearGradient id="paint0_linear" x1="100.498" y1="0" x2="100.498" y2="61" gradientUnits="userSpaceOnUse">
<stop stop-color="#471156"/>
<stop offset="1" stop-color="#112879"/>
</linearGradient>
</defs>
</svg>
