<svg width="167" height="61" viewBox="0 0 167 61" fill="none" xmlns="http://www.w3.org/2000/svg">
<path fill-rule="evenodd" clip-rule="evenodd" d="M166.293 6.87219H11.76L0 57.5974H155.093L166.293 6.87219Z" fill="white"/>
<path d="M19.8589 16.52H40.0669L39.2989 20.168H29.5069L27.4909 29.432H35.6989L34.9309 33.032H26.7229L24.5149 43.304H34.3069L33.5869 47H13.3789L19.8589 16.52ZM41.4555 16.52H52.3995L54.0315 37.16L64.0155 16.52H68.7675L54.5595 47H43.2315L41.4555 16.52ZM71.8902 16.52H92.0982L91.3302 20.168H81.5382L79.5222 29.432H87.7302L86.9622 33.032H78.7542L76.5462 43.304H86.3382L85.6182 47H65.4102L71.8902 16.52ZM115.135 47H103.903L98.5748 24.968L93.8708 47H89.5508L96.0308 16.52H107.503L112.543 38.84L117.295 16.52H121.711L115.135 47ZM149.673 20.168H141.945L136.233 47H125.865L131.577 20.168H123.945L124.809 16.52H150.489L149.673 20.168Z" fill="url(#paint0_linear)"/>
<defs>
<linearGradient id="paint0_linear" x1="80.3789" y1="0" x2="80.3789" y2="61" gradientUnits="userSpaceOnUse">
<stop stop-color="#471156"/>
<stop offset="1" stop-color="#112879"/>
</linearGradient>
</defs>
</svg>
