<svg width="297" height="50" viewBox="0 0 297 50" fill="none" xmlns="http://www.w3.org/2000/svg">
<path d="M108.687 19.5469L115.168 36.3516H112.766L111.277 32.4844H103.695L102.207 36.3516H99.8046L106.285 19.5469H108.687ZM104.609 30.082H110.351L107.492 22.6758L104.609 30.082ZM117.816 26.1797C117.816 25.8594 117.875 25.5586 117.992 25.2773C118.117 24.9961 118.281 24.7539 118.484 24.5508C118.695 24.3398 118.941 24.1758 119.223 24.0586C119.504 23.9336 119.801 23.8711 120.113 23.8711H126.547V19.0664H128.855V36.3516H126.547V34.2422C126.523 34.5312 126.445 34.8047 126.312 35.0625C126.18 35.3203 126.008 35.5469 125.797 35.7422C125.594 35.9297 125.359 36.0781 125.094 36.1875C124.828 36.2969 124.547 36.3516 124.25 36.3516H120.113C119.801 36.3516 119.504 36.293 119.223 36.1758C118.941 36.0508 118.695 35.8867 118.484 35.6836C118.281 35.4727 118.117 35.2266 117.992 34.9453C117.875 34.6641 117.816 34.3633 117.816 34.043V26.1797ZM120.113 34.043H126.547V26.1797H120.113V34.043ZM142.59 26.1797V36.3516H140.281V26.1797H134.996V36.3516H132.699V23.8711H134.996V26.0742C135.012 25.7695 135.082 25.4844 135.207 25.2188C135.332 24.9453 135.496 24.7109 135.699 24.5156C135.91 24.3125 136.152 24.1562 136.426 24.0469C136.699 23.9297 136.992 23.8711 137.305 23.8711H140.281C140.586 23.8711 140.875 23.9297 141.148 24.0469C141.422 24.1562 141.664 24.3125 141.875 24.5156C142.086 24.7109 142.254 24.9453 142.379 25.2188C142.512 25.4844 142.582 25.7695 142.59 26.0742C142.605 25.7695 142.672 25.4844 142.789 25.2188C142.914 24.9453 143.078 24.7109 143.281 24.5156C143.492 24.3125 143.734 24.1562 144.008 24.0469C144.281 23.9297 144.574 23.8711 144.887 23.8711H147.863C148.183 23.8711 148.484 23.9336 148.766 24.0586C149.047 24.1758 149.289 24.3398 149.492 24.5508C149.703 24.7539 149.867 24.9961 149.984 25.2773C150.109 25.5586 150.172 25.8594 150.172 26.1797V36.3516H147.863V26.1797H142.59ZM156.453 23.8711V36.3516H154.144V23.8711H156.453ZM154.027 19.0664H156.57V21.4688H154.027V19.0664ZM171.465 36.3516H169.156V26.1797H162.723V36.3516H160.426V23.8711H162.723V26.0742C162.738 25.7695 162.808 25.4844 162.933 25.2188C163.058 24.9453 163.223 24.7109 163.426 24.5156C163.637 24.3125 163.879 24.1562 164.152 24.0469C164.426 23.9297 164.719 23.8711 165.031 23.8711H169.156C169.476 23.8711 169.777 23.9336 170.058 24.0586C170.34 24.1758 170.582 24.3398 170.785 24.5508C170.996 24.7539 171.16 24.9961 171.277 25.2773C171.402 25.5586 171.465 25.8594 171.465 26.1797V36.3516ZM196.016 25.5469C196.016 27.8906 195.016 29.2266 193.016 29.5547L196.18 36.3516H193.519L190.402 29.6367H185.141V36.3516H182.738V19.5469H191.937C194.656 19.5469 196.016 20.9102 196.016 23.6367V25.5469ZM185.141 27.2344H191.808C192.449 27.2344 192.91 27.0938 193.191 26.8125C193.473 26.5312 193.613 26.0703 193.613 25.4297V23.7539C193.613 23.1133 193.473 22.6523 193.191 22.3711C192.91 22.0898 192.449 21.9492 191.808 21.9492H185.141V27.2344ZM210.359 31.2891H202.098V34.043H210.359V36.3516H202.098C201.785 36.3516 201.488 36.293 201.207 36.1758C200.926 36.0508 200.68 35.8867 200.469 35.6836C200.266 35.4727 200.101 35.2266 199.976 34.9453C199.859 34.6641 199.801 34.3633 199.801 34.043V26.1797C199.801 25.8594 199.859 25.5586 199.976 25.2773C200.101 24.9961 200.266 24.7539 200.469 24.5508C200.68 24.3398 200.926 24.1758 201.207 24.0586C201.488 23.9336 201.785 23.8711 202.098 23.8711H208.051C208.371 23.8711 208.672 23.9336 208.953 24.0586C209.234 24.1758 209.476 24.3398 209.68 24.5508C209.891 24.7539 210.055 24.9961 210.172 25.2773C210.297 25.5586 210.359 25.8594 210.359 26.1797V31.2891ZM202.098 26.1797V28.9805H208.051V26.1797H202.098ZM214.215 26.1797C214.215 25.8594 214.273 25.5586 214.391 25.2773C214.516 24.9961 214.68 24.7539 214.883 24.5508C215.094 24.3398 215.34 24.1758 215.621 24.0586C215.902 23.9336 216.199 23.8711 216.512 23.8711H220.648C220.953 23.8711 221.242 23.9297 221.516 24.0469C221.789 24.1562 222.027 24.3125 222.23 24.5156C222.441 24.7109 222.609 24.9453 222.734 25.2188C222.867 25.4844 222.937 25.7695 222.945 26.0742V23.8711H225.254V39.082C225.254 39.4023 225.191 39.7031 225.066 39.9844C224.949 40.2656 224.785 40.5078 224.574 40.7109C224.371 40.9219 224.129 41.0859 223.848 41.2031C223.566 41.3281 223.266 41.3906 222.945 41.3906H215.656V39.082H222.945V35.8711H216.512C216.199 35.8711 215.902 35.8125 215.621 35.6953C215.34 35.5703 215.094 35.4062 214.883 35.2031C214.68 34.9922 214.516 34.7461 214.391 34.4648C214.273 34.1836 214.215 33.8828 214.215 33.5625V26.1797ZM222.945 33.5625V26.1797H216.512V33.5625H222.945ZM231.523 23.8711V36.3516H229.215V23.8711H231.523ZM229.098 19.0664H231.641V21.4688H229.098V19.0664ZM243.031 34.043V31.1484H237.558C237.238 31.1484 236.937 31.0898 236.656 30.9727C236.375 30.8477 236.129 30.6836 235.918 30.4805C235.715 30.2695 235.551 30.0234 235.426 29.7422C235.308 29.4609 235.25 29.1602 235.25 28.8398V26.1797C235.25 25.8594 235.308 25.5586 235.426 25.2773C235.551 24.9961 235.715 24.7539 235.918 24.5508C236.129 24.3398 236.375 24.1758 236.656 24.0586C236.937 23.9336 237.238 23.8711 237.558 23.8711H244.859V26.1797H237.558V28.8398H243.031C243.351 28.8398 243.648 28.9023 243.922 29.0273C244.203 29.1445 244.449 29.3086 244.66 29.5195C244.871 29.7227 245.035 29.9648 245.152 30.2461C245.277 30.5273 245.34 30.8281 245.34 31.1484V34.043C245.34 34.3633 245.277 34.6641 245.152 34.9453C245.035 35.2266 244.871 35.4727 244.66 35.6836C244.449 35.8867 244.203 36.0508 243.922 36.1758C243.648 36.293 243.351 36.3516 243.031 36.3516H235.25V34.043H243.031ZM248.223 23.8711H251.269V20.0273H253.578V23.8711H257.68V26.1797H253.578V34.043H257.68V36.3516H253.578C253.266 36.3516 252.969 36.293 252.687 36.1758C252.406 36.0508 252.16 35.8867 251.949 35.6836C251.738 35.4727 251.57 35.2266 251.445 34.9453C251.328 34.6641 251.269 34.3633 251.269 34.043V26.1797H248.223V23.8711ZM272.094 31.2891H263.832V34.043H272.094V36.3516H263.832C263.519 36.3516 263.223 36.293 262.941 36.1758C262.66 36.0508 262.414 35.8867 262.203 35.6836C262 35.4727 261.836 35.2266 261.711 34.9453C261.594 34.6641 261.535 34.3633 261.535 34.043V26.1797C261.535 25.8594 261.594 25.5586 261.711 25.2773C261.836 24.9961 262 24.7539 262.203 24.5508C262.414 24.3398 262.66 24.1758 262.941 24.0586C263.223 23.9336 263.519 23.8711 263.832 23.8711H269.785C270.105 23.8711 270.406 23.9336 270.687 24.0586C270.969 24.1758 271.211 24.3398 271.414 24.5508C271.625 24.7539 271.789 24.9961 271.906 25.2773C272.031 25.5586 272.094 25.8594 272.094 26.1797V31.2891ZM263.832 26.1797V28.9805H269.785V26.1797H263.832ZM278.246 26.1797V36.3516H275.949V23.8711H278.246V26.0742C278.262 25.7695 278.332 25.4844 278.457 25.2188C278.582 24.9453 278.746 24.7109 278.949 24.5156C279.16 24.3125 279.402 24.1562 279.676 24.0469C279.949 23.9297 280.242 23.8711 280.555 23.8711H283.004C283.324 23.8711 283.621 23.9336 283.894 24.0586C284.176 24.1758 284.422 24.3398 284.633 24.5508C284.844 24.7539 285.008 24.9961 285.125 25.2773C285.25 25.5586 285.312 25.8594 285.312 26.1797V28.2891H283.004V26.1797H278.246Z" fill="#F3FEFF"/>
<path d="M25 0C11.2231 0 0 11.2231 0 25C0 38.7769 11.2231 50 25 50C38.7769 50 50 38.7769 50 25C50 11.2231 38.8441 0 25 0ZM25 13.0376C28.0242 13.0376 30.5108 15.5242 30.5108 18.5484C30.5108 21.5726 28.0242 24.0591 25 24.0591C21.9758 24.0591 19.4892 21.5726 19.4892 18.5484C19.4892 15.5242 21.9758 13.0376 25 13.0376ZM35.1479 36.9624H14.8522C14.4489 36.9624 14.0457 36.6263 14.1129 36.1559C14.5161 30.5108 19.2204 26.0753 25 26.0753C30.7796 26.0753 35.4839 30.5108 35.8871 36.1559C35.8871 36.6263 35.5511 36.9624 35.1479 36.9624Z" fill="white"/>
</svg>
