<svg width="297" height="51" viewBox="0 0 297 51" fill="none" xmlns="http://www.w3.org/2000/svg">
<path d="M92.0908 33.463V16.6583H101.29C104.009 16.6583 105.368 18.0216 105.368 20.7482V23.1388C105.368 25.8654 104.009 27.2286 101.29 27.2286H94.4931V33.463H92.0908ZM94.4931 24.8263H101.161C101.802 24.8263 102.263 24.6857 102.544 24.4044C102.825 24.1232 102.966 23.6622 102.966 23.0216V20.8654C102.966 20.2247 102.825 19.7638 102.544 19.4825C102.263 19.2013 101.802 19.0607 101.161 19.0607H94.4931V24.8263ZM111.134 16.6583V31.0607H119.77V33.463H108.731V16.6583H111.134ZM130.095 16.6583L136.575 33.463H134.173L132.685 29.5958H125.103L123.614 33.463H121.212L127.692 16.6583H130.095ZM126.017 27.1935H131.759L128.899 19.7872L126.017 27.1935ZM138.649 16.6583L143.536 24.5099L148.435 16.6583H151.224L144.743 26.795V33.463H142.341V26.795L135.86 16.6583H138.649ZM175.47 31.0607C175.47 31.3888 175.407 31.7013 175.282 31.9982C175.157 32.2872 174.985 32.5411 174.767 32.7599C174.548 32.9786 174.29 33.1505 173.993 33.2755C173.704 33.4005 173.395 33.463 173.067 33.463H163.47C163.142 33.463 162.829 33.4005 162.532 33.2755C162.243 33.1505 161.989 32.9786 161.77 32.7599C161.552 32.5411 161.38 32.2872 161.255 31.9982C161.13 31.7013 161.067 31.3888 161.067 31.0607V19.0607C161.067 18.7325 161.13 18.424 161.255 18.1349C161.38 17.838 161.552 17.5841 161.77 17.3732C161.989 17.1544 162.243 16.9825 162.532 16.8575C162.829 16.7247 163.142 16.6583 163.47 16.6583H173.067C173.395 16.6583 173.704 16.7247 173.993 16.8575C174.29 16.9825 174.548 17.1544 174.767 17.3732C174.985 17.5841 175.157 17.838 175.282 18.1349C175.407 18.424 175.47 18.7325 175.47 19.0607V31.0607ZM163.47 19.0607V31.0607H173.067V19.0607H163.47ZM182.196 33.463H179.794V16.6583H182.196L192.298 29.6896V16.6583H194.7V33.463H192.298L182.196 20.4318V33.463ZM207.79 16.6583L212.278 22.9513L216.79 16.6583H219.696L213.743 24.9904L219.825 33.463H216.919L212.278 27.006L207.673 33.463H204.767L210.849 24.9904L204.895 16.6583H207.79ZM233.653 24.6974C234.005 24.8068 234.325 24.963 234.614 25.1661C234.903 25.3693 235.149 25.631 235.353 25.9513C235.556 26.2638 235.712 26.6349 235.821 27.0646C235.931 27.4943 235.985 27.9865 235.985 28.5411V29.3849C235.985 32.1036 234.626 33.463 231.907 33.463H222.708V16.6583H231.427C234.145 16.6583 235.505 18.0216 235.505 20.7482V21.0529C235.505 21.9982 235.353 22.7716 235.048 23.3732C234.751 23.9669 234.286 24.4083 233.653 24.6974ZM225.063 26.1388V31.1075H231.837C232.47 31.1075 232.927 30.9591 233.208 30.6622C233.489 30.3654 233.63 29.9005 233.63 29.2677V27.9669C233.63 27.3263 233.489 26.8615 233.208 26.5724C232.927 26.2833 232.47 26.1388 231.837 26.1388H225.063ZM225.063 19.0138V23.795H231.52C232.099 23.7716 232.513 23.6154 232.763 23.3263C233.02 23.0294 233.149 22.5763 233.149 21.9669V20.8654C233.149 20.2247 233.009 19.756 232.728 19.4591C232.446 19.1622 231.989 19.0138 231.356 19.0138H225.063ZM253.985 31.0607C253.985 31.3888 253.923 31.7013 253.798 31.9982C253.673 32.2872 253.501 32.5411 253.282 32.7599C253.063 32.9786 252.806 33.1505 252.509 33.2755C252.22 33.4005 251.911 33.463 251.583 33.463H241.985C241.657 33.463 241.345 33.4005 241.048 33.2755C240.759 33.1505 240.505 32.9786 240.286 32.7599C240.067 32.5411 239.895 32.2872 239.77 31.9982C239.645 31.7013 239.583 31.3888 239.583 31.0607V19.0607C239.583 18.7325 239.645 18.424 239.77 18.1349C239.895 17.838 240.067 17.5841 240.286 17.3732C240.505 17.1544 240.759 16.9825 241.048 16.8575C241.345 16.7247 241.657 16.6583 241.985 16.6583H251.583C251.911 16.6583 252.22 16.7247 252.509 16.8575C252.806 16.9825 253.063 17.1544 253.282 17.3732C253.501 17.5841 253.673 17.838 253.798 18.1349C253.923 18.424 253.985 18.7325 253.985 19.0607V31.0607ZM241.985 19.0607V31.0607H251.583V19.0607H241.985ZM259.892 16.6583L264.38 22.9513L268.892 16.6583H271.798L265.845 24.9904L271.927 33.463H269.02L264.38 27.006L259.774 33.463H256.868L262.95 24.9904L256.997 16.6583H259.892Z" fill="#F3FEFF"/>
<path d="M8.12193 7.32222C8.12193 7.38409 8.06006 7.38409 8.12193 7.32222C3.48135 11.9009 0.635132 18.2121 0.635132 25.2039C0.635132 30.8964 2.55324 36.1557 5.7707 40.3631C5.83258 40.425 5.83258 40.425 5.89445 40.425C5.95633 40.425 5.95633 40.3631 5.89445 40.3013C3.97635 34.4232 13.7525 20.0683 18.7643 14.0665L18.8262 14.0047C18.8262 13.9428 18.8262 13.9428 18.7643 13.9428C10.3494 5.46599 8.06006 7.38409 8.12193 7.32222Z" fill="white"/>
<path d="M43.2666 7.32222C43.2666 7.38409 43.2666 7.38409 43.2666 7.32222C47.9072 11.9009 50.7534 18.2121 50.7534 25.2039C50.7534 30.8964 48.8353 36.1557 45.6178 40.3631C45.5559 40.425 45.5559 40.425 45.4941 40.425C45.4322 40.425 45.4322 40.3631 45.4941 40.3013C47.4122 34.4232 37.636 20.0683 32.6242 14.0665L32.5623 14.0047C32.5623 13.9428 32.5623 13.9428 32.6242 13.9428C41.0391 5.46599 43.3285 7.38409 43.2666 7.32222Z" fill="white"/>
<path d="M25.6943 0.144775C30.768 0.144775 34.9135 1.50601 38.7497 3.79536C38.8116 3.79536 38.8116 3.85724 38.8116 3.91911C38.8116 3.98099 38.7497 3.98099 38.6879 3.98099C33.8617 2.92912 26.4367 7.13658 25.7561 7.5697C25.7561 7.5697 25.7561 7.5697 25.6943 7.5697H25.6324C23.7762 6.51784 16.97 2.92912 12.7006 4.04286C12.6388 4.04286 12.5769 4.04286 12.5769 3.98099C12.5769 3.91911 12.5769 3.85724 12.6388 3.85724C16.4131 1.50601 20.6206 0.144775 25.6943 0.144775Z" fill="white"/>
<path d="M25.6943 20.254C25.6943 20.254 25.7561 20.254 25.7561 20.3159C33.2429 26.0083 46.1128 40.1157 42.1528 44.0757C37.7598 47.9119 32.0054 50.2631 25.6943 50.2631C19.3831 50.2631 13.6288 47.9119 9.1738 44.0757C5.27571 40.1157 18.0837 26.0083 25.5705 20.3159C25.6324 20.254 25.6324 20.254 25.6943 20.254Z" fill="white"/>
</svg>
