<svg width="871" height="254" viewBox="0 0 871 254" fill="none" xmlns="http://www.w3.org/2000/svg">
<g filter="url(#filter0_d)">
<path d="M45 45H147.541L136.886 73.2257H79.7633V104.196H123.46L114.527 128.278H79.7633V174.397H45V45Z" fill="url(#paint0_linear)"/>
<path d="M481.936 45.0001H584.477L573.822 73.2257H516.672V104.196H560.395L551.435 128.278H516.672V174.397H481.936V45.0001Z" fill="url(#paint1_linear)"/>
<path d="M332.281 45.0001H297.195V174.397H332.281V45.0001Z" fill="url(#paint2_linear)"/>
<path d="M772.769 45.0001H733.082L678.112 174.397H715.673L724.068 153.678H780.841L787.998 174.397H825.237L772.769 45.0001ZM730.068 132.072L751.674 77.3425L774.141 132.072H730.068Z" fill="url(#paint3_linear)"/>
</g>
<path d="M75.904 216.768C75.904 218.656 75.376 220.4 74.32 222C73.264 223.6 71.52 224.816 69.088 225.648L74.656 240H63.952L59.728 226.704H59.2L56.368 240H46L52.48 209.52H65.104C66.576 209.52 67.968 209.616 69.28 209.808C70.592 209.968 71.728 210.32 72.688 210.864C73.68 211.376 74.464 212.112 75.04 213.072C75.616 214 75.904 215.232 75.904 216.768ZM62.08 223.632C62.912 223.632 63.616 223.36 64.192 222.816C64.8 222.24 65.28 221.552 65.632 220.752C66.016 219.952 66.288 219.104 66.448 218.208C66.608 217.28 66.688 216.48 66.688 215.808C66.688 214.976 66.544 214.272 66.256 213.696C65.968 213.088 65.344 212.784 64.384 212.784H62.224L59.824 223.632H62.08ZM89.575 209.52H109.783L109.015 213.168H99.223L97.207 222.432H105.415L104.647 226.032H96.439L94.231 236.304H104.023L103.303 240H83.095L89.575 209.52ZM140.548 240H129.316L128.644 232.368H119.764L116.356 240H111.7L125.86 209.52H137.236L140.548 240ZM121.348 228.864H128.308L127.204 215.808L121.348 228.864ZM156.031 209.52H166.447L160.783 235.968H170.527L169.711 240H149.551L156.031 209.52ZM200.643 209.52H220.851L220.083 213.168H210.243L208.371 221.952H216.579L215.811 225.648H207.603L204.531 240H194.163L200.643 209.52ZM230.941 209.52H251.149L250.381 213.168H240.589L238.573 222.432H246.781L246.013 226.032H237.805L235.597 236.304H245.389L244.669 240H224.461L230.941 209.52ZM261.801 209.52H282.009L281.241 213.168H271.449L269.433 222.432H277.641L276.873 226.032H268.665L266.457 236.304H276.249L275.529 240H255.321L261.801 209.52ZM292.662 209.52H303.078L297.414 235.968H307.158L306.342 240H286.182L292.662 209.52ZM349.706 218.352C349.802 217.872 349.85 217.216 349.85 216.384C349.85 215.904 349.818 215.44 349.754 214.992C349.69 214.512 349.578 214.096 349.418 213.744C349.258 213.36 349.018 213.072 348.698 212.88C348.378 212.656 347.962 212.544 347.45 212.544C346.874 212.544 346.346 212.672 345.866 212.928C345.386 213.184 344.954 213.52 344.57 213.936C344.218 214.32 343.93 214.784 343.706 215.328C343.514 215.84 343.418 216.384 343.418 216.96C343.418 217.792 343.626 218.432 344.042 218.88C344.49 219.328 345.066 219.696 345.77 219.984C346.474 220.272 347.274 220.512 348.17 220.704C349.066 220.896 349.994 221.12 350.954 221.376C351.754 221.6 352.554 221.888 353.354 222.24C354.154 222.592 354.858 223.072 355.466 223.68C356.106 224.256 356.618 225.024 357.002 225.984C357.386 226.912 357.578 228.08 357.578 229.488C357.578 231.504 357.178 233.2 356.378 234.576C355.578 235.952 354.474 237.072 353.066 237.936C351.658 238.8 349.978 239.424 348.026 239.808C346.106 240.192 344.01 240.384 341.738 240.384C339.434 240.384 337.546 240.24 336.074 239.952C334.634 239.632 333.498 239.296 332.666 238.944C331.674 238.528 330.938 238.048 330.458 237.504L332.09 230.928H340.538C340.506 231.216 340.474 231.616 340.442 232.128C340.41 232.608 340.394 232.992 340.394 233.28C340.394 233.664 340.442 234.064 340.538 234.48C340.634 234.896 340.778 235.28 340.97 235.632C341.194 235.984 341.498 236.272 341.882 236.496C342.266 236.72 342.746 236.832 343.322 236.832C343.962 236.832 344.522 236.688 345.002 236.4C345.514 236.112 345.93 235.76 346.25 235.344C346.602 234.896 346.858 234.416 347.018 233.904C347.21 233.36 347.306 232.832 347.306 232.32C347.306 231.616 347.13 231.024 346.778 230.544C346.458 230.064 346.01 229.664 345.434 229.344C344.858 228.992 344.186 228.704 343.418 228.48C342.682 228.224 341.914 227.968 341.114 227.712C340.346 227.488 339.53 227.216 338.666 226.896C337.834 226.576 337.066 226.128 336.362 225.552C335.658 224.976 335.066 224.256 334.586 223.392C334.138 222.496 333.914 221.36 333.914 219.984C333.914 217.936 334.426 216.224 335.45 214.848C336.506 213.44 337.818 212.304 339.386 211.44C340.986 210.576 342.73 209.968 344.618 209.616C346.506 209.232 348.298 209.04 349.994 209.04C352.234 209.04 354.154 209.312 355.754 209.856C357.386 210.368 358.618 210.976 359.45 211.68L357.674 218.352H349.706ZM381.094 226.848C382.054 226.848 382.854 226.448 383.494 225.648C384.166 224.848 384.71 223.872 385.126 222.72C385.574 221.568 385.894 220.368 386.086 219.12C386.278 217.872 386.374 216.784 386.374 215.856C386.374 214.992 386.23 214.272 385.942 213.696C385.654 213.088 385.03 212.784 384.07 212.784H381.91L378.886 226.848H381.094ZM378.214 229.92L376.054 240H365.686L372.166 209.52H383.254C385.078 209.52 386.742 209.616 388.246 209.808C389.75 210 391.046 210.384 392.134 210.96C393.222 211.536 394.07 212.368 394.678 213.456C395.286 214.512 395.59 215.936 395.59 217.728C395.59 219.392 395.318 220.976 394.774 222.48C394.262 223.952 393.414 225.248 392.23 226.368C391.078 227.456 389.574 228.32 387.718 228.96C385.862 229.6 383.606 229.92 380.95 229.92H378.214ZM420.915 209.04C423.667 209.04 425.891 209.392 427.587 210.096C429.315 210.8 430.675 211.888 431.667 213.36C432.307 214.352 432.803 215.472 433.155 216.72C433.507 217.968 433.683 219.408 433.683 221.04C433.683 222.448 433.555 223.856 433.299 225.264C433.043 226.672 432.675 228.032 432.195 229.344C431.747 230.624 431.187 231.84 430.515 232.992C429.875 234.112 429.155 235.104 428.355 235.968C426.851 237.6 425.107 238.752 423.123 239.424C421.171 240.064 418.755 240.384 415.875 240.384C413.091 240.384 410.851 240.096 409.155 239.52C407.459 238.944 406.115 238.016 405.123 236.736C404.419 235.84 403.859 234.704 403.443 233.328C403.059 231.952 402.867 230.224 402.867 228.144C402.867 224.592 403.491 221.424 404.739 218.64C406.019 215.824 407.827 213.6 410.163 211.968C411.571 210.976 413.139 210.24 414.867 209.76C416.595 209.28 418.611 209.04 420.915 209.04ZM415.491 237.024C416.227 237.024 416.915 236.704 417.555 236.064C418.227 235.392 418.835 234.512 419.379 233.424C419.955 232.304 420.467 231.04 420.915 229.632C421.395 228.224 421.795 226.768 422.115 225.264C422.435 223.76 422.675 222.272 422.835 220.8C423.027 219.296 423.123 217.936 423.123 216.72C423.123 215.056 422.947 213.92 422.595 213.312C422.275 212.672 421.795 212.352 421.155 212.352C420.419 212.352 419.715 212.672 419.043 213.312C418.371 213.952 417.731 214.816 417.123 215.904C416.547 216.96 416.019 218.192 415.539 219.6C415.091 220.976 414.691 222.4 414.339 223.872C414.019 225.344 413.763 226.8 413.571 228.24C413.411 229.68 413.331 231.008 413.331 232.224C413.331 234.048 413.523 235.312 413.907 236.016C414.323 236.688 414.851 237.024 415.491 237.024ZM470.67 216.768C470.67 218.656 470.142 220.4 469.086 222C468.03 223.6 466.286 224.816 463.854 225.648L469.422 240H458.718L454.494 226.704H453.966L451.134 240H440.766L447.246 209.52H459.87C461.342 209.52 462.734 209.616 464.046 209.808C465.358 209.968 466.494 210.32 467.454 210.864C468.446 211.376 469.23 212.112 469.806 213.072C470.382 214 470.67 215.232 470.67 216.768ZM456.846 223.632C457.678 223.632 458.382 223.36 458.958 222.816C459.566 222.24 460.046 221.552 460.398 220.752C460.782 219.952 461.054 219.104 461.214 218.208C461.374 217.28 461.454 216.48 461.454 215.808C461.454 214.976 461.31 214.272 461.022 213.696C460.734 213.088 460.11 212.784 459.15 212.784H456.99L454.59 223.632H456.846ZM505.546 213.168H497.818L492.106 240H481.738L487.45 213.168H479.818L480.682 209.52H506.362L505.546 213.168ZM541.435 226.08H553.867L551.083 240H545.419L544.507 236.928H544.315C543.483 237.888 542.491 238.704 541.339 239.376C540.219 240.048 538.747 240.384 536.923 240.384C535.515 240.384 534.155 240.16 532.843 239.712C531.563 239.232 530.411 238.496 529.387 237.504C528.395 236.48 527.595 235.152 526.987 233.52C526.379 231.888 526.075 229.92 526.075 227.616C526.075 225.12 526.459 222.752 527.227 220.512C527.995 218.272 529.147 216.304 530.683 214.608C532.219 212.88 534.139 211.52 536.443 210.528C538.747 209.536 541.435 209.04 544.507 209.04C546.875 209.04 548.939 209.312 550.699 209.856C552.459 210.4 554.123 211.008 555.691 211.68L553.867 220.992H545.755C545.787 220.64 545.835 220.224 545.899 219.744C545.963 219.264 546.011 218.768 546.043 218.256C546.075 217.712 546.107 217.184 546.139 216.672C546.171 216.16 546.187 215.712 546.187 215.328C546.187 215.072 546.171 214.784 546.139 214.464C546.107 214.112 546.027 213.776 545.899 213.456C545.771 213.136 545.579 212.88 545.323 212.688C545.067 212.464 544.699 212.352 544.219 212.352C543.387 212.352 542.619 212.704 541.915 213.408C541.243 214.08 540.635 214.992 540.091 216.144C539.547 217.264 539.067 218.544 538.651 219.984C538.267 221.424 537.931 222.896 537.643 224.4C537.387 225.872 537.179 227.328 537.019 228.768C536.891 230.176 536.827 231.408 536.827 232.464C536.827 232.784 536.843 233.184 536.875 233.664C536.907 234.144 537.003 234.624 537.163 235.104C537.355 235.552 537.611 235.952 537.931 236.304C538.283 236.624 538.779 236.784 539.419 236.784C540.475 236.784 541.499 236.208 542.491 235.056C543.483 233.904 544.235 231.984 544.747 229.296H540.715L541.435 226.08ZM588.504 240H577.272L576.6 232.368H567.72L564.312 240H559.656L573.816 209.52H585.192L588.504 240ZM569.304 228.864H576.264L575.16 215.808L569.304 228.864ZM632.739 240H622.083L626.499 219.264L615.123 240H608.595L606.435 218.544L601.827 240H597.507L603.987 209.52H616.227L617.715 226.704L626.931 209.52H639.267L632.739 240ZM651.207 209.52H671.415L670.647 213.168H660.855L658.839 222.432H667.047L666.279 226.032H658.071L655.863 236.304H665.655L664.935 240H644.727L651.207 209.52ZM697.975 209.52H718.183L717.415 213.168H707.623L705.607 222.432H713.815L713.047 226.032H704.839L702.631 236.304H712.423L711.703 240H691.495L697.975 209.52ZM726.292 209.52H737.236L738.868 230.16L748.852 209.52H753.604L739.396 240H728.068L726.292 209.52ZM763.446 209.52H783.654L782.886 213.168H773.094L771.078 222.432H779.286L778.518 226.032H770.31L768.102 236.304H777.894L777.174 240H756.966L763.446 209.52ZM817.731 216.768C817.731 218.656 817.203 220.4 816.147 222C815.091 223.6 813.347 224.816 810.915 225.648L816.483 240H805.779L801.555 226.704H801.027L798.195 240H787.827L794.307 209.52H806.931C808.403 209.52 809.795 209.616 811.107 209.808C812.419 209.968 813.555 210.32 814.515 210.864C815.507 211.376 816.291 212.112 816.867 213.072C817.443 214 817.731 215.232 817.731 216.768ZM803.907 223.632C804.739 223.632 805.443 223.36 806.019 222.816C806.627 222.24 807.107 221.552 807.459 220.752C807.843 219.952 808.115 219.104 808.275 218.208C808.435 217.28 808.515 216.48 808.515 215.808C808.515 214.976 808.371 214.272 808.083 213.696C807.795 213.088 807.171 212.784 806.211 212.784H804.051L801.651 223.632H803.907Z" fill="url(#paint4_radial)"/>
<defs>
<filter id="filter0_d" x="0" y="0" width="870.237" height="219.397" filterUnits="userSpaceOnUse" color-interpolation-filters="sRGB">
<feFlood flood-opacity="0" result="BackgroundImageFix"/>
<feColorMatrix in="SourceAlpha" type="matrix" values="0 0 0 0 0 0 0 0 0 0 0 0 0 0 0 0 0 0 127 0"/>
<feOffset/>
<feGaussianBlur stdDeviation="22.5"/>
<feColorMatrix type="matrix" values="0 0 0 0 1 0 0 0 0 1 0 0 0 0 1 0 0 0 1 0"/>
<feBlend mode="normal" in2="BackgroundImageFix" result="effect1_dropShadow"/>
<feBlend mode="normal" in="SourceGraphic" in2="effect1_dropShadow" result="shape"/>
</filter>
<linearGradient id="paint0_linear" x1="96.2705" y1="45" x2="96.2705" y2="174.397" gradientUnits="userSpaceOnUse">
<stop stop-color="#7031A3"/>
<stop offset="1" stop-color="#E02C89"/>
</linearGradient>
<linearGradient id="paint1_linear" x1="533.206" y1="45.0001" x2="533.206" y2="174.397" gradientUnits="userSpaceOnUse">
<stop stop-color="#7031A3"/>
<stop offset="1" stop-color="#E02C89"/>
</linearGradient>
<linearGradient id="paint2_linear" x1="314.738" y1="45.0001" x2="314.738" y2="174.397" gradientUnits="userSpaceOnUse">
<stop stop-color="#7031A3"/>
<stop offset="1" stop-color="#E02C89"/>
</linearGradient>
<linearGradient id="paint3_linear" x1="751.674" y1="45.0001" x2="751.674" y2="174.397" gradientUnits="userSpaceOnUse">
<stop stop-color="#7031A3"/>
<stop offset="1" stop-color="#E02C89"/>
</linearGradient>
<radialGradient id="paint4_radial" cx="0" cy="0" r="1" gradientUnits="userSpaceOnUse" gradientTransform="translate(460.155 278.75) scale(521.076 72.5378)">
<stop stop-color="white"/>
<stop offset="0.0182317" stop-color="#F6D4F1"/>
<stop offset="0.0422341" stop-color="#ECA2E1"/>
<stop offset="0.0632864" stop-color="#E57ED5"/>
<stop offset="0.0803351" stop-color="#E168CE"/>
<stop offset="0.0912511" stop-color="#DF60CB"/>
<stop offset="0.3185" stop-color="#A541AE"/>
<stop offset="0.544" stop-color="#732694"/>
<stop offset="0.7398" stop-color="#4E1282"/>
<stop offset="0.8985" stop-color="#380677"/>
<stop offset="1" stop-color="#300273"/>
</radialGradient>
</defs>
</svg>
