<svg width="297" height="57" viewBox="0 0 297 57" fill="none" xmlns="http://www.w3.org/2000/svg">
<path d="M69.4648 54.6856C69.4041 54.6856 69.4041 54.625 69.3434 54.5643C69.3434 54.5036 69.3434 54.4429 69.3434 54.3216V53.9575C69.3434 53.7755 69.2827 53.6541 69.222 53.5327C69.1614 53.4721 69.1007 53.4114 69.04 53.4114C69.1614 53.3507 69.222 53.29 69.2827 53.1687C69.3434 53.0473 69.4041 52.8653 69.4041 52.6832C69.4041 52.3192 69.222 52.0765 68.9186 51.9551C68.7366 51.8944 68.5545 51.8337 68.3118 51.8337H66.9767H66.916V51.8944V54.8677V54.9284H66.9767H67.4015H67.4622V54.8677V53.6541H68.3118C68.4331 53.6541 68.5545 53.6541 68.6152 53.7148C68.7366 53.7755 68.7972 53.8968 68.7972 54.0182V54.5036C68.7972 54.625 68.7972 54.6856 68.7972 54.7463C68.7972 54.807 68.7972 54.807 68.8579 54.8677V54.9284H68.9186H69.4041H69.4648V54.8677V54.807V54.6856ZM68.7366 53.0473C68.6152 53.108 68.4938 53.1687 68.3118 53.1687H67.4622V52.3192H68.3724C68.4938 52.3192 68.6152 52.3192 68.6759 52.3799C68.7972 52.4405 68.8579 52.5619 68.8579 52.7439C68.8579 52.8653 68.7972 52.9866 68.7366 53.0473Z" fill="white"/>
<path d="M70.0716 51.4697C69.5255 50.9236 68.8579 50.6809 68.1297 50.6809C66.6125 50.6809 65.3381 51.9552 65.3381 53.4721C65.3381 54.2003 65.6416 54.9284 66.1271 55.4139C66.6732 55.96 67.3408 56.2027 68.069 56.2027C68.7972 56.2027 69.5255 55.8993 70.0109 55.4139C70.5571 54.8678 70.7999 54.2003 70.7999 53.4721C70.8605 52.6833 70.5571 51.9552 70.0716 51.4697ZM68.069 55.7173C67.4621 55.7173 66.8553 55.4745 66.4305 55.0498C66.0057 54.625 65.7629 54.0182 65.7629 53.4115C65.7629 52.8047 66.0057 52.1979 66.4305 51.7731C66.8553 51.3484 67.4621 51.1057 68.069 51.1057C68.6759 51.1057 69.2827 51.3484 69.7075 51.7731C70.1323 52.1979 70.3751 52.8047 70.3751 53.4115C70.3751 54.6857 69.3434 55.7173 68.069 55.7173Z" fill="white"/>
<path d="M11.8741 45.5234C13.634 46.0695 16.7896 45.9481 18.9743 45.1593L24.8001 43.0355V49.1641C24.436 49.2248 24.0112 49.2855 23.6471 49.3461C17.8213 50.317 11.5707 49.8922 5.44141 47.8898C-0.263047 46.2515 -1.23402 42.9142 1.37547 40.9724C3.80289 39.2128 7.86884 37.8171 7.86884 37.8171L24.8001 31.8706V38.7273L12.6023 43.0962C10.4783 43.885 10.1142 44.9773 11.8741 45.5234Z" fill="white"/>
<path d="M71.8315 43.1567C70.4357 44.9163 66.916 46.2513 66.916 46.2513L41.1246 55.4745V48.6178L60.1192 41.8217C62.3039 41.0329 62.6073 39.9407 60.8474 39.3946C59.0875 38.8485 55.9319 38.9698 53.7472 39.7586L41.0639 44.2489V37.1494L41.7921 36.9067C41.7921 36.9067 45.4332 35.6325 50.5915 35.0257C55.7498 34.4796 62.0611 35.0864 66.9767 36.9674C72.6204 38.7878 73.288 41.3363 71.8315 43.1567Z" fill="white"/>
<path d="M43.6127 31.5063V14.0308C43.6127 11.9677 43.2486 10.0867 41.3066 9.54058C39.8502 9.05514 38.9399 10.4508 38.9399 12.4532V56.2633L27.1062 52.5012V0.317383C32.1431 1.22757 39.4254 3.47269 43.37 4.74694C53.3831 8.20564 56.7815 12.5138 56.7815 22.1011C56.7815 31.5063 50.9557 35.0864 43.6127 31.5063Z" fill="white"/>
<path d="M113.134 39.4631V22.6584H122.333C125.052 22.6584 126.411 24.0217 126.411 26.7483V29.1389C126.411 31.8655 125.052 33.2288 122.333 33.2288H115.536V39.4631H113.134ZM115.536 30.8264H122.204C122.845 30.8264 123.306 30.6858 123.587 30.4045C123.868 30.1233 124.009 29.6624 124.009 29.0217V26.8655C124.009 26.2249 123.868 25.7639 123.587 25.4827C123.306 25.2014 122.845 25.0608 122.204 25.0608H115.536V30.8264ZM132.177 22.6584V37.0608H140.813V39.4631H129.774V22.6584H132.177ZM151.138 22.6584L157.618 39.4631H155.216L153.728 35.5959H146.145L144.657 39.4631H142.255L148.735 22.6584H151.138ZM147.06 33.1936H152.802L149.942 25.7874L147.06 33.1936ZM159.692 22.6584L164.579 30.51L169.478 22.6584H172.267L165.786 32.7952V39.4631H163.384V32.7952L156.903 22.6584H159.692ZM196.513 37.0608C196.513 37.3889 196.45 37.7014 196.325 37.9983C196.2 38.2874 196.028 38.5413 195.81 38.76C195.591 38.9788 195.333 39.1506 195.036 39.2756C194.747 39.4006 194.438 39.4631 194.11 39.4631H184.513C184.185 39.4631 183.872 39.4006 183.575 39.2756C183.286 39.1506 183.032 38.9788 182.813 38.76C182.595 38.5413 182.423 38.2874 182.298 37.9983C182.173 37.7014 182.11 37.3889 182.11 37.0608V25.0608C182.11 24.7327 182.173 24.4241 182.298 24.135C182.423 23.8381 182.595 23.5842 182.813 23.3733C183.032 23.1545 183.286 22.9827 183.575 22.8577C183.872 22.7249 184.185 22.6584 184.513 22.6584H194.11C194.438 22.6584 194.747 22.7249 195.036 22.8577C195.333 22.9827 195.591 23.1545 195.81 23.3733C196.028 23.5842 196.2 23.8381 196.325 24.135C196.45 24.4241 196.513 24.7327 196.513 25.0608V37.0608ZM184.513 25.0608V37.0608H194.11V25.0608H184.513ZM203.239 39.4631H200.837V22.6584H203.239L213.341 35.6897V22.6584H215.743V39.4631H213.341L203.239 26.4319V39.4631ZM227.251 39.4631V22.6584H236.45C239.169 22.6584 240.528 24.0217 240.528 26.7483V29.1389C240.528 31.8655 239.169 33.2288 236.45 33.2288H229.653V39.4631H227.251ZM229.653 30.8264H236.321C236.962 30.8264 237.423 30.6858 237.704 30.4045C237.985 30.1233 238.126 29.6624 238.126 29.0217V26.8655C238.126 26.2249 237.985 25.7639 237.704 25.4827C237.423 25.2014 236.962 25.0608 236.321 25.0608H229.653V30.8264ZM246.294 32.2678C245.966 32.2678 245.653 32.2053 245.356 32.0803C245.067 31.9475 244.813 31.7756 244.595 31.5647C244.376 31.3459 244.204 31.092 244.079 30.803C243.954 30.5061 243.892 30.1936 243.892 29.8655V25.0608C243.892 24.7327 243.954 24.4241 244.079 24.135C244.204 23.8381 244.376 23.5842 244.595 23.3733C244.813 23.1545 245.067 22.9827 245.356 22.8577C245.653 22.7249 245.966 22.6584 246.294 22.6584H254.45C254.778 22.6584 255.087 22.7249 255.376 22.8577C255.673 22.9827 255.931 23.1545 256.149 23.3733C256.368 23.5842 256.54 23.8381 256.665 24.135C256.79 24.4241 256.853 24.7327 256.853 25.0608V27.2288H254.45V25.0608H246.294V29.8655H254.45C254.778 29.8655 255.087 29.928 255.376 30.053C255.673 30.178 255.931 30.3499 256.149 30.5686C256.368 30.7874 256.54 31.0452 256.665 31.342C256.79 31.6311 256.853 31.9397 256.853 32.2678V37.0608C256.853 37.3889 256.79 37.7014 256.665 37.9983C256.54 38.2874 256.368 38.5413 256.149 38.76C255.931 38.9788 255.673 39.1506 255.376 39.2756C255.087 39.4006 254.778 39.4631 254.45 39.4631H246.06C245.731 39.4631 245.419 39.4006 245.122 39.2756C244.833 39.1506 244.579 38.9788 244.36 38.76C244.142 38.5413 243.97 38.2874 243.845 37.9983C243.72 37.7014 243.657 37.3889 243.657 37.0608V34.9045H246.06V37.0608H254.45V32.2678H246.294ZM259.513 33.6741L267.798 22.6584H270.622V33.6741H272.884V35.9827H270.622V39.4631H268.22V35.9827H259.513V33.6741ZM268.22 33.6741V25.5647L262.126 33.6741H268.22Z" fill="#F3FEFF"/>
</svg>
