<svg width="367" height="71" viewBox="0 0 367 71" fill="none" xmlns="http://www.w3.org/2000/svg">
<path d="M120.677 43.3179C121.794 43.3179 122.654 43.0172 123.255 42.4156C123.857 41.814 124.157 40.9547 124.157 39.8375V34.7984C124.157 34.2515 124.079 33.7632 123.923 33.3336C123.767 32.9039 123.536 32.5406 123.232 32.2437C122.935 31.939 122.572 31.7086 122.142 31.5523C121.712 31.3961 121.224 31.3179 120.677 31.3179H114.536V43.3179H120.677ZM112.134 45.7203V28.9156H120.677C121.575 28.9156 122.384 29.0562 123.103 29.3375C123.829 29.6109 124.447 30.0054 124.954 30.5211C125.47 31.0289 125.865 31.6461 126.138 32.3726C126.419 33.0992 126.56 33.9078 126.56 34.7984V39.8375C126.56 40.7281 126.419 41.5367 126.138 42.2632C125.865 42.9898 125.47 43.6109 124.954 44.1265C124.447 44.6343 123.829 45.0289 123.103 45.3101C122.384 45.5836 121.575 45.7203 120.677 45.7203H112.134ZM132.818 28.9156V45.7203H130.415V28.9156H132.818ZM150.419 34.9156C150.419 37.2593 149.419 38.5953 147.419 38.9234L150.583 45.7203H147.923L144.806 39.0054H139.544V45.7203H137.142V28.9156H146.341C149.06 28.9156 150.419 30.2789 150.419 33.0054V34.9156ZM139.544 36.6031H146.212C146.853 36.6031 147.314 36.4625 147.595 36.1812C147.876 35.9 148.017 35.439 148.017 34.7984V33.1226C148.017 32.482 147.876 32.0211 147.595 31.7398C147.314 31.4586 146.853 31.3179 146.212 31.3179H139.544V36.6031ZM154.439 28.9156H166.685V31.3179H156.841V36.1226H165.243V38.525H156.841V43.3179H166.685V45.7203H154.439V28.9156ZM170.282 31.3179C170.282 30.9898 170.345 30.6812 170.47 30.3922C170.595 30.0953 170.767 29.8414 170.986 29.6304C171.204 29.4117 171.458 29.2398 171.747 29.1148C172.044 28.982 172.357 28.9156 172.685 28.9156H181.802C182.13 28.9156 182.439 28.982 182.728 29.1148C183.025 29.2398 183.282 29.4117 183.501 29.6304C183.72 29.8414 183.892 30.0953 184.017 30.3922C184.142 30.6812 184.204 30.9898 184.204 31.3179V33.4859H181.802V31.3179H172.685V43.3179H181.802V41.1617H184.204V43.3179C184.204 43.6461 184.142 43.9586 184.017 44.2554C183.892 44.5445 183.72 44.7984 183.501 45.0172C183.282 45.2359 183.025 45.4078 182.728 45.5328C182.439 45.6578 182.13 45.7203 181.802 45.7203H172.685C172.357 45.7203 172.044 45.6578 171.747 45.5328C171.458 45.4078 171.204 45.2359 170.986 45.0172C170.767 44.7984 170.595 44.5445 170.47 44.2554C170.345 43.9586 170.282 43.6461 170.282 43.3179V31.3179ZM186.607 28.9156H200.048V31.3179H194.529V45.7203H192.126V31.3179H186.607V28.9156ZM218.669 43.3179C219.786 43.3179 220.646 43.0172 221.247 42.4156C221.849 41.814 222.15 40.9547 222.15 39.8375V34.7984C222.15 34.2515 222.072 33.7632 221.915 33.3336C221.759 32.9039 221.529 32.5406 221.224 32.2437C220.927 31.939 220.564 31.7086 220.134 31.5523C219.704 31.3961 219.216 31.3179 218.669 31.3179H212.529V43.3179H218.669ZM210.126 45.7203V28.9156H218.669C219.568 28.9156 220.376 29.0562 221.095 29.3375C221.822 29.6109 222.439 30.0054 222.947 30.5211C223.462 31.0289 223.857 31.6461 224.13 32.3726C224.411 33.0992 224.552 33.9078 224.552 34.7984V39.8375C224.552 40.7281 224.411 41.5367 224.13 42.2632C223.857 42.9898 223.462 43.6109 222.947 44.1265C222.439 44.6343 221.822 45.0289 221.095 45.3101C220.376 45.5836 219.568 45.7203 218.669 45.7203H210.126ZM242.81 43.3179C242.81 43.6461 242.747 43.9586 242.622 44.2554C242.497 44.5445 242.325 44.7984 242.107 45.0172C241.888 45.2359 241.63 45.4078 241.333 45.5328C241.044 45.6578 240.736 45.7203 240.407 45.7203H230.81C230.482 45.7203 230.169 45.6578 229.872 45.5328C229.583 45.4078 229.329 45.2359 229.111 45.0172C228.892 44.7984 228.72 44.5445 228.595 44.2554C228.47 43.9586 228.407 43.6461 228.407 43.3179V31.3179C228.407 30.9898 228.47 30.6812 228.595 30.3922C228.72 30.0953 228.892 29.8414 229.111 29.6304C229.329 29.4117 229.583 29.2398 229.872 29.1148C230.169 28.982 230.482 28.9156 230.81 28.9156H240.407C240.736 28.9156 241.044 28.982 241.333 29.1148C241.63 29.2398 241.888 29.4117 242.107 29.6304C242.325 29.8414 242.497 30.0953 242.622 30.3922C242.747 30.6812 242.81 30.9898 242.81 31.3179V43.3179ZM230.81 31.3179V43.3179H240.407V31.3179H230.81ZM250.497 45.7203L245.693 28.9156H248.095L251.822 42.2867L255.536 28.9156H257.939L261.654 42.2867L265.38 28.9156H267.782L262.978 45.7203H260.341L256.743 33.1226L253.134 45.7203H250.497ZM273.068 45.7203H270.665V28.9156H273.068L283.169 41.9468V28.9156H285.572V45.7203H283.169L273.068 32.689V45.7203ZM292.286 28.9156V43.3179H300.923V45.7203H289.884V28.9156H292.286ZM318.208 43.3179C318.208 43.6461 318.146 43.9586 318.021 44.2554C317.896 44.5445 317.724 44.7984 317.505 45.0172C317.286 45.2359 317.029 45.4078 316.732 45.5328C316.443 45.6578 316.134 45.7203 315.806 45.7203H306.208C305.88 45.7203 305.568 45.6578 305.271 45.5328C304.982 45.4078 304.728 45.2359 304.509 45.0172C304.29 44.7984 304.118 44.5445 303.993 44.2554C303.868 43.9586 303.806 43.6461 303.806 43.3179V31.3179C303.806 30.9898 303.868 30.6812 303.993 30.3922C304.118 30.0953 304.29 29.8414 304.509 29.6304C304.728 29.4117 304.982 29.2398 305.271 29.1148C305.568 28.982 305.88 28.9156 306.208 28.9156H315.806C316.134 28.9156 316.443 28.982 316.732 29.1148C317.029 29.2398 317.286 29.4117 317.505 29.6304C317.724 29.8414 317.896 30.0953 318.021 30.3922C318.146 30.6812 318.208 30.9898 318.208 31.3179V43.3179ZM306.208 31.3179V43.3179H315.806V31.3179H306.208ZM329.974 28.9156L336.454 45.7203H334.052L332.564 41.8531H324.982L323.493 45.7203H321.091L327.572 28.9156H329.974ZM325.896 39.4507H331.638L328.779 32.0445L325.896 39.4507ZM347.88 43.3179C348.997 43.3179 349.857 43.0172 350.458 42.4156C351.06 41.814 351.361 40.9547 351.361 39.8375V34.7984C351.361 34.2515 351.282 33.7632 351.126 33.3336C350.97 32.9039 350.74 32.5406 350.435 32.2437C350.138 31.939 349.775 31.7086 349.345 31.5523C348.915 31.3961 348.427 31.3179 347.88 31.3179H341.74V43.3179H347.88ZM339.337 45.7203V28.9156H347.88C348.779 28.9156 349.587 29.0562 350.306 29.3375C351.032 29.6109 351.65 30.0054 352.157 30.5211C352.673 31.0289 353.068 31.6461 353.341 32.3726C353.622 33.0992 353.763 33.9078 353.763 34.7984V39.8375C353.763 40.7281 353.622 41.5367 353.341 42.2632C353.068 42.9898 352.673 43.6109 352.157 44.1265C351.65 44.6343 351.032 45.0289 350.306 45.3101C349.587 45.5836 348.779 45.7203 347.88 45.7203H339.337Z" fill="#F3FEFF"/>
<path d="M32.4427 5.65358C44.9384 3.6985 57.4692 1.86898 70 0.0932617C70 11.2856 70 22.4601 70 33.6525C57.4868 33.7063 44.9735 33.9036 32.4427 33.9395C32.4251 24.5048 32.4251 15.0702 32.4427 5.65358Z" fill="white"/>
<path d="M0.693329 10.156C10.109 8.68524 19.5599 7.41174 29.0109 6.19206C29.0109 15.4652 29.0109 24.7384 29.0285 34.0116C19.5775 34.0116 10.1442 34.1551 0.693329 34.1192V10.156Z" fill="white"/>
<path d="M0.693329 37.06C10.1266 37.0241 19.5599 37.1856 29.0109 37.1676C29.0109 46.4767 29.0285 55.7678 29.0109 65.0768C19.5775 63.6419 10.1442 62.4043 0.693329 61.0949V37.06Z" fill="white"/>
<path d="M32.3899 37.4366C44.9383 37.4366 57.4691 37.4366 69.9999 37.4366C70.0175 48.5931 69.9999 59.7496 69.9999 70.9061C57.5043 69.0049 44.9735 67.2292 32.4427 65.4893C32.4251 56.1444 32.4075 46.7815 32.3899 37.4366Z" fill="white"/>
</svg>
