<svg width="381" height="75" viewBox="0 0 381 75" fill="none" xmlns="http://www.w3.org/2000/svg">
<path d="M130.329 38.525C130.001 38.525 129.689 38.4625 129.392 38.3375C129.103 38.2047 128.849 38.0328 128.63 37.8218C128.411 37.6031 128.24 37.3492 128.115 37.0601C127.99 36.7632 127.927 36.4507 127.927 36.1226V31.3179C127.927 30.9898 127.99 30.6812 128.115 30.3922C128.24 30.0953 128.411 29.8414 128.63 29.6304C128.849 29.4117 129.103 29.2398 129.392 29.1148C129.689 28.982 130.001 28.9156 130.329 28.9156H138.486C138.814 28.9156 139.122 28.982 139.411 29.1148C139.708 29.2398 139.966 29.4117 140.185 29.6304C140.404 29.8414 140.575 30.0953 140.7 30.3922C140.825 30.6812 140.888 30.9898 140.888 31.3179V33.4859H138.486V31.3179H130.329V36.1226H138.486C138.814 36.1226 139.122 36.1851 139.411 36.3101C139.708 36.4351 139.966 36.607 140.185 36.8257C140.404 37.0445 140.575 37.3023 140.7 37.5992C140.825 37.8882 140.888 38.1968 140.888 38.525V43.3179C140.888 43.6461 140.825 43.9586 140.7 44.2554C140.575 44.5445 140.404 44.7984 140.185 45.0172C139.966 45.2359 139.708 45.4078 139.411 45.5328C139.122 45.6578 138.814 45.7203 138.486 45.7203H130.095C129.767 45.7203 129.454 45.6578 129.157 45.5328C128.868 45.4078 128.615 45.2359 128.396 45.0172C128.177 44.7984 128.005 44.5445 127.88 44.2554C127.755 43.9586 127.693 43.6461 127.693 43.3179V41.1617H130.095V43.3179H138.486V38.525H130.329ZM143.782 28.9156H157.224V31.3179H151.704V45.7203H149.302V31.3179H143.782V28.9156ZM160.107 28.9156H172.353V31.3179H162.509V36.1226H170.911V38.525H162.509V43.3179H172.353V45.7203H160.107V28.9156ZM183.392 28.9156L189.872 45.7203H187.47L185.982 41.8531H178.4L176.911 45.7203H174.509L180.99 28.9156H183.392ZM179.314 39.4507H185.056L182.197 32.0445L179.314 39.4507ZM201.427 45.7203L195.157 33.4039V45.7203H192.755V28.9156H195.38L201.779 41.5718L208.189 28.9156H210.802V45.7203H208.411V33.4039L202.142 45.7203H201.427ZM230.876 43.3179C231.993 43.3179 232.853 43.0172 233.454 42.4156C234.056 41.814 234.357 40.9547 234.357 39.8375V34.7984C234.357 34.2515 234.279 33.7632 234.122 33.3336C233.966 32.9039 233.736 32.5406 233.431 32.2437C233.134 31.939 232.771 31.7086 232.341 31.5523C231.911 31.3961 231.423 31.3179 230.876 31.3179H224.736V43.3179H230.876ZM222.333 45.7203V28.9156H230.876C231.775 28.9156 232.583 29.0562 233.302 29.3375C234.029 29.6109 234.646 30.0054 235.154 30.5211C235.669 31.0289 236.064 31.6461 236.337 32.3726C236.618 33.0992 236.759 33.9078 236.759 34.7984V39.8375C236.759 40.7281 236.618 41.5367 236.337 42.2632C236.064 42.9898 235.669 43.6109 235.154 44.1265C234.646 44.6343 234.029 45.0289 233.302 45.3101C232.583 45.5836 231.775 45.7203 230.876 45.7203H222.333ZM255.017 43.3179C255.017 43.6461 254.954 43.9586 254.829 44.2554C254.704 44.5445 254.532 44.7984 254.314 45.0172C254.095 45.2359 253.837 45.4078 253.54 45.5328C253.251 45.6578 252.943 45.7203 252.615 45.7203H243.017C242.689 45.7203 242.376 45.6578 242.079 45.5328C241.79 45.4078 241.536 45.2359 241.318 45.0172C241.099 44.7984 240.927 44.5445 240.802 44.2554C240.677 43.9586 240.615 43.6461 240.615 43.3179V31.3179C240.615 30.9898 240.677 30.6812 240.802 30.3922C240.927 30.0953 241.099 29.8414 241.318 29.6304C241.536 29.4117 241.79 29.2398 242.079 29.1148C242.376 28.982 242.689 28.9156 243.017 28.9156H252.615C252.943 28.9156 253.251 28.982 253.54 29.1148C253.837 29.2398 254.095 29.4117 254.314 29.6304C254.532 29.8414 254.704 30.0953 254.829 30.3922C254.954 30.6812 255.017 30.9898 255.017 31.3179V43.3179ZM243.017 31.3179V43.3179H252.615V31.3179H243.017ZM262.704 45.7203L257.9 28.9156H260.302L264.029 42.2867L267.743 28.9156H270.146L273.861 42.2867L277.587 28.9156H279.99L275.185 45.7203H272.548L268.95 33.1226L265.341 45.7203H262.704ZM285.275 45.7203H282.872V28.9156H285.275L295.376 41.9468V28.9156H297.779V45.7203H295.376L285.275 32.689V45.7203ZM304.493 28.9156V43.3179H313.13V45.7203H302.091V28.9156H304.493ZM330.415 43.3179C330.415 43.6461 330.353 43.9586 330.228 44.2554C330.103 44.5445 329.931 44.7984 329.712 45.0172C329.493 45.2359 329.236 45.4078 328.939 45.5328C328.65 45.6578 328.341 45.7203 328.013 45.7203H318.415C318.087 45.7203 317.775 45.6578 317.478 45.5328C317.189 45.4078 316.935 45.2359 316.716 45.0172C316.497 44.7984 316.325 44.5445 316.2 44.2554C316.075 43.9586 316.013 43.6461 316.013 43.3179V31.3179C316.013 30.9898 316.075 30.6812 316.2 30.3922C316.325 30.0953 316.497 29.8414 316.716 29.6304C316.935 29.4117 317.189 29.2398 317.478 29.1148C317.775 28.982 318.087 28.9156 318.415 28.9156H328.013C328.341 28.9156 328.65 28.982 328.939 29.1148C329.236 29.2398 329.493 29.4117 329.712 29.6304C329.931 29.8414 330.103 30.0953 330.228 30.3922C330.353 30.6812 330.415 30.9898 330.415 31.3179V43.3179ZM318.415 31.3179V43.3179H328.013V31.3179H318.415ZM342.181 28.9156L348.661 45.7203H346.259L344.771 41.8531H337.189L335.7 45.7203H333.298L339.779 28.9156H342.181ZM338.103 39.4507H343.845L340.986 32.0445L338.103 39.4507ZM360.087 43.3179C361.204 43.3179 362.064 43.0172 362.665 42.4156C363.267 41.814 363.568 40.9547 363.568 39.8375V34.7984C363.568 34.2515 363.49 33.7632 363.333 33.3336C363.177 32.9039 362.947 32.5406 362.642 32.2437C362.345 31.939 361.982 31.7086 361.552 31.5523C361.122 31.3961 360.634 31.3179 360.087 31.3179H353.947V43.3179H360.087ZM351.544 45.7203V28.9156H360.087C360.986 28.9156 361.794 29.0562 362.513 29.3375C363.24 29.6109 363.857 30.0054 364.365 30.5211C364.88 31.0289 365.275 31.6461 365.548 32.3726C365.829 33.0992 365.97 33.9078 365.97 34.7984V39.8375C365.97 40.7281 365.829 41.5367 365.548 42.2632C365.275 42.9898 364.88 43.6109 364.365 44.1265C363.857 44.6343 363.24 45.0289 362.513 45.3101C361.794 45.5836 360.986 45.7203 360.087 45.7203H351.544Z" fill="#F3FEFF"/>
<path d="M36.9423 0C17.4937 0 1.56543 15.1203 0.0649414 34.3381L19.8887 42.6196C21.5623 41.4654 23.6111 40.7729 25.7752 40.7729C25.9772 40.7729 26.1792 40.7729 26.3523 40.8017L35.1821 27.9033V27.7013C35.1821 19.9392 41.4438 13.6198 49.1482 13.6198C56.8526 13.6198 63.1143 19.9392 63.1143 27.7013C63.1143 35.4635 56.8526 41.7828 49.1482 41.7828C49.0328 41.7828 48.9462 41.7828 48.8308 41.7828L36.2498 50.8435C36.2498 51.0166 36.2498 51.1897 36.2498 51.334C36.2498 57.1628 31.5463 61.8951 25.7752 61.8951C20.6966 61.8951 16.4549 58.2305 15.5027 53.4116L1.33458 47.5251C5.72063 63.1936 20.0041 74.6781 36.9423 74.6781C57.372 74.6781 73.9351 57.9708 73.9351 37.3391C73.9351 16.7074 57.372 0 36.9423 0ZM23.2648 56.6434L18.7345 54.7389C19.5424 56.4414 20.9275 57.8553 22.7742 58.6344C26.7852 60.3081 31.3732 58.4036 33.0468 54.3638C33.8548 52.4016 33.8548 50.2663 33.0468 48.3042C32.2389 46.342 30.7384 44.8126 28.8051 44.0047C26.8717 43.1967 24.823 43.2256 23.0051 43.9181L27.7085 45.8803C30.6518 47.1211 32.0657 50.526 30.8249 53.527C29.5842 56.4991 26.2081 57.8842 23.2648 56.6434ZM58.4397 27.7013C58.4397 22.5362 54.2556 18.3233 49.1482 18.3233C44.0119 18.3233 39.8567 22.5362 39.8567 27.7013C39.8567 32.8665 44.0408 37.0794 49.1482 37.0794C54.2845 37.1082 58.4397 32.8953 58.4397 27.7013ZM42.1652 27.7013C42.1652 23.8058 45.2816 20.6606 49.1482 20.6606C53.0149 20.6606 56.1312 23.8058 56.1312 27.7013C56.1312 31.5968 53.0149 34.7421 49.1482 34.7421C45.3104 34.7421 42.1652 31.5968 42.1652 27.7013Z" fill="white"/>
</svg>
