<svg width="138" height="31" viewBox="0 0 138 31" fill="none" xmlns="http://www.w3.org/2000/svg">
<path d="M15.184 7.764C15.256 7.404 15.292 6.912 15.292 6.288C15.292 5.928 15.268 5.58 15.22 5.244C15.172 4.884 15.088 4.572 14.968 4.308C14.848 4.02 14.668 3.804 14.428 3.66C14.188 3.492 13.876 3.408 13.492 3.408C13.06 3.408 12.664 3.504 12.304 3.696C11.944 3.888 11.62 4.14 11.332 4.452C11.068 4.74 10.852 5.088 10.684 5.496C10.54 5.88 10.468 6.288 10.468 6.72C10.468 7.344 10.624 7.824 10.936 8.16C11.272 8.496 11.704 8.772 12.232 8.988C12.76 9.204 13.36 9.384 14.032 9.528C14.704 9.672 15.4 9.84 16.12 10.032C16.72 10.2 17.32 10.416 17.92 10.68C18.52 10.944 19.048 11.304 19.504 11.76C19.984 12.192 20.368 12.768 20.656 13.488C20.944 14.184 21.088 15.06 21.088 16.116C21.088 17.628 20.788 18.9 20.188 19.932C19.588 20.964 18.76 21.804 17.704 22.452C16.648 23.1 15.388 23.568 13.924 23.856C12.484 24.144 10.912 24.288 9.208 24.288C7.48 24.288 6.064 24.18 4.96 23.964C3.88 23.724 3.028 23.472 2.404 23.208C1.66 22.896 1.108 22.536 0.748 22.128L1.972 17.196H8.308C8.284 17.412 8.26 17.712 8.236 18.096C8.212 18.456 8.2 18.744 8.2 18.96C8.2 19.248 8.236 19.548 8.308 19.86C8.38 20.172 8.488 20.46 8.632 20.724C8.8 20.988 9.028 21.204 9.316 21.372C9.604 21.54 9.964 21.624 10.396 21.624C10.876 21.624 11.296 21.516 11.656 21.3C12.04 21.084 12.352 20.82 12.592 20.508C12.856 20.172 13.048 19.812 13.168 19.428C13.312 19.02 13.384 18.624 13.384 18.24C13.384 17.712 13.252 17.268 12.988 16.908C12.748 16.548 12.412 16.248 11.98 16.008C11.548 15.744 11.044 15.528 10.468 15.36C9.916 15.168 9.34 14.976 8.74 14.784C8.164 14.616 7.552 14.412 6.904 14.172C6.28 13.932 5.704 13.596 5.176 13.164C4.648 12.732 4.204 12.192 3.844 11.544C3.508 10.872 3.34 10.02 3.34 8.988C3.34 7.452 3.724 6.168 4.492 5.136C5.284 4.08 6.268 3.228 7.444 2.58C8.644 1.932 9.952 1.476 11.368 1.212C12.784 0.923999 14.128 0.779999 15.4 0.779999C17.08 0.779999 18.52 0.983999 19.72 1.392C20.944 1.776 21.868 2.232 22.492 2.76L21.16 7.764H15.184ZM35.5569 8.52H42.9009L39.5889 24H33.7569L33.1089 21.696H32.8929C32.2689 22.44 31.4169 23.064 30.3369 23.568C29.2809 24.048 28.2129 24.288 27.1329 24.288C25.6929 24.288 24.5649 23.928 23.7489 23.208C22.9329 22.464 22.5249 21.504 22.5249 20.328C22.5249 19.728 22.6209 18.984 22.8129 18.096C23.0289 17.184 23.2209 16.332 23.3889 15.54L24.9009 8.52H32.2089L30.4089 16.944C30.3609 17.136 30.3129 17.364 30.2649 17.628C30.2169 17.892 30.1689 18.156 30.1209 18.42C30.0729 18.66 30.0249 18.9 29.9769 19.14C29.9529 19.356 29.9409 19.536 29.9409 19.68C29.9409 20.04 30.0129 20.352 30.1569 20.616C30.3249 20.856 30.6129 20.976 31.0209 20.976C31.4529 20.976 31.8609 20.832 32.2449 20.544C32.6289 20.256 32.9289 19.98 33.1449 19.716L35.5569 8.52ZM48.8755 30.048H41.5315L46.0675 8.52H51.9355L52.5835 10.824H52.7995C53.6635 9.912 54.6235 9.264 55.6795 8.88C56.7595 8.472 57.8155 8.268 58.8475 8.268C59.6875 8.268 60.3835 8.4 60.9355 8.664C61.5115 8.904 61.9675 9.24 62.3035 9.672C62.6395 10.104 62.8795 10.62 63.0235 11.22C63.1675 11.82 63.2395 12.456 63.2395 13.128C63.2395 13.464 63.2155 13.968 63.1675 14.64C63.1195 15.312 63.0115 16.068 62.8435 16.908C62.6755 17.724 62.4355 18.576 62.1235 19.464C61.8115 20.328 61.3915 21.12 60.8635 21.84C60.3595 22.56 59.7115 23.148 58.9195 23.604C58.1515 24.06 57.2275 24.288 56.1475 24.288C55.5475 24.288 54.9595 24.216 54.3835 24.072C53.8315 23.928 53.3275 23.736 52.8715 23.496C52.4155 23.256 52.0075 22.98 51.6475 22.668C51.3115 22.332 51.0595 21.996 50.8915 21.66H50.6755L48.8755 30.048ZM52.6915 20.796C53.2675 20.796 53.7475 20.496 54.1315 19.896C54.5155 19.272 54.8275 18.552 55.0675 17.736C55.3075 16.896 55.4755 16.068 55.5715 15.252C55.6915 14.412 55.7515 13.788 55.7515 13.38C55.7515 12.9 55.6675 12.504 55.4995 12.192C55.3555 11.88 55.0795 11.724 54.6715 11.724C54.2155 11.724 53.7835 11.892 53.3755 12.228C52.9675 12.54 52.6675 12.816 52.4755 13.056L51.0715 19.644C51.2635 19.908 51.4915 20.172 51.7555 20.436C52.0195 20.676 52.3315 20.796 52.6915 20.796ZM69.8989 30.048H62.5549L67.0909 8.52H72.9589L73.6069 10.824H73.8229C74.6869 9.912 75.6469 9.264 76.7029 8.88C77.7829 8.472 78.8389 8.268 79.8709 8.268C80.7109 8.268 81.4069 8.4 81.9589 8.664C82.5349 8.904 82.9909 9.24 83.3269 9.672C83.6629 10.104 83.9029 10.62 84.0469 11.22C84.1909 11.82 84.2629 12.456 84.2629 13.128C84.2629 13.464 84.2389 13.968 84.1909 14.64C84.1429 15.312 84.0349 16.068 83.8669 16.908C83.6989 17.724 83.4589 18.576 83.1469 19.464C82.8349 20.328 82.4149 21.12 81.8869 21.84C81.3829 22.56 80.7349 23.148 79.9429 23.604C79.1749 24.06 78.2509 24.288 77.1709 24.288C76.5709 24.288 75.9829 24.216 75.4069 24.072C74.8549 23.928 74.3509 23.736 73.8949 23.496C73.4389 23.256 73.0309 22.98 72.6709 22.668C72.3349 22.332 72.0829 21.996 71.9149 21.66H71.6989L69.8989 30.048ZM73.7149 20.796C74.2909 20.796 74.7709 20.496 75.1549 19.896C75.5389 19.272 75.8509 18.552 76.0909 17.736C76.3309 16.896 76.4989 16.068 76.5949 15.252C76.7149 14.412 76.7749 13.788 76.7749 13.38C76.7749 12.9 76.6909 12.504 76.5229 12.192C76.3789 11.88 76.1029 11.724 75.6949 11.724C75.2389 11.724 74.8069 11.892 74.3989 12.228C73.9909 12.54 73.6909 12.816 73.4989 13.056L72.0949 19.644C72.2869 19.908 72.5149 20.172 72.7789 20.436C73.0429 20.676 73.3549 20.796 73.7149 20.796ZM96.5744 8.124C99.4304 8.124 101.506 8.628 102.802 9.636C104.17 10.692 104.854 12.444 104.854 14.892C104.854 16.404 104.602 17.772 104.098 18.996C103.594 20.196 102.886 21.192 101.974 21.984C100.15 23.52 97.5104 24.288 94.0544 24.288C91.1024 24.288 88.9904 23.724 87.7184 22.596C86.3504 21.42 85.6664 19.656 85.6664 17.304C85.6664 15.744 85.9784 14.328 86.6024 13.056C87.2504 11.784 88.1744 10.728 89.3744 9.888C91.1264 8.712 93.5264 8.124 96.5744 8.124ZM94.1264 21.84C94.7264 21.84 95.2424 21.504 95.6744 20.832C96.1304 20.16 96.4904 19.344 96.7544 18.384C97.0184 17.4 97.2104 16.392 97.3304 15.36C97.4744 14.304 97.5464 13.392 97.5464 12.624C97.5464 11.952 97.4744 11.448 97.3304 11.112C97.2104 10.752 96.9344 10.572 96.5024 10.572C95.8544 10.572 95.2904 10.92 94.8104 11.616C94.3544 12.312 93.9824 13.14 93.6944 14.1C93.4064 15.06 93.1904 16.044 93.0464 17.052C92.9264 18.06 92.8664 18.876 92.8664 19.5C92.8664 21.06 93.2864 21.84 94.1264 21.84ZM108.857 8.52H114.725L115.265 11.22H115.517C116.069 10.356 116.777 9.624 117.641 9.024C118.505 8.424 119.645 8.124 121.061 8.124C121.157 8.124 121.301 8.136 121.493 8.16C121.709 8.16 121.937 8.196 122.177 8.268C122.441 8.316 122.705 8.4 122.969 8.52C123.257 8.616 123.533 8.76 123.797 8.952L122.213 16.368H118.289C118.241 14.88 118.109 13.848 117.893 13.272C117.677 12.672 117.329 12.372 116.849 12.372C116.609 12.372 116.345 12.432 116.057 12.552C115.793 12.648 115.517 12.876 115.229 13.236L112.925 24H105.581L108.857 8.52ZM125 8.52C125.888 8.328 126.668 8.112 127.34 7.872C128.012 7.632 128.624 7.332 129.176 6.972C129.752 6.612 130.292 6.168 130.796 5.64C131.324 5.112 131.888 4.464 132.488 3.696H136.196L135.152 8.52H137.96L137.492 10.932H134.648L133.172 17.952C133.052 18.504 132.956 18.996 132.884 19.428C132.812 19.86 132.776 20.196 132.776 20.436C132.776 20.916 132.944 21.216 133.28 21.336C133.64 21.456 134.3 21.516 135.26 21.516L134.72 24C134.552 24.048 134.288 24.084 133.928 24.108C133.592 24.132 133.208 24.156 132.776 24.18C132.368 24.228 131.936 24.252 131.48 24.252C131.048 24.276 130.664 24.288 130.328 24.288C129.728 24.288 129.14 24.24 128.564 24.144C127.988 24.072 127.472 23.916 127.016 23.676C126.56 23.412 126.188 23.04 125.9 22.56C125.636 22.08 125.504 21.432 125.504 20.616C125.504 20.328 125.516 19.968 125.54 19.536C125.588 19.104 125.672 18.624 125.792 18.096L127.304 10.932H124.496L125 8.52Z" fill="#00F0FF"/>
</svg>
