<svg width="190" height="26" viewBox="0 0 190 26" fill="none" xmlns="http://www.w3.org/2000/svg">
<path d="M19.98 25H12.204L14.364 14.812H9.936L7.776 25H0L4.86 2.14H12.672L10.548 12.076H14.94L17.064 2.14H24.912L19.98 25ZM31.6136 17.764C31.5176 18.292 31.4456 18.796 31.3976 19.276C31.3736 19.756 31.3616 20.188 31.3616 20.572C31.3616 20.788 31.3736 21.028 31.3976 21.292C31.4216 21.556 31.4696 21.808 31.5416 22.048C31.6376 22.264 31.7576 22.456 31.9016 22.624C32.0696 22.768 32.2976 22.84 32.5856 22.84C32.8016 22.84 33.0416 22.768 33.3056 22.624C33.5936 22.48 33.8696 22.276 34.1336 22.012C34.4216 21.748 34.6856 21.424 34.9256 21.04C35.1896 20.656 35.3936 20.224 35.5376 19.744H41.4416L40.5056 23.596C40.0256 23.908 39.4736 24.172 38.8496 24.388C38.2256 24.604 37.5656 24.784 36.8696 24.928C36.1736 25.048 35.4656 25.132 34.7456 25.18C34.0256 25.252 33.3416 25.288 32.6936 25.288C31.4936 25.288 30.3776 25.18 29.3456 24.964C28.3136 24.748 27.4136 24.376 26.6456 23.848C25.8776 23.32 25.2656 22.624 24.8096 21.76C24.3776 20.872 24.1616 19.78 24.1616 18.484C24.1616 17.308 24.3416 16.156 24.7016 15.028C25.0856 13.9 25.7096 12.904 26.5736 12.04C27.4616 11.152 28.6376 10.444 30.1016 9.916C31.5896 9.388 33.4376 9.124 35.6456 9.124C38.0456 9.124 39.8456 9.496 41.0456 10.24C42.2696 10.984 42.8816 12.148 42.8816 13.732C42.8816 14.38 42.7856 15.088 42.5936 15.856C42.4016 16.6 42.1136 17.236 41.7296 17.764H31.6136ZM36.4016 13.48C36.4016 12.736 36.2816 12.232 36.0416 11.968C35.8016 11.704 35.5136 11.572 35.1776 11.572C34.7936 11.572 34.4336 11.704 34.0976 11.968C33.7856 12.208 33.4976 12.544 33.2336 12.976C32.9696 13.384 32.7296 13.864 32.5136 14.416C32.2976 14.944 32.1176 15.508 31.9736 16.108H36.0776C36.1256 15.82 36.1736 15.52 36.2216 15.208C36.2696 14.944 36.3056 14.656 36.3296 14.344C36.3776 14.032 36.4016 13.744 36.4016 13.48ZM46.0451 10.852C47.2691 10.252 48.5171 9.82 49.7891 9.556C51.0851 9.268 52.5251 9.124 54.1091 9.124C55.6451 9.124 56.9171 9.244 57.9251 9.484C58.9331 9.724 59.7371 10.072 60.3371 10.528C60.9371 10.984 61.3571 11.524 61.5971 12.148C61.8371 12.772 61.9571 13.48 61.9571 14.272C61.9571 14.728 61.9211 15.22 61.8491 15.748C61.8011 16.276 61.7411 16.72 61.6691 17.08L59.9771 25H54.1811L53.5331 22.696H53.3171C52.5491 23.536 51.6491 24.184 50.6171 24.64C49.6091 25.072 48.6011 25.288 47.5931 25.288C47.0171 25.288 46.4531 25.204 45.9011 25.036C45.3491 24.868 44.8571 24.616 44.4251 24.28C43.9931 23.92 43.6451 23.476 43.3811 22.948C43.1171 22.396 42.9851 21.736 42.9851 20.968C42.9851 19.72 43.3211 18.736 43.9931 18.016C44.6891 17.272 45.5891 16.72 46.6931 16.36C47.8211 15.976 49.0811 15.736 50.4731 15.64C51.8891 15.544 53.3051 15.496 54.7211 15.496C54.7691 15.256 54.8291 14.92 54.9011 14.488C54.9731 14.032 55.0091 13.636 55.0091 13.3C55.0091 12.868 54.8891 12.472 54.6491 12.112C54.4331 11.728 53.9651 11.536 53.2451 11.536C52.4051 11.536 51.7811 11.788 51.3731 12.292C50.9891 12.772 50.7371 13.36 50.6171 14.056H45.3611L46.0451 10.852ZM54.3251 17.188H53.6771C52.9811 17.188 52.3811 17.284 51.8771 17.476C51.3971 17.644 51.0011 17.872 50.6891 18.16C50.4011 18.448 50.1851 18.772 50.0411 19.132C49.8971 19.492 49.8251 19.852 49.8251 20.212C49.8251 20.788 49.9691 21.22 50.2571 21.508C50.5691 21.796 50.9291 21.94 51.3371 21.94C51.8411 21.94 52.3331 21.76 52.8131 21.4C53.3171 21.04 53.6291 20.56 53.7491 19.96L54.3251 17.188ZM78.2924 0.807998H85.6724L80.5244 25H74.6924L74.0444 22.696H73.7924C73.6484 22.912 73.4204 23.176 73.1084 23.488C72.8204 23.776 72.4484 24.064 71.9924 24.352C71.5364 24.616 70.9964 24.832 70.3724 25C69.7484 25.192 69.0284 25.288 68.2124 25.288C67.3724 25.288 66.6524 25.168 66.0524 24.928C65.4764 24.664 64.9964 24.316 64.6124 23.884C64.2524 23.452 63.9884 22.936 63.8204 22.336C63.6524 21.712 63.5684 21.04 63.5684 20.32C63.5684 20.008 63.5924 19.516 63.6404 18.844C63.6884 18.148 63.7964 17.392 63.9644 16.576C64.1564 15.736 64.4204 14.884 64.7564 14.02C65.1164 13.132 65.5844 12.328 66.1604 11.608C66.7604 10.888 67.4924 10.3 68.3564 9.844C69.2204 9.364 70.2644 9.124 71.4884 9.124C71.8724 9.124 72.2804 9.16 72.7124 9.232C73.1444 9.304 73.5524 9.436 73.9364 9.628C74.3444 9.82 74.7044 10.096 75.0164 10.456C75.3284 10.816 75.5564 11.284 75.7004 11.86H75.9524L78.2924 0.807998ZM73.9004 12.652C73.3244 12.652 72.8444 12.976 72.4604 13.624C72.0764 14.248 71.7644 14.98 71.5244 15.82C71.2844 16.66 71.1044 17.5 70.9844 18.34C70.8884 19.18 70.8404 19.804 70.8404 20.212C70.8404 20.692 70.9124 21.1 71.0564 21.436C71.2004 21.748 71.4764 21.904 71.8844 21.904C72.1244 21.904 72.3524 21.856 72.5684 21.76C72.8084 21.64 73.0244 21.508 73.2164 21.364C73.4324 21.196 73.6124 21.028 73.7564 20.86C73.9004 20.692 74.0204 20.548 74.1164 20.428L75.5204 13.876C75.3524 13.612 75.1244 13.348 74.8364 13.084C74.5724 12.796 74.2604 12.652 73.9004 12.652ZM105.78 1.78C107.844 1.78 109.512 2.044 110.784 2.572C112.08 3.1 113.1 3.916 113.844 5.02C114.324 5.764 114.696 6.604 114.96 7.54C115.224 8.476 115.356 9.556 115.356 10.78C115.356 11.836 115.26 12.892 115.068 13.948C114.876 15.004 114.6 16.024 114.24 17.008C113.904 17.968 113.484 18.88 112.98 19.744C112.5 20.584 111.96 21.328 111.36 21.976C110.232 23.2 108.924 24.064 107.436 24.568C105.972 25.048 104.16 25.288 102 25.288C99.9124 25.288 98.2324 25.072 96.9604 24.64C95.6884 24.208 94.6804 23.512 93.9364 22.552C93.4084 21.88 92.9884 21.028 92.6764 19.996C92.3884 18.964 92.2444 17.668 92.2444 16.108C92.2444 13.444 92.7124 11.068 93.6484 8.98C94.6084 6.868 95.9644 5.2 97.7164 3.976C98.7724 3.232 99.9484 2.68 101.244 2.32C102.54 1.96 104.052 1.78 105.78 1.78ZM101.712 22.768C102.264 22.768 102.78 22.528 103.26 22.048C103.764 21.544 104.22 20.884 104.628 20.068C105.06 19.228 105.444 18.28 105.78 17.224C106.14 16.168 106.44 15.076 106.68 13.948C106.92 12.82 107.1 11.704 107.22 10.6C107.364 9.472 107.436 8.452 107.436 7.54C107.436 6.292 107.304 5.44 107.04 4.984C106.8 4.504 106.44 4.264 105.96 4.264C105.408 4.264 104.88 4.504 104.376 4.984C103.872 5.464 103.392 6.112 102.936 6.928C102.504 7.72 102.108 8.644 101.748 9.7C101.412 10.732 101.112 11.8 100.848 12.904C100.608 14.008 100.416 15.1 100.272 16.18C100.152 17.26 100.092 18.256 100.092 19.168C100.092 20.536 100.236 21.484 100.524 22.012C100.836 22.516 101.232 22.768 101.712 22.768ZM117.285 9.52H120.057L120.201 8.908C120.513 7.468 120.957 6.256 121.533 5.272C122.133 4.264 122.853 3.448 123.693 2.824C124.533 2.2 125.493 1.756 126.573 1.492C127.677 1.204 128.889 1.06 130.209 1.06C131.289 1.06 132.345 1.156 133.377 1.348C134.433 1.516 135.393 1.732 136.257 1.996C137.241 1.372 138.321 0.915999 139.497 0.627998C140.673 0.339999 141.933 0.196 143.277 0.196C144.453 0.196 145.569 0.304 146.625 0.52C147.681 0.736 148.833 1.084 150.081 1.564L148.929 5.128C148.161 4.792 147.393 4.528 146.625 4.336C145.881 4.12 145.077 4.012 144.213 4.012C143.733 4.012 143.265 4.048 142.809 4.12C142.377 4.192 141.969 4.336 141.585 4.552C141.201 4.744 140.865 5.032 140.577 5.416C140.289 5.776 140.073 6.256 139.929 6.856L139.353 9.52H151.233L147.921 25H140.577L143.349 11.932H138.849L136.041 25H128.697L131.469 11.932H126.897L124.125 25H116.817L119.553 11.932H116.781L117.285 9.52ZM127.401 9.52H131.973L132.297 8.044C132.585 6.748 133.029 5.62 133.629 4.66C133.197 4.54 132.753 4.456 132.297 4.408C131.865 4.36 131.445 4.336 131.037 4.336C130.149 4.336 129.465 4.528 128.985 4.912C128.505 5.272 128.145 6.016 127.905 7.144L127.401 9.52ZM167.472 24.136C166.464 24.544 165.396 24.832 164.268 25C163.164 25.192 161.904 25.288 160.488 25.288C159.24 25.288 158.088 25.168 157.032 24.928C156 24.664 155.1 24.256 154.332 23.704C153.564 23.152 152.964 22.444 152.532 21.58C152.1 20.692 151.884 19.624 151.884 18.376C151.884 17.08 152.1 15.88 152.532 14.776C152.988 13.648 153.66 12.664 154.548 11.824C155.46 10.984 156.612 10.324 158.004 9.844C159.396 9.364 161.052 9.124 162.972 9.124C164.532 9.124 165.888 9.256 167.04 9.52C168.192 9.76 169.14 10.324 169.884 11.212L168.876 15.82H163.98C164.004 15.412 164.028 15.052 164.052 14.74C164.076 14.428 164.088 14.08 164.088 13.696C164.088 12.928 164.004 12.388 163.836 12.076C163.668 11.74 163.392 11.572 163.008 11.572C162.336 11.572 161.748 11.908 161.244 12.58C160.74 13.228 160.32 14.02 159.984 14.956C159.672 15.868 159.432 16.84 159.264 17.872C159.12 18.88 159.048 19.744 159.048 20.464C159.048 20.728 159.06 21.004 159.084 21.292C159.108 21.556 159.156 21.808 159.228 22.048C159.324 22.288 159.444 22.48 159.588 22.624C159.732 22.768 159.936 22.84 160.2 22.84C160.44 22.84 160.716 22.768 161.028 22.624C161.34 22.48 161.64 22.264 161.928 21.976C162.216 21.664 162.492 21.268 162.756 20.788C163.02 20.308 163.224 19.732 163.368 19.06H168.516L167.472 24.136ZM178.11 17.764C178.014 18.292 177.942 18.796 177.894 19.276C177.87 19.756 177.858 20.188 177.858 20.572C177.858 20.788 177.87 21.028 177.894 21.292C177.918 21.556 177.966 21.808 178.038 22.048C178.134 22.264 178.254 22.456 178.398 22.624C178.566 22.768 178.794 22.84 179.082 22.84C179.298 22.84 179.538 22.768 179.802 22.624C180.09 22.48 180.366 22.276 180.63 22.012C180.918 21.748 181.182 21.424 181.422 21.04C181.686 20.656 181.89 20.224 182.034 19.744H187.938L187.002 23.596C186.522 23.908 185.97 24.172 185.346 24.388C184.722 24.604 184.062 24.784 183.366 24.928C182.67 25.048 181.962 25.132 181.242 25.18C180.522 25.252 179.838 25.288 179.19 25.288C177.99 25.288 176.874 25.18 175.842 24.964C174.81 24.748 173.91 24.376 173.142 23.848C172.374 23.32 171.762 22.624 171.306 21.76C170.874 20.872 170.658 19.78 170.658 18.484C170.658 17.308 170.838 16.156 171.198 15.028C171.582 13.9 172.206 12.904 173.07 12.04C173.958 11.152 175.134 10.444 176.598 9.916C178.086 9.388 179.934 9.124 182.142 9.124C184.542 9.124 186.342 9.496 187.542 10.24C188.766 10.984 189.378 12.148 189.378 13.732C189.378 14.38 189.282 15.088 189.09 15.856C188.898 16.6 188.61 17.236 188.226 17.764H178.11ZM182.898 13.48C182.898 12.736 182.778 12.232 182.538 11.968C182.298 11.704 182.01 11.572 181.674 11.572C181.29 11.572 180.93 11.704 180.594 11.968C180.282 12.208 179.994 12.544 179.73 12.976C179.466 13.384 179.226 13.864 179.01 14.416C178.794 14.944 178.614 15.508 178.47 16.108H182.574C182.622 15.82 182.67 15.52 182.718 15.208C182.766 14.944 182.802 14.656 182.826 14.344C182.874 14.032 182.898 13.744 182.898 13.48Z" fill="#00F0FF"/>
</svg>
