<svg width="1439" height="768" viewBox="0 0 1439 768" fill="none" xmlns="http://www.w3.org/2000/svg">
<rect width="1441" height="768"/>
<g filter="url(#filter0_d)">
<path d="M330 240H432.541L421.886 268.226H364.763V299.196H408.46L399.527 323.278H364.763V369.397H330V240Z" fill="white"/>
<path d="M766.936 240H869.477L858.822 268.226H801.672V299.196H845.395L836.435 323.278H801.672V369.397H766.936V240Z" fill="white"/>
<path d="M617.281 240H582.195V369.397H617.281V240Z" fill="white"/>
<path d="M1057.77 240H1018.08L963.112 369.397H1000.67L1009.07 348.678H1065.84L1073 369.397H1110.24L1057.77 240ZM1015.07 327.072L1036.67 272.343L1059.14 327.072H1015.07Z" fill="white"/>
</g>
<path d="M360.904 410.768C360.904 412.656 360.376 414.4 359.32 416C358.264 417.6 356.52 418.816 354.088 419.648L359.656 434H348.952L344.728 420.704H344.2L341.368 434H331L337.48 403.52H350.104C351.576 403.52 352.968 403.616 354.28 403.808C355.592 403.968 356.728 404.32 357.688 404.864C358.68 405.376 359.464 406.112 360.04 407.072C360.616 408 360.904 409.232 360.904 410.768ZM347.08 417.632C347.912 417.632 348.616 417.36 349.192 416.816C349.8 416.24 350.28 415.552 350.632 414.752C351.016 413.952 351.288 413.104 351.448 412.208C351.608 411.28 351.688 410.48 351.688 409.808C351.688 408.976 351.544 408.272 351.256 407.696C350.968 407.088 350.344 406.784 349.384 406.784H347.224L344.824 417.632H347.08Z" fill="white"/>
<path d="M374.575 403.52H394.783L394.015 407.168H384.223L382.207 416.432H390.415L389.647 420.032H381.439L379.231 430.304H389.023L388.303 434H368.095L374.575 403.52Z" fill="white"/>
<path d="M425.548 434H414.316L413.644 426.368H404.764L401.356 434H396.7L410.86 403.52H422.236L425.548 434ZM406.348 422.864H413.308L412.204 409.808L406.348 422.864Z" fill="white"/>
<path d="M441.031 403.52H451.447L445.783 429.968H455.527L454.711 434H434.551L441.031 403.52Z" fill="white"/>
<path d="M485.643 403.52H505.851L505.083 407.168H495.243L493.371 415.952H501.579L500.811 419.648H492.603L489.531 434H479.163L485.643 403.52Z" fill="white"/>
<path d="M515.941 403.52H536.149L535.381 407.168H525.589L523.573 416.432H531.781L531.013 420.032H522.805L520.597 430.304H530.389L529.669 434H509.461L515.941 403.52Z" fill="white"/>
<path d="M546.801 403.52H567.009L566.241 407.168H556.449L554.433 416.432H562.641L561.873 420.032H553.665L551.457 430.304H561.249L560.529 434H540.321L546.801 403.52Z" fill="white"/>
<path d="M577.662 403.52H588.078L582.414 429.968H592.158L591.342 434H571.182L577.662 403.52Z" fill="white"/>
<path d="M634.706 412.352C634.802 411.872 634.85 411.216 634.85 410.384C634.85 409.904 634.818 409.44 634.754 408.992C634.69 408.512 634.578 408.096 634.418 407.744C634.258 407.36 634.018 407.072 633.698 406.88C633.378 406.656 632.962 406.544 632.45 406.544C631.874 406.544 631.346 406.672 630.866 406.928C630.386 407.184 629.954 407.52 629.57 407.936C629.218 408.32 628.93 408.784 628.706 409.328C628.514 409.84 628.418 410.384 628.418 410.96C628.418 411.792 628.626 412.432 629.042 412.88C629.49 413.328 630.066 413.696 630.77 413.984C631.474 414.272 632.274 414.512 633.17 414.704C634.066 414.896 634.994 415.12 635.954 415.376C636.754 415.6 637.554 415.888 638.354 416.24C639.154 416.592 639.858 417.072 640.466 417.68C641.106 418.256 641.618 419.024 642.002 419.984C642.386 420.912 642.578 422.08 642.578 423.488C642.578 425.504 642.178 427.2 641.378 428.576C640.578 429.952 639.474 431.072 638.066 431.936C636.658 432.8 634.978 433.424 633.026 433.808C631.106 434.192 629.01 434.384 626.738 434.384C624.434 434.384 622.546 434.24 621.074 433.952C619.634 433.632 618.498 433.296 617.666 432.944C616.674 432.528 615.938 432.048 615.458 431.504L617.09 424.928H625.538C625.506 425.216 625.474 425.616 625.442 426.128C625.41 426.608 625.394 426.992 625.394 427.28C625.394 427.664 625.442 428.064 625.538 428.48C625.634 428.896 625.778 429.28 625.97 429.632C626.194 429.984 626.498 430.272 626.882 430.496C627.266 430.72 627.746 430.832 628.322 430.832C628.962 430.832 629.522 430.688 630.002 430.4C630.514 430.112 630.93 429.76 631.25 429.344C631.602 428.896 631.858 428.416 632.018 427.904C632.21 427.36 632.306 426.832 632.306 426.32C632.306 425.616 632.13 425.024 631.778 424.544C631.458 424.064 631.01 423.664 630.434 423.344C629.858 422.992 629.186 422.704 628.418 422.48C627.682 422.224 626.914 421.968 626.114 421.712C625.346 421.488 624.53 421.216 623.666 420.896C622.834 420.576 622.066 420.128 621.362 419.552C620.658 418.976 620.066 418.256 619.586 417.392C619.138 416.496 618.914 415.36 618.914 413.984C618.914 411.936 619.426 410.224 620.45 408.848C621.506 407.44 622.818 406.304 624.386 405.44C625.986 404.576 627.73 403.968 629.618 403.616C631.506 403.232 633.298 403.04 634.994 403.04C637.234 403.04 639.154 403.312 640.754 403.856C642.386 404.368 643.618 404.976 644.45 405.68L642.674 412.352H634.706Z" fill="white"/>
<path d="M666.094 420.848C667.054 420.848 667.854 420.448 668.494 419.648C669.166 418.848 669.71 417.872 670.126 416.72C670.574 415.568 670.894 414.368 671.086 413.12C671.278 411.872 671.374 410.784 671.374 409.856C671.374 408.992 671.23 408.272 670.942 407.696C670.654 407.088 670.03 406.784 669.07 406.784H666.91L663.886 420.848H666.094ZM663.214 423.92L661.054 434H650.686L657.166 403.52H668.254C670.078 403.52 671.742 403.616 673.246 403.808C674.75 404 676.046 404.384 677.134 404.96C678.222 405.536 679.07 406.368 679.678 407.456C680.286 408.512 680.59 409.936 680.59 411.728C680.59 413.392 680.318 414.976 679.774 416.48C679.262 417.952 678.414 419.248 677.23 420.368C676.078 421.456 674.574 422.32 672.718 422.96C670.862 423.6 668.606 423.92 665.95 423.92H663.214Z" fill="white"/>
<path d="M705.915 403.04C708.667 403.04 710.891 403.392 712.587 404.096C714.315 404.8 715.675 405.888 716.667 407.36C717.307 408.352 717.803 409.472 718.155 410.72C718.507 411.968 718.683 413.408 718.683 415.04C718.683 416.448 718.555 417.856 718.299 419.264C718.043 420.672 717.675 422.032 717.195 423.344C716.747 424.624 716.187 425.84 715.515 426.992C714.875 428.112 714.155 429.104 713.355 429.968C711.851 431.6 710.107 432.752 708.123 433.424C706.171 434.064 703.755 434.384 700.875 434.384C698.091 434.384 695.851 434.096 694.155 433.52C692.459 432.944 691.115 432.016 690.123 430.736C689.419 429.84 688.859 428.704 688.443 427.328C688.059 425.952 687.867 424.224 687.867 422.144C687.867 418.592 688.491 415.424 689.739 412.64C691.019 409.824 692.827 407.6 695.163 405.968C696.571 404.976 698.139 404.24 699.867 403.76C701.595 403.28 703.611 403.04 705.915 403.04ZM700.491 431.024C701.227 431.024 701.915 430.704 702.555 430.064C703.227 429.392 703.835 428.512 704.379 427.424C704.955 426.304 705.467 425.04 705.915 423.632C706.395 422.224 706.795 420.768 707.115 419.264C707.435 417.76 707.675 416.272 707.835 414.8C708.027 413.296 708.123 411.936 708.123 410.72C708.123 409.056 707.947 407.92 707.595 407.312C707.275 406.672 706.795 406.352 706.155 406.352C705.419 406.352 704.715 406.672 704.043 407.312C703.371 407.952 702.731 408.816 702.123 409.904C701.547 410.96 701.019 412.192 700.539 413.6C700.091 414.976 699.691 416.4 699.339 417.872C699.019 419.344 698.763 420.8 698.571 422.24C698.411 423.68 698.331 425.008 698.331 426.224C698.331 428.048 698.523 429.312 698.907 430.016C699.323 430.688 699.851 431.024 700.491 431.024Z" fill="white"/>
<path d="M755.67 410.768C755.67 412.656 755.142 414.4 754.086 416C753.03 417.6 751.286 418.816 748.854 419.648L754.422 434H743.718L739.494 420.704H738.966L736.134 434H725.766L732.246 403.52H744.87C746.342 403.52 747.734 403.616 749.046 403.808C750.358 403.968 751.494 404.32 752.454 404.864C753.446 405.376 754.23 406.112 754.806 407.072C755.382 408 755.67 409.232 755.67 410.768ZM741.846 417.632C742.678 417.632 743.382 417.36 743.958 416.816C744.566 416.24 745.046 415.552 745.398 414.752C745.782 413.952 746.054 413.104 746.214 412.208C746.374 411.28 746.454 410.48 746.454 409.808C746.454 408.976 746.31 408.272 746.022 407.696C745.734 407.088 745.11 406.784 744.15 406.784H741.99L739.59 417.632H741.846Z" fill="white"/>
<path d="M790.546 407.168H782.818L777.106 434H766.738L772.45 407.168H764.818L765.682 403.52H791.362L790.546 407.168Z" fill="white"/>
<path d="M826.435 420.08H838.867L836.083 434H830.419L829.507 430.928H829.315C828.483 431.888 827.491 432.704 826.339 433.376C825.219 434.048 823.747 434.384 821.923 434.384C820.515 434.384 819.155 434.16 817.843 433.712C816.563 433.232 815.411 432.496 814.387 431.504C813.395 430.48 812.595 429.152 811.987 427.52C811.379 425.888 811.075 423.92 811.075 421.616C811.075 419.12 811.459 416.752 812.227 414.512C812.995 412.272 814.147 410.304 815.683 408.608C817.219 406.88 819.139 405.52 821.443 404.528C823.747 403.536 826.435 403.04 829.507 403.04C831.875 403.04 833.939 403.312 835.699 403.856C837.459 404.4 839.123 405.008 840.691 405.68L838.867 414.992H830.755C830.787 414.64 830.835 414.224 830.899 413.744C830.963 413.264 831.011 412.768 831.043 412.256C831.075 411.712 831.107 411.184 831.139 410.672C831.171 410.16 831.187 409.712 831.187 409.328C831.187 409.072 831.171 408.784 831.139 408.464C831.107 408.112 831.027 407.776 830.899 407.456C830.771 407.136 830.579 406.88 830.323 406.688C830.067 406.464 829.699 406.352 829.219 406.352C828.387 406.352 827.619 406.704 826.915 407.408C826.243 408.08 825.635 408.992 825.091 410.144C824.547 411.264 824.067 412.544 823.651 413.984C823.267 415.424 822.931 416.896 822.643 418.4C822.387 419.872 822.179 421.328 822.019 422.768C821.891 424.176 821.827 425.408 821.827 426.464C821.827 426.784 821.843 427.184 821.875 427.664C821.907 428.144 822.003 428.624 822.163 429.104C822.355 429.552 822.611 429.952 822.931 430.304C823.283 430.624 823.779 430.784 824.419 430.784C825.475 430.784 826.499 430.208 827.491 429.056C828.483 427.904 829.235 425.984 829.747 423.296H825.715L826.435 420.08Z" fill="white"/>
<path d="M873.504 434H862.272L861.6 426.368H852.72L849.312 434H844.656L858.816 403.52H870.192L873.504 434ZM854.304 422.864H861.264L860.16 409.808L854.304 422.864Z" fill="white"/>
<path d="M917.739 434H907.083L911.499 413.264L900.123 434H893.595L891.435 412.544L886.827 434H882.507L888.987 403.52H901.227L902.715 420.704L911.931 403.52H924.267L917.739 434Z" fill="white"/>
<path d="M936.207 403.52H956.415L955.647 407.168H945.855L943.839 416.432H952.047L951.279 420.032H943.071L940.863 430.304H950.655L949.935 434H929.727L936.207 403.52Z" fill="white"/>
<path d="M982.975 403.52H1003.18L1002.41 407.168H992.623L990.607 416.432H998.815L998.047 420.032H989.839L987.631 430.304H997.423L996.703 434H976.495L982.975 403.52Z" fill="white"/>
<path d="M1011.29 403.52H1022.24L1023.87 424.16L1033.85 403.52H1038.6L1024.4 434H1013.07L1011.29 403.52Z" fill="white"/>
<path d="M1048.45 403.52H1068.65L1067.89 407.168H1058.09L1056.08 416.432H1064.29L1063.52 420.032H1055.31L1053.1 430.304H1062.89L1062.17 434H1041.97L1048.45 403.52Z" fill="white"/>
<path d="M1102.73 410.768C1102.73 412.656 1102.2 414.4 1101.15 416C1100.09 417.6 1098.35 418.816 1095.91 419.648L1101.48 434H1090.78L1086.55 420.704H1086.03L1083.19 434H1072.83L1079.31 403.52H1091.93C1093.4 403.52 1094.79 403.616 1096.11 403.808C1097.42 403.968 1098.55 404.32 1099.51 404.864C1100.51 405.376 1101.29 406.112 1101.87 407.072C1102.44 408 1102.73 409.232 1102.73 410.768ZM1088.91 417.632C1089.74 417.632 1090.44 417.36 1091.02 416.816C1091.63 416.24 1092.11 415.552 1092.46 414.752C1092.84 413.952 1093.11 413.104 1093.27 412.208C1093.43 411.28 1093.51 410.48 1093.51 409.808C1093.51 408.976 1093.37 408.272 1093.08 407.696C1092.79 407.088 1092.17 406.784 1091.21 406.784H1089.05L1086.65 417.632H1088.91Z" fill="white"/>
<defs>
<filter id="filter0_d" x="285" y="195" width="870.237" height="219.397" filterUnits="userSpaceOnUse" color-interpolation-filters="sRGB">
<feFlood flood-opacity="0" result="BackgroundImageFix"/>
<feColorMatrix in="SourceAlpha" type="matrix" values="0 0 0 0 0 0 0 0 0 0 0 0 0 0 0 0 0 0 127 0"/>
<feOffset/>
<feGaussianBlur stdDeviation="22.5"/>
<feColorMatrix type="matrix" values="0 0 0 0 1 0 0 0 0 1 0 0 0 0 1 0 0 0 1 0"/>
<feBlend mode="normal" in2="BackgroundImageFix" result="effect1_dropShadow"/>
<feBlend mode="normal" in="SourceGraphic" in2="effect1_dropShadow" result="shape"/>
</filter>
</defs>
</svg>
