<svg width="208" height="198" viewBox="0 0 208 198" fill="none" xmlns="http://www.w3.org/2000/svg">
<path d="M33.5676 36.6183C39.1008 38.2418 41.6829 40.9476 41.6829 45.2768V64.2172C41.6829 71.7933 37.9941 75.401 30.4322 75.401H10.5129V0.000244141H27.4812C36.3342 0.000244141 40.7607 4.50986 40.7607 13.7095V28.1403C40.7607 32.4695 38.363 35.1753 33.5676 36.0772V36.6183ZM20.4726 31.7479H25.0835C28.9567 31.7479 30.8011 29.9441 30.8011 26.3364V14.6114C30.8011 11.0037 29.3256 9.19986 26.3746 9.19986H20.4726V31.7479V31.7479ZM20.4726 66.3818H27.8501C30.4322 66.3818 31.7233 65.2995 31.7233 63.1349V46.3591C31.7233 42.7514 29.6944 40.9476 25.8213 40.9476H20.2881V66.3818H20.4726Z" fill="#EDB600"/>
<path d="M75.8038 75.4008H52.1958V0H62.1554V66.3816H75.8038V75.4008Z" fill="#EDB600"/>
<path d="M92.9565 75.4008H82.9969V12.9877C82.9969 4.32923 86.8701 0 94.8009 0H102.178C110.109 0 113.982 4.32923 113.982 12.9877V75.5812H104.023V47.8019H92.5876V75.4008H92.9565ZM104.207 38.6023V13.5288C104.207 10.6427 102.732 9.19962 99.7807 9.19962H97.0141C94.0631 9.19962 92.5876 10.6427 92.5876 13.5288V38.6023H104.207Z" fill="#EDB600"/>
<path d="M154.743 57.7231V62.5935C154.743 71.0716 150.87 75.4008 142.939 75.4008H136.484C128.553 75.4008 124.68 71.0716 124.68 62.5935V12.8073C124.495 4.32923 128.553 0 136.484 0H142.939C150.87 0 154.743 4.32923 154.743 12.8073V21.2854H144.783V13.5289C144.783 10.6427 143.308 9.19962 140.357 9.19962H138.328C135.746 9.19962 134.455 10.6427 134.455 13.5289V61.8719C134.455 64.7581 135.746 66.2012 138.328 66.2012H140.726C143.308 66.2012 144.599 64.7581 144.599 61.8719V57.7231H154.743Z" fill="#EDB600"/>
<path d="M174.478 75.4008H164.518V0H174.478V75.4008ZM197.348 75.4008H187.388L175.031 38.6023V37.8808L185.36 0H194.397L183.884 37.52L197.348 75.4008Z" fill="#EDB600"/>
<path d="M22.8702 117.07V126.27H9.95962V160.543H0V84.9614H24.5302V94.1611H9.77519V117.07H22.8702Z" fill="#EDB600"/>
<path d="M33.3832 84.9614H52.7491C60.3111 84.9614 64.1843 89.2907 64.1843 97.9491V116.529C64.1843 123.023 62.1554 127.352 58.2823 128.975L65.2909 160.362H55.8846L49.2448 129.877H43.1584V160.362H33.1988V84.9614H33.3832ZM43.3428 121.399H49.7981C52.7491 121.399 54.2246 119.595 54.2246 115.988V99.753C54.2246 96.1453 52.7491 94.3414 49.7981 94.3414H43.3428V121.399Z" fill="#EDB600"/>
<path d="M74.5127 160.362V84.9614H84.4724V160.362H74.5127Z" fill="#EDB600"/>
<path d="M95.9075 160.362V84.9614H113.245C122.467 84.9614 127.262 89.8318 127.262 99.3922V149.359C127.262 156.574 123.389 160.362 115.458 160.362H95.9075V160.362ZM105.683 151.343H113.06C115.642 151.343 116.933 150.261 116.933 147.916V99.5726C116.933 95.9649 115.458 94.161 112.507 94.161H105.498V151.343H105.683Z" fill="#EDB600"/>
<path d="M147.366 160.362H137.406V97.9491C137.406 89.2907 141.279 84.9614 149.21 84.9614H156.587C164.518 84.9614 168.391 89.2907 168.391 97.9491V160.543H158.616V132.763H147.181V160.362H147.366ZM158.616 123.744V98.4903C158.616 95.6041 157.141 94.1611 154.19 94.1611H151.423C148.472 94.1611 146.997 95.6041 146.997 98.4903V123.564H158.616V123.744Z" fill="#EDB600"/>
<path d="M195.873 160.362H185.913V132.763L173.74 85.1416H183.515L190.893 117.972H191.262L197.901 85.1416H207.677L195.688 132.763V160.362H195.873Z" fill="#EDB600"/>
<path d="M75.8038 176.597C75.8038 176.958 75.6194 177.499 75.0661 177.86C67.1353 186.157 51.6425 197.161 39.2852 197.161C35.0431 197.161 30.8011 195.537 30.8011 190.667C30.8011 189.043 31.3544 188.683 31.9077 188.683C32.461 188.683 33.1988 189.224 33.1988 189.585V189.945C33.3832 191.569 33.7521 193.733 35.9653 193.733C40.2074 193.733 39.8385 184.353 41.4985 176.958C40.7607 177.499 40.2074 177.86 39.6541 178.401C38.7319 179.303 38.363 179.483 37.4408 179.483C36.8875 179.483 36.5186 179.303 36.5186 178.761C36.5186 178.581 36.7031 178.22 37.072 177.86C44.8183 170.283 47.0316 167.397 49.7981 167.397C52.9336 167.397 54.2246 169.381 54.2246 170.464C54.2246 170.825 54.0402 171.546 53.6713 171.546C52.5647 171.546 51.4581 171.726 50.7203 172.087C45.925 175.154 48.1382 186.338 45.0028 192.651C51.6425 193.553 66.3975 182.55 72.484 176.958C73.4061 176.056 74.3283 175.875 75.0661 175.875C75.6194 176.236 75.8038 176.236 75.8038 176.597Z" fill="white"/>
<path d="M119.147 178.04C110.478 186.518 97.383 197.341 91.481 197.341C86.8701 197.341 83.5502 195.357 83.1813 190.486C82.9969 189.404 82.9969 188.502 83.3658 187.42C81.337 189.043 75.435 197.341 73.4062 197.341C71.7462 197.341 67.3197 195.898 67.3197 190.486C67.3197 178.942 78.5704 170.824 82.628 170.824C83.7347 170.824 84.4724 170.824 85.2102 171.005C86.8701 171.546 87.7923 172.267 88.53 172.989C88.8989 173.53 89.2678 173.891 89.6367 174.252C89.8211 174.432 90.0055 174.612 90.19 174.793C90.7433 174.793 91.1122 174.612 91.481 174.252C91.6655 174.071 92.0343 174.071 92.2188 174.071C93.5098 174.071 96.2764 175.334 96.4608 177.138V177.318C96.2764 180.204 86.3168 193.372 91.6655 193.372C97.5675 193.372 108.818 184.353 116.933 176.957C117.671 176.416 118.778 176.055 119.516 176.055C119.884 176.236 120.069 176.957 119.147 178.04ZM87.7923 177.859C87.7923 176.957 86.3168 176.236 85.579 176.236C85.0257 176.236 84.4724 176.416 83.9191 176.777C82.9969 177.318 81.7058 178.4 80.5992 179.843C77.2793 183.271 74.1439 188.682 74.8817 190.306C76.1727 190.125 86.5012 181.287 87.7923 177.859Z" fill="white"/>
<path d="M146.997 176.597C146.997 176.957 146.812 177.318 146.443 177.859C145.89 178.761 126.34 197.341 118.593 197.341C104.945 197.341 113.982 180.024 116.749 174.252C123.573 159.821 133.902 140.159 141.832 129.155C142.386 128.434 142.939 128.253 143.492 128.253C143.861 128.253 144.415 128.434 144.599 128.614C145.89 129.516 146.997 131.5 146.997 133.304C146.997 133.665 146.997 133.845 146.812 134.206C142.57 140.339 117.487 182.91 117.487 191.929C117.487 192.831 117.856 193.553 118.593 193.553C124.68 193.553 135.746 184.533 143.861 177.138C144.783 176.597 145.706 176.236 146.443 176.236C146.628 176.236 146.997 176.236 146.997 176.597Z" fill="white"/>
<path d="M184.622 176.597C184.622 176.957 184.622 177.318 184.253 177.679C183.331 178.581 181.671 180.385 179.273 182.549C178.72 183.09 178.167 183.451 177.429 184.173C170.605 189.945 159.723 197.521 151.608 197.521C144.968 197.521 139.988 193.192 139.988 185.977C139.988 178.581 148.657 170.824 155.296 170.824C159.907 170.824 162.858 174.071 162.858 177.498C162.858 181.467 158.801 185.616 148.103 185.616H147.919C147.366 186.157 146.812 187.6 146.812 189.043C146.812 191.208 147.919 193.733 151.608 193.733C163.227 193.733 174.662 183.09 180.749 177.679L181.671 176.777C182.409 176.416 183.146 176.236 183.7 176.236C184.437 176.236 184.622 176.236 184.622 176.597ZM149.579 183.451C149.763 183.632 149.948 183.632 150.132 183.632C152.345 183.632 158.432 180.745 158.801 178.581V178.22C158.616 178.04 158.432 178.04 158.063 178.04C156.034 177.859 150.87 180.745 149.579 183.451Z" fill="white"/>
</svg>
