<svg width="26" height="23" viewBox="0 0 26 23" fill="none" xmlns="http://www.w3.org/2000/svg">
<path fill-rule="evenodd" clip-rule="evenodd" d="M24.1103 8.02518L18.1868 14.0237V10H13.8546C9.94929 10 6.77199 10.7694 4.95935 12.862L4.95225 12.8703C3.78669 14.2357 3.20819 16.1194 3.08773 18.3768C2.90987 17.9272 2.73919 17.3997 2.56153 16.7493C2.39352 16.0642 2.30991 15.4505 2.30991 14.9472C2.30991 14.413 2.33513 13.9169 2.38266 13.4837L2.38735 13.441L2.38958 13.398C2.41125 12.9812 2.4767 12.5475 2.59689 12.0364L2.60306 12.0101L2.60828 11.9837C2.70077 11.5154 2.83295 11.0852 2.9872 10.7532L3.00263 10.72L3.01642 10.6861C3.14791 10.3627 3.37045 9.98197 3.69087 9.46706C3.96515 9.08861 4.27782 8.75391 4.63008 8.46013C4.98581 8.16347 5.46209 7.85869 6.07923 7.52018C6.6293 7.21845 7.2538 6.95996 7.95478 6.77067L7.97736 6.76457L7.99974 6.75777C8.69681 6.546 9.5525 6.39308 10.5891 6.2585C11.5666 6.13159 12.669 6.07794 13.8818 6.07794H18.2413V2.08184L24.1103 8.02518ZM17.4221 0.0827338C17.5583 0.0275779 17.7217 0 17.8578 0C18.1574 0 18.4297 0.110312 18.6476 0.358513L25.4559 7.253C25.701 7.47362 25.7282 7.7494 25.7282 8.05276C25.7282 8.35612 25.6193 8.6319 25.4014 8.85252L18.5931 15.747C18.3753 15.9676 18.1302 16.0779 17.8034 16.0779C17.6672 16.0779 17.531 16.0504 17.3676 15.9952C16.9047 15.8022 16.6868 15.4436 16.6868 14.9472V11.5H13.8546C10.0419 11.5 7.45479 12.2722 6.09313 13.8441C4.8074 15.3504 4.31516 17.8965 4.68122 21.4606C4.68692 21.5161 4.69283 21.5719 4.69895 21.6279C4.7103 21.7317 4.72236 21.8365 4.73514 21.942C4.74116 21.9917 4.74734 22.0417 4.75368 22.0918C4.76401 22.1734 4.77476 22.2555 4.78594 22.3381C4.81317 22.6139 4.70424 22.807 4.43191 22.9448C4.32298 22.9724 4.26851 22.9724 4.21405 22.9724C4.02341 22.9724 3.86001 22.9173 3.75108 22.7518C3.68694 22.6738 3.62883 22.5898 3.57108 22.5025C3.56194 22.4887 3.55282 22.4748 3.54367 22.4608C3.53404 22.4461 3.52439 22.4313 3.5147 22.4164C3.46833 22.3454 3.421 22.2728 3.36982 22.2002C3.35868 22.1822 3.34681 22.1629 3.33423 22.1422C3.30294 22.0909 3.26723 22.0316 3.22733 21.9643C3.08717 21.7279 2.89533 21.3929 2.66176 20.9592L2.64091 20.9188C2.32222 20.3003 2.03017 19.7335 1.7903 19.1667C1.5452 18.5875 1.32734 17.9257 1.10947 17.1259C0.918838 16.3537 0.809906 15.6091 0.809906 14.9472C0.809906 14.3681 0.837139 13.8165 0.891605 13.3201C0.918838 12.7962 1.00054 12.2722 1.1367 11.693C1.24564 11.1415 1.40903 10.5899 1.6269 10.1211C1.81753 9.65228 2.1171 9.15588 2.44389 8.6319C2.79792 8.13549 3.20642 7.69425 3.66938 7.30815C4.13235 6.92206 4.70424 6.56355 5.35784 6.20504C6.01143 5.84652 6.74672 5.54317 7.56372 5.32254C8.38071 5.07434 9.33387 4.90887 10.396 4.77098C11.4581 4.63309 12.6291 4.57794 13.8818 4.57794H16.7413V1.1307C16.7413 0.634293 16.9591 0.275779 17.4221 0.0827338Z" fill="white"/>
</svg>
