<svg width="36" height="28" viewBox="0 0 36 28" fill="none" xmlns="http://www.w3.org/2000/svg">
<path d="M30.4082 6.87733V7.37733H30.9082H35.1295L30.0902 25.6042C30.09 25.6048 30.0898 25.6054 30.0897 25.606C29.912 26.2259 29.3164 26.6932 28.6602 26.6932H7.84325C7.17414 26.6932 6.59133 26.2357 6.41402 25.6069C6.41393 25.6065 6.41383 25.6062 6.41374 25.6059L1.37393 7.37733H5.58396H6.08396V6.87733V4.41583C6.08396 2.74796 7.42679 1.39941 9.06844 1.39941H27.4238C29.0654 1.39941 30.4082 2.74796 30.4082 4.41583V6.87733ZM29.5594 7.37733H30.0594V6.87733V4.41583C30.0594 2.95296 28.8844 1.76061 27.4238 1.76061H9.06844C7.60778 1.76061 6.43279 2.95296 6.43279 4.41583V6.87733V7.37733H6.93279H29.5594ZM8.71959 22.2606L8.81728 22.6341H9.20332H11.8223H12.4239L12.3139 22.0426L10.6503 13.1041L10.5743 12.6955H10.1587H6.86535H6.21775L6.38162 13.3221L8.71959 22.2606ZM14.0565 22.1872L14.1043 22.6341H14.5537H17.1727H17.6886L17.6724 22.1183L17.3914 13.1798L17.3762 12.6955H16.8916H13.5983H13.042L13.1011 13.2487L14.0565 22.1872ZM22.5118 22.6341H22.9534L23.0079 22.1958L24.1207 13.2573L24.1907 12.6955H23.6246H20.3312H19.8545L19.8317 13.1717L19.4046 22.1102L19.3796 22.6341H19.904H22.5118ZM27.8621 22.6341H28.2417L28.3437 22.2685L30.8391 13.33L31.0162 12.6955H30.3575H27.0641H26.6552L26.574 13.0963L24.7643 22.0348L24.643 22.6341H25.2544H27.8621Z" stroke="white"/>
</svg>
