<svg width="24" height="23" viewBox="0 0 24 23" fill="none" xmlns="http://www.w3.org/2000/svg">
<path fill-rule="evenodd" clip-rule="evenodd" d="M16.2987 1.04338C17.3945 1.27917 18.093 2.20588 18.1611 3.27642C18.1621 3.29226 18.1626 3.30813 18.1626 3.32401V4.04701C18.1626 4.06025 18.1627 4.07442 18.1627 4.08944C18.1635 4.29904 18.1651 4.6748 18.0227 5.02146C18.0189 5.03929 18.0138 5.06791 18.0055 5.12014L18.0038 5.13146C17.9962 5.17942 17.9848 5.25143 17.9656 5.33333V5.33809C17.9656 5.41519 17.9537 5.49183 17.9303 5.56531C17.9207 5.59555 17.9154 5.6204 17.9031 5.68518L17.9018 5.69169C17.8907 5.74996 17.874 5.83798 17.8428 5.9429C17.6934 6.60539 17.4238 7.28913 17.1217 7.9449H20.0721C21.4691 7.9449 22.4966 9.15557 22.4966 10.4508C22.4966 10.807 22.4277 11.1558 22.2924 11.4739C22.8454 11.9395 23.1862 12.6625 23.1862 13.3944C23.1862 14.1679 22.8136 14.9187 22.2259 15.3728C22.3364 15.661 22.3981 15.9723 22.3981 16.2865C22.3981 17.0051 22.0925 17.6526 21.6171 18.1055C21.7497 18.4474 21.8071 18.8176 21.8071 19.1785C21.8071 20.5477 20.7134 21.6731 19.4023 21.6843L19.3939 21.6847L19.3223 21.688C19.26 21.6908 19.1691 21.6949 19.0543 21.6998C18.8248 21.7096 18.4994 21.7226 18.1151 21.7356C17.3479 21.7615 16.3411 21.7876 15.3933 21.7876C15.3597 21.7876 15.3262 21.7876 15.2929 21.7876C14.3029 21.7878 13.457 21.7879 12.8873 21.6708C12.5009 21.6008 12.088 21.415 11.7797 21.2762C11.5964 21.2191 11.4202 21.1529 11.2808 21.1002C11.1337 21.0447 11.047 21.0124 10.9931 20.9958C10.7415 20.9552 10.2648 20.9102 9.64225 20.9097V21.3475C9.64225 21.986 9.14259 22.5623 8.449 22.5623H7.09368C7.06685 22.6002 7.03678 22.6369 7.00326 22.672C6.80311 22.8819 6.53729 22.9754 6.28197 22.9754H1.15992C0.904598 22.9754 0.638786 22.8819 0.438631 22.672C0.241535 22.4653 0.163666 22.2047 0.163666 21.9672V9.15969C0.163666 8.92216 0.241535 8.66155 0.438631 8.45488C0.638786 8.245 0.904598 8.15147 1.15992 8.15147H6.28197C6.4677 8.15147 6.65831 8.20306 6.82475 8.3064H8.449C8.70114 8.3064 8.92766 8.38257 9.11386 8.51019C9.70285 8.07117 10.5265 7.40465 11.3173 6.61492C11.3327 6.59959 11.3487 6.58494 11.3653 6.57101C11.4483 6.50136 11.5317 6.41559 11.6286 6.30799C11.6542 6.27958 11.6842 6.24565 11.7165 6.209C11.7881 6.12794 11.8714 6.03363 11.9448 5.95664C12.1523 5.73907 12.2744 5.56908 12.4193 5.36656C12.4301 5.35141 12.4415 5.33667 12.4535 5.32236C12.7315 4.98921 12.9381 4.6098 13.1359 4.24648C13.1408 4.23754 13.1456 4.22861 13.1505 4.21968C13.1696 4.18098 13.1877 4.14825 13.2025 4.12238C13.2032 4.12112 13.2039 4.11988 13.2046 4.11864C13.2143 4.08985 13.2257 4.06161 13.2388 4.03407L13.2487 4.01335C13.2681 3.9411 13.2903 3.88735 13.2995 3.86524C13.3003 3.86327 13.301 3.86155 13.3016 3.86009C13.3284 3.79462 13.3611 3.72606 13.3831 3.67978L13.3866 3.67257L13.403 3.63796L13.4122 3.61791C13.4141 3.53118 13.4309 3.44617 13.4614 3.36642C13.4618 3.33008 13.4649 3.29382 13.4706 3.25792L13.5209 2.94132C13.7343 1.67366 15.0072 0.733119 16.2987 1.04338ZM8.16447 9.8064H6.52823C6.35988 9.8064 6.20027 9.75006 6.07172 9.65147H1.66367V21.4754H5.85795C5.98134 21.2304 6.23515 21.0623 6.52823 21.0623H8.14225V20.1597C8.14225 19.7455 8.47804 19.4097 8.89225 19.4097H9.63101C10.3512 19.4097 10.9379 19.4632 11.2869 19.5242C11.3074 19.5278 11.3278 19.5322 11.348 19.5375C11.4826 19.5728 11.6469 19.635 11.7773 19.6843C11.7886 19.6886 11.7997 19.6928 11.8105 19.6969C11.9664 19.7557 12.1157 19.8113 12.2595 19.8544C12.291 19.8638 12.3218 19.8753 12.3517 19.8887C12.7258 20.0568 12.9756 20.1636 13.1584 20.1955C13.1667 20.197 13.175 20.1986 13.1832 20.2003C13.5793 20.2834 14.2665 20.2876 15.3933 20.2876C16.3171 20.2876 17.305 20.2621 18.0644 20.2364C18.4436 20.2236 18.7646 20.2108 18.9906 20.2012C19.1036 20.1964 19.1928 20.1924 19.2536 20.1896L19.3229 20.1863L19.3458 20.1852C19.358 20.1846 19.3704 20.1843 19.3826 20.1843C19.8358 20.1843 20.3071 19.7649 20.3071 19.1785C20.3071 18.7901 20.1948 18.5347 20.0711 18.405C19.9022 18.2278 19.8303 17.9794 19.8786 17.7394C19.9269 17.4994 20.0893 17.2981 20.3136 17.2001C20.6399 17.0576 20.8981 16.7023 20.8981 16.2865C20.8981 16.0183 20.7781 15.7378 20.6129 15.5646C20.4197 15.362 20.3554 15.0687 20.4462 14.8038C20.5369 14.539 20.7677 14.3468 21.0445 14.3053C21.3111 14.2654 21.6862 13.9087 21.6862 13.3944C21.6862 12.9266 21.3464 12.5423 21.0405 12.4736C20.7667 12.4121 20.5502 12.2029 20.4792 11.9314C20.4083 11.66 20.4949 11.3716 20.7035 11.184C20.8733 11.0315 20.9966 10.778 20.9966 10.4508C20.9966 9.88681 20.5467 9.4449 20.0721 9.4449H15.9351C15.6776 9.4449 15.4382 9.31286 15.3008 9.09515C15.1634 8.87743 15.1473 8.60447 15.2581 8.3721C15.3305 8.2202 15.3903 8.10288 15.4413 8.00259C15.519 7.84994 15.5767 7.73678 15.6283 7.6013C15.6355 7.58249 15.6434 7.56398 15.6521 7.5458C15.989 6.83933 16.2554 6.17738 16.3846 5.59004C16.3895 5.56778 16.3954 5.54575 16.4023 5.52403C16.412 5.49379 16.4173 5.46894 16.4296 5.40415L16.4309 5.39763C16.4386 5.35677 16.4492 5.30127 16.4656 5.23557C16.4656 5.15847 16.4775 5.08107 16.5008 5.00759C16.5057 4.99237 16.5106 4.97008 16.5241 4.88468C16.5247 4.88108 16.5253 4.8773 16.5259 4.87336C16.5373 4.80138 16.5572 4.67527 16.5993 4.54281C16.6097 4.51011 16.6224 4.47818 16.6371 4.44721C16.637 4.44748 16.6371 4.44721 16.6371 4.44721C16.6371 4.44719 16.647 4.42348 16.654 4.35297C16.6619 4.27433 16.6626 4.18372 16.6626 4.04701V3.35054C16.6255 2.88782 16.347 2.5861 15.9781 2.50875C15.9695 2.50694 15.961 2.50498 15.9524 2.50288C15.5746 2.40966 15.0835 2.70516 15.0006 3.18745L14.9613 3.4348V3.47804C14.9613 3.48041 14.9613 3.48415 14.9614 3.48742C14.9618 3.53523 14.963 3.67632 14.9003 3.84198C14.8687 4.05717 14.7823 4.23316 14.7487 4.30151C14.7454 4.30808 14.7427 4.31366 14.7405 4.31818C14.7278 4.34483 14.7176 4.36631 14.7084 4.38628C14.7049 4.39379 14.7019 4.40034 14.6994 4.40602C14.6872 4.46472 14.668 4.52194 14.642 4.57639L14.6282 4.60533C14.6208 4.62964 14.6129 4.65145 14.6054 4.67055C14.5793 4.73702 14.5492 4.79016 14.536 4.81327C14.5187 4.84358 14.5103 4.85759 14.5054 4.86575C14.4998 4.87502 14.4988 4.87674 14.4943 4.88625C14.4885 4.89844 14.4823 4.91047 14.4759 4.92233C14.4643 4.9436 14.4523 4.96558 14.44 4.9882C14.255 5.32889 13.9903 5.81608 13.6238 6.26094C13.4767 6.46654 13.3056 6.70321 13.0303 6.99185C12.9752 7.04966 12.9278 7.10349 12.8703 7.16871C12.8336 7.21043 12.7928 7.2568 12.7432 7.31186C12.6369 7.42987 12.5075 7.56742 12.3557 7.69781C11.289 8.75959 10.18 9.60491 9.56821 10.0326C9.5456 10.0484 9.52214 10.063 9.49793 10.0762L9.48426 10.0904C9.47605 10.099 9.46767 10.1074 9.4591 10.1156C9.32159 10.2742 9.11864 10.3745 8.89225 10.3745C8.54078 10.3745 8.24577 10.1327 8.16447 9.8064ZM8.94243 10.3228C8.94244 10.3228 8.94243 10.3228 8.94243 10.3228V10.3228Z" fill="white"/>
</svg>
