<svg width="29" height="27" viewBox="0 0 29 27" fill="none" xmlns="http://www.w3.org/2000/svg">
<path d="M28.3956 9.99311L28.3956 9.99393C28.3653 11.6399 27.8802 13.1597 27.0832 14.4306L27.0663 14.4575L27.053 14.4863C25.6531 17.5128 22.0999 23.2211 14.3847 25.6153C14.3126 25.5805 14.2185 25.5343 14.1046 25.4771C13.8129 25.3305 13.392 25.1111 12.8795 24.8219C11.8538 24.2432 10.465 23.3873 9.0128 22.2792C6.09253 20.0508 2.98929 16.8582 1.97916 12.9095L1.97149 12.8795L1.96019 12.8507C1.54571 11.7948 1.3229 10.6346 1.34304 9.41062C1.43478 4.86016 4.91438 1.32037 9.03664 1.40127C11.2563 1.45249 13.2467 2.54277 14.5942 4.25213L14.9699 4.72881L15.3658 4.26873C16.7844 2.62023 18.8144 1.61288 21.0324 1.66381L21.034 1.66384C25.1547 1.74519 28.487 5.43991 28.3956 9.99311Z" stroke="white"/>
</svg>
