<svg id="Layer_1" data-name="Layer 1" xmlns="http://www.w3.org/2000/svg" viewBox="0 0 100 100"><defs><style>.cls-1{fill:#fff;}</style></defs><title>LOGO</title><path class="cls-1" d="M89.37,11H10.63c-4.08,0-7.42,4-7.42,8.79s3.34,8.8,7.42,8.8H89.37c4.08,0,7.42-4,7.42-8.8S93.45,11,89.37,11Z"/><path class="cls-1" d="M89.37,40.61H10.63c-4.08,0-7.42,4-7.42,8.8s3.34,8.79,7.42,8.79H89.37c4.08,0,7.42-4,7.42-8.79S93.45,40.61,89.37,40.61Z"/><path class="cls-1" d="M89.37,70.25H10.63c-4.08,0-7.42,4-7.42,8.79s3.34,8.8,7.42,8.8H89.37c4.08,0,7.42-4,7.42-8.8S93.45,70.25,89.37,70.25Z"/></svg>