<svg id="Layer_1" data-name="Layer 1" xmlns="http://www.w3.org/2000/svg" viewBox="0 0 100 100"><defs><style>.cls-1{fill:#fff;}</style></defs><title>LOGO</title><path class="cls-1" d="M50,8.88A42.62,42.62,0,1,0,92.62,51.5C92,27.82,73.09,8.88,50,8.88Zm27.82,26a18.07,18.07,0,0,1-4.73,4.74c-.6,0-.6.59-.6,1.18a33,33,0,0,1-7.69,21.9A29.44,29.44,0,0,1,46.45,73.4,33.62,33.62,0,0,1,24,69.25a41.1,41.1,0,0,0,11.84-1.77c1.78-.59,3-1.78,4.74-3a11.21,11.21,0,0,1-4.74-1.18,13,13,0,0,1-5.32-5.92c0-.6,0-.6.59-.6H35.2c-1.18-.59-1.77-.59-2.37-1.18a10.56,10.56,0,0,1-5.92-9.47c0-.59,0-.59.6-.59a11,11,0,0,0,4.14,1.18L29.87,45c-4.14-4.15-4.73-8.88-2.36-13,0-.59.59-.59.59,0A32.23,32.23,0,0,0,47.63,42.62a3.57,3.57,0,0,1,2.37.59c.59,0,.59,0,.59-.59-.59-4.74,1.19-9.47,5.33-11.84a10.79,10.79,0,0,1,13,1.77c.59.6.59.6,1.19,0a17.87,17.87,0,0,0,5.92-2.36l.59-.6a9.38,9.38,0,0,1-4.74,5.92,10,10,0,0,0,5.92-1.77C78.41,34.92,77.82,34.92,77.82,34.92Z"/></svg>