<svg id="Layer_1" data-name="Layer 1" xmlns="http://www.w3.org/2000/svg" viewBox="0 0 100 100"><defs><style>.cls-1{fill:#fff;}</style></defs><title>LOGO</title><path class="cls-1" d="M50,7.38A42.62,42.62,0,1,0,92.62,50C92,26.32,73.09,7.38,50,7.38Zm4.74,67.48a24.68,24.68,0,0,1-17.17-2.37H36.39a93.48,93.48,0,0,1-12.44,3c-.59,0-.59,0-.59-.59,1.19-4.14,2.37-8.29,3.55-11.84V61.84A26.06,26.06,0,0,1,44.67,24a14.78,14.78,0,0,1,4.74-.59A26,26,0,0,1,74.86,43.49C78.41,57.7,68.94,71.9,54.74,74.86Z"/><path class="cls-1" d="M54.14,28.69c-8.87-1.78-16.57,1.18-21.9,8.29s-5.32,16.57-.59,24.27a1.11,1.11,0,0,1,0,1.77c-.59,2.37-1.18,4.15-1.78,6.51,0,.6,0,.6.6.6l7.1-1.78h1.18a25,25,0,0,0,11.84,3h3A21.22,21.22,0,0,0,70.72,45.26C68.94,36.39,63,30.47,54.14,28.69Zm4.15,33.15H56.51a5.37,5.37,0,0,1-3-.59,27.39,27.39,0,0,1-14.2-10.07,18.27,18.27,0,0,1-3-5.92,7.6,7.6,0,0,1,2.36-7.1,3.66,3.66,0,0,1,3.56-.59l.59.59c.59,1.78,1.77,3.55,2.37,5.33v1.18A8,8,0,0,0,43.49,47c-.59.59-.59,1.18,0,1.18a18.81,18.81,0,0,0,8.88,7.7c.59,0,1.18,0,1.18-.59a8.08,8.08,0,0,0,2.37-1.78c.59-.59.59-.59,1.18-.59l3.56,1.78a.58.58,0,0,1,.59.59c1.18.59,1.18.59,1.18,2.37C62.43,60.06,60.66,61.25,58.29,61.84Z"/></svg>