<svg id="Layer_1" data-name="Layer 1" xmlns="http://www.w3.org/2000/svg" viewBox="0 0 100 100"><defs><style>.cls-1{fill:#fff;}</style></defs><title>LOGO</title><path class="cls-1" d="M64.21,46.45c-.59,0-1.19,0-.59,1.18.59,2.37,0,4.15-.6,6.51-1.77,7.11-9.47,11.25-16.57,10.07S34.61,55.92,35.2,48.82c0-1.78,0-1.78-1.77-2.37a1.57,1.57,0,0,0-1.78,1.77V64.8c0,2.37.59,3,3,3h29.6c2.36,0,3-.59,3-3V49.41C67.76,46.45,67.76,46.45,64.21,46.45Z"/><path class="cls-1" d="M50,58.88A8.88,8.88,0,1,0,41.12,50,9.11,9.11,0,0,0,50,58.88Z"/><path class="cls-1" d="M50,7.38A42.62,42.62,0,1,0,92.62,50,42.44,42.44,0,0,0,50,7.38ZM73.09,67.17c0,4.14-2.37,5.92-5.92,5.92H33.43a5.59,5.59,0,0,1-5.92-5.92V33.43c0-4.15,2.36-5.92,5.92-5.92H67.17c4.14,0,5.92,2.36,5.92,5.92Z"/><path class="cls-1" d="M63,32.24c-4.14,0-4.14,0-4.14,4.74s0,4.73,4.73,4.73,4.74,0,4.74-4.73C67.76,32.24,67.76,32.24,63,32.24Z"/></svg>