<svg id="Layer_1" data-name="Layer 1" xmlns="http://www.w3.org/2000/svg" viewBox="0 0 100 100"><defs><style>.cls-1{fill:#fff;}</style></defs><title>LOGO</title><path class="cls-1" d="M50,7.4a42.55,42.55,0,0,0-9.47,84.05v-32h-7.1V49.43h7.1V45.88A28.87,28.87,0,0,1,41.71,37c1.19-2.37,3-3.56,4.74-5.33a19.7,19.7,0,0,1,8.88-1.78A33.33,33.33,0,0,1,66,31.67l-1.77,8.88A20.24,20.24,0,0,0,58.29,40c-1.78,0-3,0-3.55,1.18-1.19.59-1.19,2.37-1.19,4.74v3.55H63V59.49H53.55V92.05c21.9-1.78,39.07-20.13,39.07-42C92,26.34,73.09,7.4,50,7.4Z"/></svg>