<svg width="574" height="40" viewBox="0 0 574 40" fill="none" xmlns="http://www.w3.org/2000/svg">
<path d="M0.744 0.519998H12.456L13.272 21.304L21.288 0.519998H30.792L32.04 21.304L40.104 0.519998H45.144L33.288 31H22.488L21.48 13.768L14.28 31H2.76L0.744 0.519998ZM51.4328 21.352C51.3048 22.056 51.2088 22.728 51.1448 23.368C51.1128 24.008 51.0968 24.584 51.0968 25.096C51.0968 25.384 51.1128 25.704 51.1448 26.056C51.1768 26.408 51.2408 26.744 51.3368 27.064C51.4648 27.352 51.6248 27.608 51.8168 27.832C52.0408 28.024 52.3448 28.12 52.7288 28.12C53.0168 28.12 53.3368 28.024 53.6888 27.832C54.0728 27.64 54.4408 27.368 54.7928 27.016C55.1768 26.664 55.5288 26.232 55.8488 25.72C56.2008 25.208 56.4728 24.632 56.6648 23.992H64.5368L63.2888 29.128C62.6488 29.544 61.9128 29.896 61.0808 30.184C60.2488 30.472 59.3688 30.712 58.4408 30.904C57.5128 31.064 56.5688 31.176 55.6088 31.24C54.6488 31.336 53.7368 31.384 52.8728 31.384C51.2728 31.384 49.7848 31.24 48.4088 30.952C47.0328 30.664 45.8328 30.168 44.8088 29.464C43.7848 28.76 42.9688 27.832 42.3608 26.68C41.7848 25.496 41.4968 24.04 41.4968 22.312C41.4968 20.744 41.7368 19.208 42.2168 17.704C42.7288 16.2 43.5608 14.872 44.7128 13.72C45.8968 12.536 47.4648 11.592 49.4168 10.888C51.4008 10.184 53.8648 9.832 56.8088 9.832C60.0088 9.832 62.4088 10.328 64.0088 11.32C65.6408 12.312 66.4568 13.864 66.4568 15.976C66.4568 16.84 66.3288 17.784 66.0728 18.808C65.8168 19.8 65.4328 20.648 64.9208 21.352H51.4328ZM57.8168 15.64C57.8168 14.648 57.6568 13.976 57.3368 13.624C57.0168 13.272 56.6328 13.096 56.1848 13.096C55.6728 13.096 55.1928 13.272 54.7448 13.624C54.3288 13.944 53.9448 14.392 53.5928 14.968C53.2408 15.512 52.9208 16.152 52.6328 16.888C52.3448 17.592 52.1048 18.344 51.9128 19.144H57.3848C57.4488 18.76 57.5128 18.36 57.5768 17.944C57.6408 17.592 57.6888 17.208 57.7208 16.792C57.7848 16.376 57.8168 15.992 57.8168 15.64ZM82.8863 0.519998H93.3023L87.6383 26.968H97.3823L96.5663 31H76.4062L82.8863 0.519998ZM113.792 9.832C117.6 9.832 120.368 10.504 122.096 11.848C123.92 13.256 124.832 15.592 124.832 18.856C124.832 20.872 124.496 22.696 123.824 24.328C123.152 25.928 122.208 27.256 120.992 28.312C118.56 30.36 115.04 31.384 110.432 31.384C106.496 31.384 103.68 30.632 101.984 29.128C100.16 27.56 99.2479 25.208 99.2479 22.072C99.2479 19.992 99.6639 18.104 100.496 16.408C101.36 14.712 102.592 13.304 104.192 12.184C106.528 10.616 109.728 9.832 113.792 9.832ZM110.528 28.12C111.328 28.12 112.016 27.672 112.592 26.776C113.2 25.88 113.68 24.792 114.032 23.512C114.384 22.2 114.64 20.856 114.8 19.48C114.992 18.072 115.088 16.856 115.088 15.832C115.088 14.936 114.992 14.264 114.8 13.816C114.64 13.336 114.272 13.096 113.696 13.096C112.832 13.096 112.08 13.56 111.44 14.488C110.832 15.416 110.336 16.52 109.952 17.8C109.568 19.08 109.28 20.392 109.088 21.736C108.928 23.08 108.848 24.168 108.848 25C108.848 27.08 109.408 28.12 110.528 28.12ZM127.026 10.36H137.202L139.17 24.472L146.178 10.36H151.266L140.37 31H130.338L127.026 10.36ZM159.995 21.352C159.867 22.056 159.771 22.728 159.707 23.368C159.675 24.008 159.659 24.584 159.659 25.096C159.659 25.384 159.675 25.704 159.707 26.056C159.739 26.408 159.803 26.744 159.899 27.064C160.027 27.352 160.187 27.608 160.379 27.832C160.603 28.024 160.907 28.12 161.291 28.12C161.579 28.12 161.899 28.024 162.251 27.832C162.635 27.64 163.003 27.368 163.355 27.016C163.739 26.664 164.091 26.232 164.411 25.72C164.763 25.208 165.035 24.632 165.227 23.992H173.099L171.851 29.128C171.211 29.544 170.475 29.896 169.643 30.184C168.811 30.472 167.931 30.712 167.003 30.904C166.075 31.064 165.131 31.176 164.171 31.24C163.211 31.336 162.299 31.384 161.435 31.384C159.835 31.384 158.347 31.24 156.971 30.952C155.595 30.664 154.395 30.168 153.371 29.464C152.347 28.76 151.531 27.832 150.923 26.68C150.347 25.496 150.059 24.04 150.059 22.312C150.059 20.744 150.299 19.208 150.779 17.704C151.291 16.2 152.123 14.872 153.275 13.72C154.459 12.536 156.027 11.592 157.979 10.888C159.963 10.184 162.427 9.832 165.371 9.832C168.571 9.832 170.971 10.328 172.571 11.32C174.203 12.312 175.019 13.864 175.019 15.976C175.019 16.84 174.891 17.784 174.635 18.808C174.379 19.8 173.995 20.648 173.483 21.352H159.995ZM166.379 15.64C166.379 14.648 166.219 13.976 165.899 13.624C165.579 13.272 165.195 13.096 164.747 13.096C164.235 13.096 163.755 13.272 163.307 13.624C162.891 13.944 162.507 14.392 162.155 14.968C161.803 15.512 161.483 16.152 161.195 16.888C160.907 17.592 160.667 18.344 160.475 19.144H165.947C166.011 18.76 166.075 18.36 166.139 17.944C166.203 17.592 166.251 17.208 166.283 16.792C166.347 16.376 166.379 15.992 166.379 15.64ZM211.609 31H201.241L204.121 17.416H198.217L195.337 31H184.969L191.449 0.519998H201.865L199.033 13.768H204.889L207.721 0.519998H218.185L211.609 31ZM227.12 21.352C226.992 22.056 226.896 22.728 226.832 23.368C226.8 24.008 226.784 24.584 226.784 25.096C226.784 25.384 226.8 25.704 226.832 26.056C226.864 26.408 226.928 26.744 227.024 27.064C227.152 27.352 227.312 27.608 227.504 27.832C227.728 28.024 228.032 28.12 228.416 28.12C228.704 28.12 229.024 28.024 229.376 27.832C229.76 27.64 230.128 27.368 230.48 27.016C230.864 26.664 231.216 26.232 231.536 25.72C231.888 25.208 232.16 24.632 232.352 23.992H240.224L238.976 29.128C238.336 29.544 237.6 29.896 236.768 30.184C235.936 30.472 235.056 30.712 234.128 30.904C233.2 31.064 232.256 31.176 231.296 31.24C230.336 31.336 229.424 31.384 228.56 31.384C226.96 31.384 225.472 31.24 224.096 30.952C222.72 30.664 221.52 30.168 220.496 29.464C219.472 28.76 218.656 27.832 218.048 26.68C217.472 25.496 217.184 24.04 217.184 22.312C217.184 20.744 217.424 19.208 217.904 17.704C218.416 16.2 219.248 14.872 220.4 13.72C221.584 12.536 223.152 11.592 225.104 10.888C227.088 10.184 229.552 9.832 232.496 9.832C235.696 9.832 238.096 10.328 239.696 11.32C241.328 12.312 242.144 13.864 242.144 15.976C242.144 16.84 242.016 17.784 241.76 18.808C241.504 19.8 241.12 20.648 240.608 21.352H227.12ZM233.504 15.64C233.504 14.648 233.344 13.976 233.024 13.624C232.704 13.272 232.32 13.096 231.872 13.096C231.36 13.096 230.88 13.272 230.432 13.624C230.016 13.944 229.632 14.392 229.28 14.968C228.928 15.512 228.608 16.152 228.32 16.888C228.032 17.592 227.792 18.344 227.6 19.144H233.072C233.136 18.76 233.2 18.36 233.264 17.944C233.328 17.592 233.376 17.208 233.408 16.792C233.472 16.376 233.504 15.992 233.504 15.64ZM246.362 12.136C247.994 11.336 249.658 10.76 251.354 10.408C253.082 10.024 255.002 9.832 257.114 9.832C259.162 9.832 260.858 9.992 262.202 10.312C263.546 10.632 264.618 11.096 265.418 11.704C266.218 12.312 266.778 13.032 267.098 13.864C267.418 14.696 267.578 15.64 267.578 16.696C267.578 17.304 267.53 17.96 267.434 18.664C267.37 19.368 267.29 19.96 267.194 20.44L264.938 31H257.21L256.346 27.928H256.058C255.034 29.048 253.834 29.912 252.458 30.52C251.114 31.096 249.77 31.384 248.426 31.384C247.658 31.384 246.906 31.272 246.17 31.048C245.434 30.824 244.778 30.488 244.202 30.04C243.626 29.56 243.162 28.968 242.81 28.264C242.458 27.528 242.282 26.648 242.282 25.624C242.282 23.96 242.73 22.648 243.626 21.688C244.554 20.696 245.754 19.96 247.226 19.48C248.73 18.968 250.41 18.648 252.266 18.52C254.154 18.392 256.042 18.328 257.93 18.328C257.994 18.008 258.074 17.56 258.17 16.984C258.266 16.376 258.314 15.848 258.314 15.4C258.314 14.824 258.154 14.296 257.834 13.816C257.546 13.304 256.922 13.048 255.962 13.048C254.842 13.048 254.01 13.384 253.466 14.056C252.954 14.696 252.618 15.48 252.458 16.408H245.45L246.362 12.136ZM257.402 20.584H256.538C255.61 20.584 254.81 20.712 254.138 20.968C253.498 21.192 252.97 21.496 252.554 21.88C252.17 22.264 251.882 22.696 251.69 23.176C251.498 23.656 251.402 24.136 251.402 24.616C251.402 25.384 251.594 25.96 251.978 26.344C252.394 26.728 252.874 26.92 253.418 26.92C254.09 26.92 254.746 26.68 255.386 26.2C256.058 25.72 256.474 25.08 256.634 24.28L257.402 20.584ZM273.279 10.36H281.103L281.823 13.96H282.159C282.895 12.808 283.839 11.832 284.991 11.032C286.143 10.232 287.663 9.832 289.551 9.832C289.679 9.832 289.871 9.848 290.127 9.88C290.415 9.88 290.719 9.928 291.039 10.024C291.391 10.088 291.743 10.2 292.095 10.36C292.479 10.488 292.847 10.68 293.199 10.936L291.087 20.824H285.855C285.791 18.84 285.615 17.464 285.327 16.696C285.039 15.896 284.575 15.496 283.935 15.496C283.615 15.496 283.263 15.576 282.879 15.736C282.527 15.864 282.159 16.168 281.775 16.648L278.703 31H268.911L273.279 10.36ZM301.858 31H292.114L296.482 10.36H306.322L301.858 31ZM307.57 4.072C307.57 4.808 307.41 5.448 307.09 5.992C306.802 6.536 306.402 7 305.89 7.384C305.41 7.768 304.85 8.056 304.21 8.248C303.57 8.44 302.914 8.536 302.242 8.536C300.962 8.536 299.89 8.232 299.026 7.624C298.162 7.016 297.73 6.056 297.73 4.744C297.73 4.04 297.874 3.416 298.162 2.872C298.45 2.296 298.834 1.832 299.314 1.48C299.826 1.096 300.402 0.807999 301.042 0.615999C301.714 0.423998 302.402 0.327997 303.106 0.327997C304.354 0.327997 305.41 0.631998 306.274 1.24C307.138 1.848 307.57 2.792 307.57 4.072ZM319.52 13.432C320.192 12.792 320.944 12.2 321.776 11.656C322.512 11.208 323.376 10.792 324.368 10.408C325.36 10.024 326.464 9.832 327.68 9.832C329.344 9.832 330.72 10.264 331.808 11.128C332.896 11.96 333.44 13.112 333.44 14.584C333.44 15 333.392 15.512 333.296 16.12C333.2 16.696 333.088 17.304 332.96 17.944C332.832 18.584 332.688 19.24 332.528 19.912C332.4 20.552 332.288 21.128 332.192 21.64L330.176 31H320.432L323.072 18.472C323.136 18.056 323.216 17.64 323.312 17.224C323.408 16.776 323.456 16.376 323.456 16.024C323.456 15.544 323.328 15.16 323.072 14.872C322.848 14.552 322.496 14.392 322.016 14.392C321.44 14.392 320.88 14.6 320.336 15.016C319.824 15.432 319.424 15.784 319.136 16.072L315.968 31H306.176L310.544 10.36H318.368L319.232 13.432H319.52ZM354.365 10.36H362.141L358.205 29.032C357.917 30.472 357.437 31.8 356.765 33.016C356.093 34.232 355.149 35.288 353.933 36.184C352.749 37.08 351.245 37.784 349.421 38.296C347.629 38.808 345.437 39.064 342.845 39.064C342.365 39.064 341.789 39.048 341.117 39.016C340.445 39.016 339.757 39 339.053 38.968C338.349 38.968 337.677 38.952 337.037 38.92C336.397 38.888 335.885 38.856 335.501 38.824L336.413 35.368C337.437 35.528 338.477 35.608 339.533 35.608C340.621 35.64 341.549 35.656 342.317 35.656C343.277 35.656 344.077 35.56 344.717 35.368C345.389 35.208 345.933 34.936 346.349 34.552C346.797 34.168 347.149 33.656 347.405 33.016C347.693 32.376 347.917 31.592 348.077 30.664L348.653 27.544H348.317C348.125 27.832 347.837 28.184 347.453 28.6C347.101 28.984 346.637 29.368 346.061 29.752C345.485 30.104 344.797 30.408 343.997 30.664C343.229 30.888 342.349 31 341.357 31C340.237 31 339.277 30.84 338.477 30.52C337.709 30.168 337.085 29.704 336.605 29.128C336.125 28.52 335.773 27.816 335.549 27.016C335.325 26.184 335.213 25.288 335.213 24.328C335.213 23.912 335.245 23.272 335.309 22.408C335.373 21.544 335.517 20.568 335.741 19.48C335.997 18.392 336.349 17.288 336.797 16.168C337.277 15.016 337.901 13.976 338.669 13.048C339.469 12.12 340.445 11.352 341.597 10.744C342.781 10.136 344.205 9.832 345.869 9.832C346.381 9.832 346.941 9.88 347.549 9.976C348.157 10.072 348.749 10.248 349.325 10.504C349.901 10.76 350.413 11.128 350.861 11.608C351.309 12.088 351.661 12.712 351.917 13.48H352.205L354.365 10.36ZM348.989 14.536C348.221 14.536 347.581 14.952 347.069 15.784C346.557 16.584 346.141 17.528 345.821 18.616C345.501 19.704 345.261 20.792 345.101 21.88C344.973 22.936 344.909 23.72 344.909 24.232C344.909 24.872 345.005 25.416 345.197 25.864C345.421 26.28 345.805 26.488 346.349 26.488C346.669 26.488 346.973 26.408 347.261 26.248C347.581 26.088 347.869 25.912 348.125 25.72C348.413 25.496 348.653 25.272 348.845 25.048C349.069 24.824 349.229 24.648 349.325 24.52L351.101 16.12C350.845 15.768 350.541 15.416 350.189 15.064C349.869 14.712 349.469 14.536 348.989 14.536ZM378.199 0.519998H398.407L397.639 4.168H387.799L385.927 12.952H394.135L393.367 16.648H385.159L382.087 31H371.719L378.199 0.519998ZM398.107 10.36H405.931L406.651 13.96H406.987C407.723 12.808 408.667 11.832 409.819 11.032C410.971 10.232 412.491 9.832 414.379 9.832C414.507 9.832 414.699 9.848 414.955 9.88C415.243 9.88 415.547 9.928 415.867 10.024C416.219 10.088 416.571 10.2 416.923 10.36C417.307 10.488 417.675 10.68 418.027 10.936L415.915 20.824H410.683C410.619 18.84 410.443 17.464 410.155 16.696C409.867 15.896 409.403 15.496 408.763 15.496C408.443 15.496 408.091 15.576 407.707 15.736C407.355 15.864 406.987 16.168 406.603 16.648L403.531 31H393.739L398.107 10.36ZM432.542 9.832C436.35 9.832 439.118 10.504 440.846 11.848C442.67 13.256 443.582 15.592 443.582 18.856C443.582 20.872 443.246 22.696 442.574 24.328C441.902 25.928 440.958 27.256 439.742 28.312C437.31 30.36 433.79 31.384 429.182 31.384C425.246 31.384 422.43 30.632 420.734 29.128C418.91 27.56 417.998 25.208 417.998 22.072C417.998 19.992 418.414 18.104 419.246 16.408C420.11 14.712 421.342 13.304 422.942 12.184C425.278 10.616 428.478 9.832 432.542 9.832ZM429.278 28.12C430.078 28.12 430.766 27.672 431.342 26.776C431.95 25.88 432.43 24.792 432.782 23.512C433.134 22.2 433.39 20.856 433.55 19.48C433.742 18.072 433.838 16.856 433.838 15.832C433.838 14.936 433.742 14.264 433.55 13.816C433.39 13.336 433.022 13.096 432.446 13.096C431.582 13.096 430.83 13.56 430.19 14.488C429.582 15.416 429.086 16.52 428.702 17.8C428.318 19.08 428.03 20.392 427.838 21.736C427.678 23.08 427.598 24.168 427.598 25C427.598 27.08 428.158 28.12 429.278 28.12ZM457.895 13.432C458.567 12.792 459.319 12.2 460.151 11.656C460.887 11.208 461.767 10.792 462.791 10.408C463.815 10.024 464.967 9.832 466.247 9.832C467.783 9.832 468.919 10.184 469.655 10.888C470.423 11.592 470.855 12.456 470.951 13.48H471.239C471.975 12.808 472.775 12.2 473.639 11.656C474.375 11.208 475.239 10.792 476.231 10.408C477.223 10.024 478.279 9.832 479.399 9.832C481.063 9.832 482.407 10.296 483.431 11.224C484.487 12.12 485.015 13.288 485.015 14.728C485.015 15.464 484.887 16.44 484.631 17.656C484.375 18.872 484.087 20.2 483.767 21.64L481.751 31H472.295L474.887 18.472C474.983 17.992 475.079 17.528 475.175 17.08C475.271 16.632 475.319 16.264 475.319 15.976C475.319 15.528 475.191 15.16 474.935 14.872C474.679 14.552 474.311 14.392 473.831 14.392C473.223 14.392 472.647 14.616 472.103 15.064C471.591 15.48 471.191 15.832 470.903 16.12L467.783 31H458.807L461.447 18.472C461.511 18.056 461.591 17.64 461.687 17.224C461.783 16.776 461.831 16.376 461.831 16.024C461.831 15.544 461.703 15.16 461.447 14.872C461.223 14.552 460.871 14.392 460.391 14.392C459.815 14.392 459.255 14.6 458.711 15.016C458.199 15.432 457.799 15.784 457.511 16.072L454.343 31H444.551L448.919 10.36H456.743L457.607 13.432H457.895ZM512.735 19.48L510.287 31H499.871L502.511 18.664L497.807 0.519998H509.327L512.591 12.568L519.791 0.519998H524.975L512.735 19.48ZM533.604 9.832C537.412 9.832 540.18 10.504 541.908 11.848C543.732 13.256 544.644 15.592 544.644 18.856C544.644 20.872 544.308 22.696 543.636 24.328C542.964 25.928 542.02 27.256 540.804 28.312C538.372 30.36 534.852 31.384 530.244 31.384C526.308 31.384 523.492 30.632 521.796 29.128C519.972 27.56 519.06 25.208 519.06 22.072C519.06 19.992 519.476 18.104 520.308 16.408C521.172 14.712 522.404 13.304 524.004 12.184C526.34 10.616 529.54 9.832 533.604 9.832ZM530.34 28.12C531.14 28.12 531.828 27.672 532.404 26.776C533.012 25.88 533.492 24.792 533.844 23.512C534.196 22.2 534.452 20.856 534.612 19.48C534.804 18.072 534.9 16.856 534.9 15.832C534.9 14.936 534.804 14.264 534.612 13.816C534.452 13.336 534.084 13.096 533.508 13.096C532.644 13.096 531.892 13.56 531.252 14.488C530.644 15.416 530.148 16.52 529.764 17.8C529.38 19.08 529.092 20.392 528.9 21.736C528.74 23.08 528.66 24.168 528.66 25C528.66 27.08 529.22 28.12 530.34 28.12ZM563.998 10.36H573.79L569.374 31H561.598L560.734 27.928H560.446C559.614 28.92 558.478 29.752 557.038 30.424C555.63 31.064 554.206 31.384 552.766 31.384C550.846 31.384 549.342 30.904 548.254 29.944C547.166 28.952 546.622 27.672 546.622 26.104C546.622 25.304 546.75 24.312 547.006 23.128C547.294 21.912 547.55 20.776 547.774 19.72L549.79 10.36H559.534L557.134 21.592C557.07 21.848 557.006 22.152 556.942 22.504C556.878 22.856 556.814 23.208 556.75 23.56C556.686 23.88 556.622 24.2 556.558 24.52C556.526 24.808 556.51 25.048 556.51 25.24C556.51 25.72 556.606 26.136 556.798 26.488C557.022 26.808 557.406 26.968 557.95 26.968C558.526 26.968 559.07 26.776 559.582 26.392C560.094 26.008 560.494 25.64 560.782 25.288L563.998 10.36Z" fill="#00F0FF"/>
</svg>
