<svg width="296" height="57" viewBox="0 0 296 57" fill="none" xmlns="http://www.w3.org/2000/svg">
<path d="M69.4648 54.6858C69.4041 54.6858 69.4041 54.6252 69.3434 54.5645C69.3434 54.5038 69.3434 54.4431 69.3434 54.3218V53.9577C69.3434 53.7756 69.2827 53.6543 69.222 53.5329C69.1614 53.4723 69.1007 53.4116 69.04 53.4116C69.1614 53.3509 69.222 53.2902 69.2827 53.1689C69.3434 53.0475 69.4041 52.8655 69.4041 52.6834C69.4041 52.3194 69.222 52.0766 68.9186 51.9553C68.7366 51.8946 68.5545 51.8339 68.3118 51.8339H66.9767H66.916V51.8946V54.8679V54.9285H66.9767H67.4015H67.4622V54.8679V53.6543H68.3118C68.4331 53.6543 68.5545 53.6543 68.6152 53.715C68.7366 53.7756 68.7972 53.897 68.7972 54.0184V54.5038C68.7972 54.6252 68.7972 54.6858 68.7972 54.7465C68.7972 54.8072 68.7972 54.8072 68.8579 54.8679V54.9285H68.9186H69.4041H69.4648V54.8679V54.8072V54.6858ZM68.7366 53.0475C68.6152 53.1082 68.4938 53.1689 68.3118 53.1689H67.4622V52.3194H68.3724C68.4938 52.3194 68.6152 52.3194 68.6759 52.38C68.7972 52.4407 68.8579 52.5621 68.8579 52.7441C68.8579 52.8655 68.7972 52.9868 68.7366 53.0475Z" fill="white"/>
<path d="M70.0716 51.4698C69.5255 50.9237 68.8579 50.681 68.1297 50.681C66.6125 50.681 65.3381 51.9552 65.3381 53.4722C65.3381 54.2003 65.6416 54.9285 66.1271 55.4139C66.6732 55.96 67.3408 56.2028 68.069 56.2028C68.7972 56.2028 69.5255 55.8994 70.0109 55.4139C70.5571 54.8678 70.7999 54.2003 70.7999 53.4722C70.8605 52.6834 70.5571 51.9552 70.0716 51.4698ZM68.069 55.7173C67.4621 55.7173 66.8553 55.4746 66.4305 55.0499C66.0057 54.6251 65.7629 54.0183 65.7629 53.4115C65.7629 52.8047 66.0057 52.1979 66.4305 51.7732C66.8553 51.3484 67.4621 51.1057 68.069 51.1057C68.6759 51.1057 69.2827 51.3484 69.7075 51.7732C70.1323 52.1979 70.3751 52.8047 70.3751 53.4115C70.3751 54.6858 69.3434 55.7173 68.069 55.7173Z" fill="white"/>
<path d="M11.8741 45.5235C13.634 46.0696 16.7896 45.9482 18.9743 45.1594L24.8001 43.0356V49.1642C24.436 49.2249 24.0112 49.2855 23.6471 49.3462C17.8213 50.3171 11.5707 49.8923 5.44141 47.8899C-0.263047 46.2516 -1.23402 42.9143 1.37547 40.9725C3.80289 39.2128 7.86884 37.8172 7.86884 37.8172L24.8001 31.8707V38.7274L12.6023 43.0963C10.4783 43.8851 10.1142 44.9773 11.8741 45.5235Z" fill="white"/>
<path d="M71.8315 43.1567C70.4357 44.9164 66.916 46.2513 66.916 46.2513L41.1246 55.4745V48.6178L60.1192 41.8218C62.3039 41.033 62.6073 39.9407 60.8474 39.3946C59.0875 38.8485 55.9319 38.9699 53.7472 39.7587L41.0639 44.2489V37.1495L41.7921 36.9068C41.7921 36.9068 45.4332 35.6325 50.5915 35.0257C55.7498 34.4796 62.0611 35.0864 66.9767 36.9675C72.6204 38.7878 73.288 41.3363 71.8315 43.1567Z" fill="white"/>
<path d="M43.6127 31.5065V14.0309C43.6127 11.9679 43.2486 10.0868 41.3066 9.5407C39.8502 9.05527 38.9399 10.4509 38.9399 12.4533V56.2634L27.1062 52.5014V0.317505C32.1431 1.22769 39.4254 3.47281 43.37 4.74706C53.3831 8.20576 56.7815 12.514 56.7815 22.1012C56.7815 31.5065 50.9557 35.0865 43.6127 31.5065Z" fill="white"/>
<path d="M141.348 7.59772C141.348 7.26959 141.41 6.961 141.535 6.67194C141.66 6.37506 141.832 6.12115 142.051 5.91022C142.27 5.69147 142.523 5.51959 142.812 5.39459C143.109 5.26178 143.422 5.19537 143.75 5.19537H152.867C153.195 5.19537 153.504 5.26178 153.793 5.39459C154.09 5.51959 154.348 5.69147 154.566 5.91022C154.785 6.12115 154.957 6.37506 155.082 6.67194C155.207 6.961 155.27 7.26959 155.27 7.59772V9.76569H152.867V7.59772H143.75V19.5977H152.867V17.4415H155.27V19.5977C155.27 19.9258 155.207 20.2383 155.082 20.5352C154.957 20.8243 154.785 21.0782 154.566 21.2969C154.348 21.5157 154.09 21.6876 153.793 21.8126C153.504 21.9376 153.195 22.0001 152.867 22.0001H143.75C143.422 22.0001 143.109 21.9376 142.812 21.8126C142.523 21.6876 142.27 21.5157 142.051 21.2969C141.832 21.0782 141.66 20.8243 141.535 20.5352C141.41 20.2383 141.348 19.9258 141.348 19.5977V7.59772ZM173.539 5.19537V22.0001H171.137V14.8047H161.516V22.0001H159.113V5.19537H161.516V12.4024H171.137V5.19537H173.539ZM185.305 5.19537L191.785 22.0001H189.383L187.895 18.1329H180.312L178.824 22.0001H176.422L182.902 5.19537H185.305ZM181.227 15.7305H186.969L184.109 8.32428L181.227 15.7305ZM197.07 22.0001H194.668V5.19537H197.07L207.172 18.2266V5.19537H209.574V22.0001H207.172L197.07 8.96881V22.0001ZM213.887 7.59772C213.887 7.26959 213.949 6.961 214.074 6.67194C214.199 6.37506 214.371 6.12115 214.59 5.91022C214.809 5.69147 215.062 5.51959 215.352 5.39459C215.648 5.26178 215.961 5.19537 216.289 5.19537H225.406C225.734 5.19537 226.043 5.26178 226.332 5.39459C226.629 5.51959 226.887 5.69147 227.105 5.91022C227.324 6.12115 227.496 6.37506 227.621 6.67194C227.746 6.961 227.809 7.26959 227.809 7.59772V9.76569H225.406V7.59772H216.289V19.5977H225.406V15.5196H220.848V13.1172H227.809V19.5977C227.809 19.9258 227.746 20.2383 227.621 20.5352C227.496 20.8243 227.324 21.0782 227.105 21.2969C226.887 21.5157 226.629 21.6876 226.332 21.8126C226.043 21.9376 225.734 22.0001 225.406 22.0001H216.289C215.961 22.0001 215.648 21.9376 215.352 21.8126C215.062 21.6876 214.809 21.5157 214.59 21.2969C214.371 21.0782 214.199 20.8243 214.074 20.5352C213.949 20.2383 213.887 19.9258 213.887 19.5977V7.59772ZM232.121 5.19537H244.367V7.59772H234.523V12.4024H242.926V14.8047H234.523V19.5977H244.367V22.0001H232.121V5.19537ZM122.445 50.0001V33.1954H131.645C134.363 33.1954 135.723 34.5587 135.723 37.2852V39.6758C135.723 42.4024 134.363 43.7657 131.645 43.7657H124.848V50.0001H122.445ZM124.848 41.3633H131.516C132.156 41.3633 132.617 41.2227 132.898 40.9415C133.18 40.6602 133.32 40.1993 133.32 39.5587V37.4024C133.32 36.7618 133.18 36.3008 132.898 36.0196C132.617 35.7383 132.156 35.5977 131.516 35.5977H124.848V41.3633ZM145.074 33.1954L151.555 50.0001H149.152L147.664 46.1329H140.082L138.594 50.0001H136.191L142.672 33.1954H145.074ZM140.996 43.7305H146.738L143.879 36.3243L140.996 43.7305ZM156.84 42.8047C156.512 42.8047 156.199 42.7422 155.902 42.6172C155.613 42.4844 155.359 42.3126 155.141 42.1016C154.922 41.8829 154.75 41.629 154.625 41.3399C154.5 41.043 154.438 40.7305 154.438 40.4024V35.5977C154.438 35.2696 154.5 34.961 154.625 34.6719C154.75 34.3751 154.922 34.1212 155.141 33.9102C155.359 33.6915 155.613 33.5196 155.902 33.3946C156.199 33.2618 156.512 33.1954 156.84 33.1954H164.996C165.324 33.1954 165.633 33.2618 165.922 33.3946C166.219 33.5196 166.477 33.6915 166.695 33.9102C166.914 34.1212 167.086 34.3751 167.211 34.6719C167.336 34.961 167.398 35.2696 167.398 35.5977V37.7657H164.996V35.5977H156.84V40.4024H164.996C165.324 40.4024 165.633 40.4649 165.922 40.5899C166.219 40.7149 166.477 40.8868 166.695 41.1055C166.914 41.3243 167.086 41.5821 167.211 41.879C167.336 42.168 167.398 42.4766 167.398 42.8047V47.5977C167.398 47.9258 167.336 48.2383 167.211 48.5352C167.086 48.8243 166.914 49.0782 166.695 49.2969C166.477 49.5157 166.219 49.6876 165.922 49.8126C165.633 49.9376 165.324 50.0001 164.996 50.0001H156.605C156.277 50.0001 155.965 49.9376 155.668 49.8126C155.379 49.6876 155.125 49.5157 154.906 49.2969C154.688 49.0782 154.516 48.8243 154.391 48.5352C154.266 48.2383 154.203 47.9258 154.203 47.5977V45.4415H156.605V47.5977H164.996V42.8047H156.84ZM174.137 42.8047C173.809 42.8047 173.496 42.7422 173.199 42.6172C172.91 42.4844 172.656 42.3126 172.438 42.1016C172.219 41.8829 172.047 41.629 171.922 41.3399C171.797 41.043 171.734 40.7305 171.734 40.4024V35.5977C171.734 35.2696 171.797 34.961 171.922 34.6719C172.047 34.3751 172.219 34.1212 172.438 33.9102C172.656 33.6915 172.91 33.5196 173.199 33.3946C173.496 33.2618 173.809 33.1954 174.137 33.1954H182.293C182.621 33.1954 182.93 33.2618 183.219 33.3946C183.516 33.5196 183.773 33.6915 183.992 33.9102C184.211 34.1212 184.383 34.3751 184.508 34.6719C184.633 34.961 184.695 35.2696 184.695 35.5977V37.7657H182.293V35.5977H174.137V40.4024H182.293C182.621 40.4024 182.93 40.4649 183.219 40.5899C183.516 40.7149 183.773 40.8868 183.992 41.1055C184.211 41.3243 184.383 41.5821 184.508 41.879C184.633 42.168 184.695 42.4766 184.695 42.8047V47.5977C184.695 47.9258 184.633 48.2383 184.508 48.5352C184.383 48.8243 184.211 49.0782 183.992 49.2969C183.773 49.5157 183.516 49.6876 183.219 49.8126C182.93 49.9376 182.621 50.0001 182.293 50.0001H173.902C173.574 50.0001 173.262 49.9376 172.965 49.8126C172.676 49.6876 172.422 49.5157 172.203 49.2969C171.984 49.0782 171.812 48.8243 171.688 48.5352C171.562 48.2383 171.5 47.9258 171.5 47.5977V45.4415H173.902V47.5977H182.293V42.8047H174.137ZM192.395 50.0001L187.59 33.1954H189.992L193.719 46.5665L197.434 33.1954H199.836L203.551 46.5665L207.277 33.1954H209.68L204.875 50.0001H202.238L198.641 37.4024L195.031 50.0001H192.395ZM226.965 47.5977C226.965 47.9258 226.902 48.2383 226.777 48.5352C226.652 48.8243 226.48 49.0782 226.262 49.2969C226.043 49.5157 225.785 49.6876 225.488 49.8126C225.199 49.9376 224.891 50.0001 224.562 50.0001H214.965C214.637 50.0001 214.324 49.9376 214.027 49.8126C213.738 49.6876 213.484 49.5157 213.266 49.2969C213.047 49.0782 212.875 48.8243 212.75 48.5352C212.625 48.2383 212.562 47.9258 212.562 47.5977V35.5977C212.562 35.2696 212.625 34.961 212.75 34.6719C212.875 34.3751 213.047 34.1212 213.266 33.9102C213.484 33.6915 213.738 33.5196 214.027 33.3946C214.324 33.2618 214.637 33.1954 214.965 33.1954H224.562C224.891 33.1954 225.199 33.2618 225.488 33.3946C225.785 33.5196 226.043 33.6915 226.262 33.9102C226.48 34.1212 226.652 34.3751 226.777 34.6719C226.902 34.961 226.965 35.2696 226.965 35.5977V47.5977ZM214.965 35.5977V47.5977H224.562V35.5977H214.965ZM244.566 39.1954C244.566 41.5391 243.566 42.8751 241.566 43.2032L244.73 50.0001H242.07L238.953 43.2852H233.691V50.0001H231.289V33.1954H240.488C243.207 33.1954 244.566 34.5587 244.566 37.2852V39.1954ZM233.691 40.8829H240.359C241 40.8829 241.461 40.7422 241.742 40.461C242.023 40.1797 242.164 39.7188 242.164 39.0782V37.4024C242.164 36.7618 242.023 36.3008 241.742 36.0196C241.461 35.7383 241 35.5977 240.359 35.5977H233.691V40.8829ZM257.129 47.5977C258.246 47.5977 259.105 47.2969 259.707 46.6954C260.309 46.0938 260.609 45.2344 260.609 44.1172V39.0782C260.609 38.5313 260.531 38.043 260.375 37.6133C260.219 37.1837 259.988 36.8204 259.684 36.5235C259.387 36.2188 259.023 35.9883 258.594 35.8321C258.164 35.6758 257.676 35.5977 257.129 35.5977H250.988V47.5977H257.129ZM248.586 50.0001V33.1954H257.129C258.027 33.1954 258.836 33.336 259.555 33.6172C260.281 33.8907 260.898 34.2852 261.406 34.8008C261.922 35.3087 262.316 35.9258 262.59 36.6524C262.871 37.379 263.012 38.1876 263.012 39.0782V44.1172C263.012 45.0079 262.871 45.8165 262.59 46.543C262.316 47.2696 261.922 47.8907 261.406 48.4063C260.898 48.9141 260.281 49.3087 259.555 49.5899C258.836 49.8633 258.027 50.0001 257.129 50.0001H248.586Z" fill="#F3FEFF"/>
</svg>
