<svg width="284" height="55" viewBox="0 0 284 55" fill="none" xmlns="http://www.w3.org/2000/svg">
<path d="M157.105 22.5469H169.351V24.9493H159.507V29.754H167.91V32.1563H159.507V39.3516H157.105V22.5469ZM178.961 22.5469L185.441 39.3516H183.039L181.55 35.4844H173.968L172.48 39.3516H170.078L176.558 22.5469H178.961ZM174.882 33.0821H180.625L177.765 25.6758L174.882 33.0821ZM188.324 24.9493C188.324 24.6212 188.386 24.3126 188.511 24.0235C188.636 23.7266 188.808 23.4727 189.027 23.2618C189.246 23.043 189.5 22.8712 189.789 22.7462C190.086 22.6133 190.398 22.5469 190.726 22.5469H199.843C200.172 22.5469 200.48 22.6133 200.769 22.7462C201.066 22.8712 201.324 23.043 201.543 23.2618C201.761 23.4727 201.933 23.7266 202.058 24.0235C202.183 24.3126 202.246 24.6212 202.246 24.9493V27.1172H199.843V24.9493H190.726V36.9493H199.843V32.8712H195.285V30.4688H202.246V36.9493C202.246 37.2774 202.183 37.5899 202.058 37.8868C201.933 38.1758 201.761 38.4297 201.543 38.6485C201.324 38.8672 201.066 39.0391 200.769 39.1641C200.48 39.2891 200.172 39.3516 199.843 39.3516H190.726C190.398 39.3516 190.086 39.2891 189.789 39.1641C189.5 39.0391 189.246 38.8672 189.027 38.6485C188.808 38.4297 188.636 38.1758 188.511 37.8868C188.386 37.5899 188.324 37.2774 188.324 36.9493V24.9493Z" fill="#F3FEFF"/>
<path d="M25.1923 4.5592C34.8307 3.05115 44.4963 1.63995 54.1619 0.270264C54.1619 8.90347 54.1619 17.5228 54.1619 26.156C44.5099 26.1975 34.8579 26.3497 25.1923 26.3774C25.1787 19.1001 25.1787 11.8227 25.1923 4.5592Z" fill="white"/>
<path d="M0.702454 8.03214C7.96523 6.89765 15.2552 5.91535 22.5451 4.97455C22.5451 12.1274 22.5451 19.2802 22.5587 26.433C15.2687 26.433 7.99238 26.5437 0.702454 26.5161V8.03214Z" fill="white"/>
<path d="M0.702454 28.7844C7.97881 28.7568 15.2552 28.8813 22.5451 28.8674C22.5451 36.0479 22.5587 43.2146 22.5451 50.3951C15.2687 49.2883 7.99238 48.3337 0.702454 47.3237V28.7844Z" fill="white"/>
<path d="M25.1515 29.0749C34.8307 29.0749 44.4963 29.0749 54.1619 29.0749C54.1755 37.6805 54.1619 46.286 54.1619 54.8915C44.5234 53.425 34.8578 52.0553 25.1923 50.7133C25.1787 43.5051 25.1651 36.2831 25.1515 29.0749Z" fill="white"/>
</svg>
