<svg width="338" height="51" viewBox="0 0 338 51" fill="none" xmlns="http://www.w3.org/2000/svg">
<path d="M92.8904 21.5977C92.8904 21.2696 92.9529 20.961 93.0779 20.6719C93.2029 20.3751 93.3748 20.1212 93.5935 19.9102C93.8123 19.6915 94.0662 19.5196 94.3552 19.3946C94.6521 19.2618 94.9646 19.1954 95.2927 19.1954H104.41C104.738 19.1954 105.047 19.2618 105.336 19.3946C105.633 19.5196 105.89 19.6915 106.109 19.9102C106.328 20.1212 106.5 20.3751 106.625 20.6719C106.75 20.961 106.812 21.2696 106.812 21.5977V23.7657H104.41V21.5977H95.2927V33.5977H104.41V31.4415H106.812V33.5977C106.812 33.9258 106.75 34.2383 106.625 34.5352C106.5 34.8243 106.328 35.0782 106.109 35.2969C105.89 35.5157 105.633 35.6876 105.336 35.8126C105.047 35.9376 104.738 36.0001 104.41 36.0001H95.2927C94.9646 36.0001 94.6521 35.9376 94.3552 35.8126C94.0662 35.6876 93.8123 35.5157 93.5935 35.2969C93.3748 35.0782 93.2029 34.8243 93.0779 34.5352C92.9529 34.2383 92.8904 33.9258 92.8904 33.5977V21.5977ZM125.058 33.5977C125.058 33.9258 124.996 34.2383 124.871 34.5352C124.746 34.8243 124.574 35.0782 124.355 35.2969C124.136 35.5157 123.879 35.6876 123.582 35.8126C123.293 35.9376 122.984 36.0001 122.656 36.0001H113.058C112.73 36.0001 112.418 35.9376 112.121 35.8126C111.832 35.6876 111.578 35.5157 111.359 35.2969C111.14 35.0782 110.969 34.8243 110.844 34.5352C110.719 34.2383 110.656 33.9258 110.656 33.5977V21.5977C110.656 21.2696 110.719 20.961 110.844 20.6719C110.969 20.3751 111.14 20.1212 111.359 19.9102C111.578 19.6915 111.832 19.5196 112.121 19.3946C112.418 19.2618 112.73 19.1954 113.058 19.1954H122.656C122.984 19.1954 123.293 19.2618 123.582 19.3946C123.879 19.5196 124.136 19.6915 124.355 19.9102C124.574 20.1212 124.746 20.3751 124.871 20.6719C124.996 20.961 125.058 21.2696 125.058 21.5977V33.5977ZM113.058 21.5977V33.5977H122.656V21.5977H113.058ZM131.785 36.0001H129.383V19.1954H131.785L141.886 32.2266V19.1954H144.289V36.0001H141.886L131.785 22.9688V36.0001ZM147.16 19.1954H160.601V21.5977H155.082V36.0001H152.679V21.5977H147.16V19.1954ZM169.004 19.1954L175.484 36.0001H173.082L171.594 32.1329H164.011L162.523 36.0001H160.121L166.601 19.1954H169.004ZM164.926 29.7305H170.668L167.808 22.3243L164.926 29.7305ZM178.367 21.5977C178.367 21.2696 178.429 20.961 178.554 20.6719C178.679 20.3751 178.851 20.1212 179.07 19.9102C179.289 19.6915 179.543 19.5196 179.832 19.3946C180.129 19.2618 180.441 19.1954 180.769 19.1954H189.886C190.215 19.1954 190.523 19.2618 190.812 19.3946C191.109 19.5196 191.367 19.6915 191.586 19.9102C191.804 20.1212 191.976 20.3751 192.101 20.6719C192.226 20.961 192.289 21.2696 192.289 21.5977V23.7657H189.886V21.5977H180.769V33.5977H189.886V31.4415H192.289V33.5977C192.289 33.9258 192.226 34.2383 192.101 34.5352C191.976 34.8243 191.804 35.0782 191.586 35.2969C191.367 35.5157 191.109 35.6876 190.812 35.8126C190.523 35.9376 190.215 36.0001 189.886 36.0001H180.769C180.441 36.0001 180.129 35.9376 179.832 35.8126C179.543 35.6876 179.289 35.5157 179.07 35.2969C178.851 35.0782 178.679 34.8243 178.554 34.5352C178.429 34.2383 178.367 33.9258 178.367 33.5977V21.5977ZM194.691 19.1954H208.133V21.5977H202.613V36.0001H200.211V21.5977H194.691V19.1954ZM220.613 28.8047C220.285 28.8047 219.972 28.7422 219.676 28.6172C219.386 28.4844 219.133 28.3126 218.914 28.1016C218.695 27.8829 218.523 27.629 218.398 27.3399C218.273 27.043 218.211 26.7305 218.211 26.4024V21.5977C218.211 21.2696 218.273 20.961 218.398 20.6719C218.523 20.3751 218.695 20.1212 218.914 19.9102C219.133 19.6915 219.386 19.5196 219.676 19.3946C219.972 19.2618 220.285 19.1954 220.613 19.1954H228.769C229.097 19.1954 229.406 19.2618 229.695 19.3946C229.992 19.5196 230.25 19.6915 230.469 19.9102C230.687 20.1212 230.859 20.3751 230.984 20.6719C231.109 20.961 231.172 21.2696 231.172 21.5977V23.7657H228.769V21.5977H220.613V26.4024H228.769C229.097 26.4024 229.406 26.4649 229.695 26.5899C229.992 26.7149 230.25 26.8868 230.469 27.1055C230.687 27.3243 230.859 27.5821 230.984 27.879C231.109 28.168 231.172 28.4766 231.172 28.8047V33.5977C231.172 33.9258 231.109 34.2383 230.984 34.5352C230.859 34.8243 230.687 35.0782 230.469 35.2969C230.25 35.5157 229.992 35.6876 229.695 35.8126C229.406 35.9376 229.097 36.0001 228.769 36.0001H220.379C220.051 36.0001 219.738 35.9376 219.441 35.8126C219.152 35.6876 218.898 35.5157 218.679 35.2969C218.461 35.0782 218.289 34.8243 218.164 34.5352C218.039 34.2383 217.976 33.9258 217.976 33.5977V31.4415H220.379V33.5977H228.769V28.8047H220.613ZM235.508 19.1954H237.91V33.5977H247.508V19.1954H249.91V33.5977C249.91 33.9258 249.847 34.2383 249.722 34.5352C249.597 34.8243 249.426 35.0782 249.207 35.2969C248.988 35.5157 248.73 35.6876 248.433 35.8126C248.144 35.9376 247.836 36.0001 247.508 36.0001H237.91C237.582 36.0001 237.269 35.9376 236.972 35.8126C236.683 35.6876 236.429 35.5157 236.211 35.2969C235.992 35.0782 235.82 34.8243 235.695 34.5352C235.57 34.2383 235.508 33.9258 235.508 33.5977V19.1954ZM254.234 36.0001V19.1954H263.433C266.152 19.1954 267.511 20.5587 267.511 23.2852V25.6758C267.511 28.4024 266.152 29.7657 263.433 29.7657H256.636V36.0001H254.234ZM256.636 27.3633H263.304C263.945 27.3633 264.406 27.2227 264.687 26.9415C264.969 26.6602 265.109 26.1993 265.109 25.5587V23.4024C265.109 22.7618 264.969 22.3008 264.687 22.0196C264.406 21.7383 263.945 21.5977 263.304 21.5977H256.636V27.3633ZM270.875 36.0001V19.1954H280.074C282.793 19.1954 284.152 20.5587 284.152 23.2852V25.6758C284.152 28.4024 282.793 29.7657 280.074 29.7657H273.277V36.0001H270.875ZM273.277 27.3633H279.945C280.586 27.3633 281.047 27.2227 281.328 26.9415C281.609 26.6602 281.75 26.1993 281.75 25.5587V23.4024C281.75 22.7618 281.609 22.3008 281.328 22.0196C281.047 21.7383 280.586 21.5977 279.945 21.5977H273.277V27.3633ZM301.918 33.5977C301.918 33.9258 301.855 34.2383 301.73 34.5352C301.605 34.8243 301.433 35.0782 301.215 35.2969C300.996 35.5157 300.738 35.6876 300.441 35.8126C300.152 35.9376 299.844 36.0001 299.515 36.0001H289.918C289.59 36.0001 289.277 35.9376 288.98 35.8126C288.691 35.6876 288.437 35.5157 288.219 35.2969C288 35.0782 287.828 34.8243 287.703 34.5352C287.578 34.2383 287.515 33.9258 287.515 33.5977V21.5977C287.515 21.2696 287.578 20.961 287.703 20.6719C287.828 20.3751 288 20.1212 288.219 19.9102C288.437 19.6915 288.691 19.5196 288.98 19.3946C289.277 19.2618 289.59 19.1954 289.918 19.1954H299.515C299.844 19.1954 300.152 19.2618 300.441 19.3946C300.738 19.5196 300.996 19.6915 301.215 19.9102C301.433 20.1212 301.605 20.3751 301.73 20.6719C301.855 20.961 301.918 21.2696 301.918 21.5977V33.5977ZM289.918 21.5977V33.5977H299.515V21.5977H289.918ZM319.519 25.1954C319.519 27.5391 318.519 28.8751 316.519 29.2032L319.683 36.0001H317.023L313.906 29.2852H308.644V36.0001H306.242V19.1954H315.441C318.16 19.1954 319.519 20.5587 319.519 23.2852V25.1954ZM308.644 26.8829H315.312C315.953 26.8829 316.414 26.7422 316.695 26.461C316.976 26.1797 317.117 25.7188 317.117 25.0782V23.4024C317.117 22.7618 316.976 22.3008 316.695 22.0196C316.414 21.7383 315.953 21.5977 315.312 21.5977H308.644V26.8829ZM322.097 19.1954H335.539V21.5977H330.019V36.0001H327.617V21.5977H322.097V19.1954Z" fill="#F3FEFF"/>
<path d="M7.4868 7.17741C7.4868 7.23929 7.42492 7.23929 7.4868 7.17741C2.84622 11.7561 0 18.0673 0 25.0591C0 30.7515 1.91811 36.0109 5.13557 40.2183C5.19745 40.2802 5.19745 40.2802 5.25932 40.2802C5.3212 40.2802 5.3212 40.2183 5.25932 40.1565C3.34122 34.2784 13.1174 19.9235 18.1292 13.9217L18.1911 13.8598C18.1911 13.798 18.1911 13.798 18.1292 13.798C9.71428 5.32118 7.42492 7.23929 7.4868 7.17741Z" fill="white"/>
<path d="M42.6315 7.17741C42.6315 7.23929 42.6315 7.23929 42.6315 7.17741C47.272 11.7561 50.1183 18.0673 50.1183 25.0591C50.1183 30.7515 48.2001 36.0109 44.9827 40.2183C44.9208 40.2802 44.9208 40.2802 44.8589 40.2802C44.7971 40.2802 44.7971 40.2183 44.8589 40.1565C46.777 34.2784 37.0009 19.9235 31.9891 13.9217L31.9272 13.8598C31.9272 13.798 31.9272 13.798 31.9891 13.798C40.404 5.32118 42.6933 7.23929 42.6315 7.17741Z" fill="white"/>
<path d="M25.0591 0C30.1328 0 34.2784 1.36124 38.1146 3.65059C38.1765 3.65059 38.1765 3.71246 38.1765 3.77434C38.1765 3.83621 38.1146 3.83621 38.0527 3.83621C33.2265 2.78435 25.8016 6.9918 25.121 7.42492C25.121 7.42492 25.121 7.42492 25.0591 7.42492H24.9973C23.141 6.37306 16.3348 2.78435 12.0655 3.89809C12.0036 3.89809 11.9418 3.89809 11.9418 3.83621C11.9418 3.77434 11.9418 3.71246 12.0036 3.71246C15.778 1.36124 19.9854 0 25.0591 0Z" fill="white"/>
<path d="M25.0591 20.1092C25.0591 20.1092 25.121 20.1092 25.121 20.1711C32.6078 25.8635 45.4777 39.9709 41.5177 43.9308C37.1246 47.767 31.3703 50.1183 25.0591 50.1183C18.7479 50.1183 12.9936 47.767 8.53867 43.9308C4.64058 39.9709 17.4486 25.8635 24.9354 20.1711C24.9972 20.1092 24.9972 20.1092 25.0591 20.1092Z" fill="white"/>
</svg>
