<svg width="121" height="30" viewBox="0 0 121 30" fill="none" xmlns="http://www.w3.org/2000/svg">
<rect x="-0.000244141" y="6.10352e-05" width="120.995" height="29.1285" rx="14" fill="#3E097A"/>
<path d="M41.1178 10.3697C40.8938 10.3137 40.6604 10.2624 40.4178 10.2157C40.2031 10.1691 39.9558 10.1317 39.6758 10.1037C39.4051 10.0664 39.1204 10.0477 38.8218 10.0477C38.1311 10.0477 37.6364 10.1551 37.3378 10.3697C37.0391 10.5751 36.8898 10.8971 36.8898 11.3357C36.8991 11.6811 37.0251 11.9751 37.2678 12.2177C37.5104 12.4511 37.8138 12.6704 38.1778 12.8757C38.5418 13.0717 38.9384 13.2677 39.3678 13.4637C39.8064 13.6504 40.2078 13.8697 40.5718 14.1217C40.9358 14.3644 41.2391 14.6537 41.4818 14.9897C41.7338 15.3164 41.8598 15.7177 41.8598 16.1937C41.8598 16.7444 41.7384 17.1877 41.4958 17.5237C41.2624 17.8597 40.9638 18.1211 40.5998 18.3077C40.2358 18.4944 39.8344 18.6204 39.3958 18.6857C38.9664 18.7511 38.5558 18.7837 38.1638 18.7837C37.7904 18.7837 37.4498 18.7604 37.1418 18.7137C36.8338 18.6671 36.5678 18.6157 36.3438 18.5597C36.0824 18.4944 35.8444 18.4197 35.6298 18.3357L35.9098 17.2017C36.1244 17.2951 36.3531 17.3744 36.5958 17.4397C36.8104 17.4957 37.0484 17.5471 37.3098 17.5937C37.5804 17.6404 37.8651 17.6637 38.1638 17.6637C38.5278 17.6637 38.8591 17.6404 39.1578 17.5937C39.4658 17.5471 39.7318 17.4724 39.9558 17.3697C40.1798 17.2671 40.3524 17.1317 40.4738 16.9637C40.6044 16.7957 40.6698 16.5904 40.6698 16.3477C40.6604 15.9837 40.5391 15.6897 40.3058 15.4657C40.0818 15.2324 39.7784 15.0131 39.3958 14.8077C39.0224 14.5931 38.6164 14.3877 38.1778 14.1917C37.7484 13.9957 37.3518 13.7717 36.9878 13.5197C36.6238 13.2677 36.3158 12.9691 36.0638 12.6237C35.8211 12.2784 35.6998 11.8491 35.6998 11.3357C35.6998 11.0371 35.7511 10.7431 35.8538 10.4537C35.9564 10.1644 36.1291 9.90773 36.3718 9.68373C36.6238 9.45973 36.9458 9.27773 37.3378 9.13773C37.7391 8.99773 38.2338 8.92773 38.8218 8.92773C39.1578 8.92773 39.4751 8.9464 39.7738 8.98373C40.0818 9.01173 40.3478 9.0444 40.5718 9.08173C40.8331 9.1284 41.0804 9.17973 41.3138 9.23573L41.1178 10.3697ZM43.6009 9.05373H49.4529V10.1317H44.7769V13.1837H49.1169V14.2337H44.7769V17.5237H49.5929V18.6017H43.6009V9.05373ZM53.8132 9.05373H55.2692L58.5452 18.6017H57.3272L56.4872 16.0537H52.6092L51.7552 18.6017H50.5372L53.8132 9.05373ZM56.1092 14.9337L54.5692 10.1737H54.5272L52.9732 14.9337H56.1092ZM60.0482 9.05373H62.4002C62.9135 9.05373 63.3802 9.1004 63.8002 9.19373C64.2295 9.27773 64.5935 9.42706 64.8922 9.64173C65.1908 9.84706 65.4195 10.1224 65.5782 10.4677C65.7368 10.8131 65.8162 11.2471 65.8162 11.7697C65.8068 12.3484 65.7088 12.8197 65.5222 13.1837C65.3355 13.5384 65.1068 13.8277 64.8362 14.0517C64.5655 14.2664 64.2528 14.4251 63.8982 14.5277V14.5557C63.9355 14.5931 63.9915 14.6631 64.0662 14.7657C64.1502 14.8591 64.2202 14.9431 64.2762 15.0177L66.9782 18.6017H65.5922L62.8202 14.8077H61.2242V18.6017H60.0482V9.05373ZM64.6262 11.9657C64.6262 11.5737 64.5748 11.2564 64.4722 11.0137C64.3788 10.7617 64.2342 10.5704 64.0382 10.4397C63.8515 10.3091 63.6182 10.2204 63.3382 10.1737C63.0582 10.1271 62.7408 10.1037 62.3862 10.1037H61.2242V13.7577H62.6102C62.9742 13.7577 63.2822 13.7111 63.5342 13.6177C63.7862 13.5244 63.9915 13.3984 64.1502 13.2397C64.3088 13.0717 64.4255 12.8804 64.5002 12.6657C64.5748 12.4511 64.6168 12.2177 64.6262 11.9657ZM74.5832 10.3977C74.3499 10.3231 74.1026 10.2577 73.8412 10.2017C73.5799 10.1364 73.2906 10.0851 72.9732 10.0477C72.6652 10.0011 72.3386 9.97773 71.9932 9.97773C71.4332 9.97773 70.9572 10.0991 70.5652 10.3417C70.1732 10.5844 69.8512 10.8971 69.5992 11.2797C69.3566 11.6531 69.1792 12.0731 69.0672 12.5397C68.9552 13.0064 68.8992 13.4684 68.8992 13.9257C68.8992 14.5044 68.9786 15.0317 69.1372 15.5077C69.3052 15.9744 69.5292 16.3757 69.8092 16.7117C70.0986 17.0384 70.4299 17.2904 70.8032 17.4677C71.1859 17.6451 71.5872 17.7337 72.0072 17.7337C72.3992 17.7337 72.7586 17.7151 73.0852 17.6777C73.4119 17.6311 73.6919 17.5844 73.9252 17.5377C74.1959 17.4817 74.4386 17.4164 74.6532 17.3417L74.8912 18.3357C74.6392 18.4197 74.3592 18.4944 74.0512 18.5597C73.7899 18.6157 73.4866 18.6671 73.1412 18.7137C72.7959 18.7604 72.4179 18.7837 72.0072 18.7837C71.2699 18.7837 70.6212 18.6624 70.0612 18.4197C69.5106 18.1771 69.0486 17.8411 68.6752 17.4117C68.3112 16.9731 68.0359 16.4597 67.8492 15.8717C67.6626 15.2744 67.5692 14.6211 67.5692 13.9117C67.5692 13.0997 67.6812 12.3857 67.9052 11.7697C68.1292 11.1444 68.4372 10.6217 68.8292 10.2017C69.2212 9.78173 69.6879 9.4644 70.2292 9.24973C70.7706 9.03506 71.3632 8.92773 72.0072 8.92773C72.3992 8.92773 72.7632 8.95106 73.0992 8.99773C73.4446 9.03506 73.7572 9.0864 74.0372 9.15173C74.3266 9.21706 74.5926 9.28706 74.8352 9.36173L74.5832 10.3977ZM76.5911 9.05373H77.7671V13.1837H82.5971V9.05373H83.7731V18.6017H82.5971V14.2337H77.7671V18.6017H76.5911V9.05373Z" fill="white"/>
</svg>
